<svg width="262" height="262" viewBox="0 0 262 262" fill="none" xmlns="http://www.w3.org/2000/svg">
<g clip-path="url(#clip0_23569_40492)">
<path d="M195.62 32.1856C195.755 32.5754 196.181 32.7816 196.571 32.6462C197.773 32.2286 199.007 31.8543 200.275 31.526C201.686 31.1608 203.06 30.8711 204.397 30.6524C204.804 30.5858 205.08 30.2017 205.014 29.7944C204.947 29.3872 204.563 29.111 204.156 29.1776C202.772 29.4039 201.354 29.7032 199.901 30.0794C198.594 30.4178 197.321 30.8038 196.081 31.2347C195.691 31.3701 195.484 31.7958 195.62 32.1856ZM220.904 31.8531C221.293 31.9915 221.72 31.7885 221.858 31.3998C221.997 31.0111 221.794 30.5837 221.405 30.4452C218.765 29.5051 215.912 28.9058 212.842 28.7088C212.431 28.6823 212.075 28.9948 212.049 29.4066C212.022 29.8184 212.335 30.1736 212.747 30.2C215.681 30.3883 218.397 30.9604 220.904 31.8531ZM182.028 39.8773C182.282 40.2029 182.751 40.2615 183.077 40.0082C185.092 38.4408 187.237 37.0202 189.52 35.7719C189.882 35.5739 190.015 35.1199 189.817 34.7579C189.619 34.3958 189.165 34.2627 188.803 34.4606C186.447 35.7491 184.235 37.2142 182.16 38.8286C181.834 39.082 181.775 39.5515 182.028 39.8773ZM234.277 41.4823C234.54 41.8007 235.011 41.846 235.329 41.5835C235.648 41.321 235.693 40.8502 235.43 40.5318C233.57 38.275 231.467 36.2473 229.114 34.532C228.781 34.2889 228.313 34.3621 228.07 34.6955C227.827 35.029 227.901 35.4964 228.234 35.7395C230.476 37.3741 232.489 39.3129 234.277 41.4823ZM171.32 51.2751C171.651 51.5208 172.119 51.4512 172.365 51.1196C173.908 49.0374 175.566 47.0526 177.349 45.1919C177.634 44.894 177.624 44.4209 177.326 44.1355C177.028 43.8501 176.555 43.8603 176.27 44.1582C174.44 46.0678 172.742 48.1012 171.164 50.2299C170.918 50.5614 170.988 51.0294 171.32 51.2751ZM242.206 56.2191C242.337 56.6103 242.76 56.8212 243.152 56.6901C243.543 56.559 243.754 56.1355 243.623 55.7442C242.701 52.9949 241.572 50.3151 240.226 47.7766C240.033 47.4121 239.58 47.2731 239.216 47.4664C238.851 47.6597 238.712 48.112 238.906 48.4766C240.21 50.9369 241.308 53.5407 242.206 56.2191ZM163.472 64.8329C163.845 65.0093 164.29 64.8499 164.467 64.4769C165.575 62.1329 166.781 59.8316 168.093 57.5993C168.302 57.2435 168.183 56.7856 167.827 56.5766C167.471 56.3675 167.013 56.4864 166.804 56.8422C165.468 59.1162 164.242 61.4573 163.116 63.838C162.94 64.211 163.099 64.6565 163.472 64.8329ZM157.929 79.5025C158.323 79.625 158.741 79.4049 158.864 79.0109C159.627 76.5577 160.474 74.0917 161.413 71.6415C161.561 71.2562 161.368 70.824 160.983 70.6762C160.598 70.5285 160.166 70.7211 160.018 71.1064C159.066 73.5892 158.209 76.0857 157.437 78.567C157.314 78.9611 157.534 79.3799 157.929 79.5025ZM255.968 62.4205C256.361 62.5454 256.782 62.3278 256.906 61.9345C257.031 61.5412 256.814 61.1211 256.42 60.9962C253.878 60.189 251.174 59.8372 248.322 60.063C247.911 60.0955 247.604 60.4553 247.636 60.8667C247.669 61.2781 248.029 61.5852 248.44 61.5526C251.091 61.3427 253.602 61.6692 255.968 62.4205ZM232.976 67.4647C233.226 67.7932 233.694 67.8569 234.023 67.6071C235.137 66.7594 236.327 65.9587 237.593 65.2163C238.769 64.5269 239.922 63.9424 241.052 63.4553C241.431 63.292 241.606 62.8524 241.443 62.4735C241.28 62.0945 240.84 61.9196 240.461 62.0829C239.271 62.5957 238.063 63.2086 236.837 63.9273C235.519 64.7002 234.28 65.5342 233.118 66.4177C232.79 66.6675 232.726 67.1363 232.976 67.4647ZM245.999 73.5018C246.411 73.4857 246.732 73.1384 246.716 72.726C246.607 69.9066 246.292 67.0136 245.767 64.1229C245.693 63.7169 245.304 63.4476 244.898 63.5214C244.492 63.5952 244.223 63.9841 244.297 64.3901C244.809 67.212 245.116 70.0353 245.223 72.7843C245.239 73.1966 245.587 73.5179 245.999 73.5018ZM268.425 71.195C268.696 71.5058 269.168 71.5378 269.479 71.2663C269.79 70.9949 269.822 70.5229 269.55 70.2121C267.75 68.1507 265.776 66.2824 263.636 64.7237C263.302 64.4808 262.835 64.5543 262.592 64.8879C262.349 65.2215 262.422 65.6889 262.756 65.9318C264.792 67.4142 266.685 69.2029 268.425 71.195ZM222.54 81.3356C222.921 81.4951 223.359 81.3158 223.518 80.9352C224.554 78.4641 226.011 75.9655 227.895 73.5935C228.152 73.2704 228.098 72.8003 227.775 72.5437C227.451 72.2871 226.982 72.341 226.725 72.6641C224.757 75.1415 223.229 77.7582 222.14 80.3578C221.981 80.7384 222.16 81.1762 222.54 81.3356ZM154.179 94.737C154.584 94.8171 154.977 94.5539 155.057 94.1491C155.545 91.683 156.109 89.1301 156.761 86.527C156.861 86.1267 156.618 85.7209 156.217 85.6206C155.817 85.5204 155.411 85.7637 155.311 86.164C154.653 88.7934 154.083 91.3706 153.591 93.8591C153.511 94.2639 153.774 94.6569 154.179 94.737ZM276.756 84.3556C276.929 84.7302 277.373 84.8936 277.747 84.7206C278.122 84.5476 278.285 84.1036 278.112 83.729C277.019 81.3612 275.75 78.976 274.312 76.6784C274.093 76.3286 273.632 76.2225 273.282 76.4415C272.932 76.6604 272.826 77.1213 273.045 77.4711C274.447 79.7106 275.686 82.0397 276.756 84.3556ZM243.436 90.2976C243.823 90.4416 244.253 90.245 244.397 89.8583C245.339 87.3302 246.001 84.4592 246.381 81.3797C246.431 80.9701 246.14 80.5971 245.731 80.5467C245.321 80.4962 244.948 80.7873 244.898 81.1969C244.53 84.1824 243.89 86.9367 242.997 89.3367C242.853 89.7235 243.049 90.1536 243.436 90.2976ZM222.773 97.8522C223.046 98.1619 223.518 98.192 223.828 97.9193C224.138 97.6466 224.168 97.1745 223.895 96.8648C222.319 95.0749 221.521 92.3814 221.613 89.166C221.625 88.7535 221.301 88.4095 220.888 88.3976C220.476 88.3857 220.132 88.7104 220.12 89.1229C220.02 92.582 220.871 95.6913 222.773 97.8522ZM151.906 110.258C152.316 110.301 152.684 110.003 152.727 109.593C152.974 107.26 153.296 104.652 153.719 101.844C153.781 101.436 153.5 101.056 153.092 100.994C152.684 100.933 152.303 101.214 152.241 101.622C151.815 104.454 151.489 107.083 151.241 109.436C151.198 109.847 151.495 110.214 151.906 110.258ZM280.657 95.3926C280.753 95.7938 281.157 96.0411 281.558 95.9449C281.959 95.8486 282.206 95.4453 282.11 95.044C281.816 93.819 281.454 92.5261 281.026 91.1883C280.9 90.7953 280.48 90.5787 280.087 90.7045C279.694 90.8303 279.477 91.2508 279.603 91.6438C280.02 92.9488 280.372 94.206 280.657 95.3926ZM231.399 100.756C232.77 100.611 234.253 100.269 235.847 99.7115C237.281 99.2098 238.574 98.3964 239.723 97.3318C240.026 97.0514 240.044 96.5786 239.764 96.2759C239.483 95.9732 239.01 95.9552 238.708 96.2356C237.692 97.1769 236.572 97.8746 235.353 98.301C233.851 98.8264 232.482 99.139 231.243 99.2697C230.832 99.3129 230.535 99.6806 230.578 100.091C230.621 100.501 230.989 100.799 231.399 100.756ZM151.182 121.972C151.582 121.975 151.911 121.665 151.935 121.27L151.936 121.232C151.936 121.232 151.936 121.231 151.936 121.231C151.936 121.231 151.936 121.23 151.936 121.229C151.936 121.226 151.936 121.222 151.936 121.217C151.936 121.207 151.937 121.191 151.937 121.17C151.937 121.128 151.939 121.065 151.94 120.981C151.944 120.813 151.95 120.562 151.96 120.234C151.98 119.578 152.019 118.614 152.088 117.385C152.112 116.973 151.796 116.62 151.384 116.597C150.972 116.573 150.62 116.888 150.596 117.3C150.526 118.543 150.487 119.52 150.466 120.187C150.456 120.521 150.45 120.777 150.446 120.951C150.444 121.037 150.443 121.104 150.443 121.148C150.442 121.171 150.442 121.188 150.442 121.199C150.442 121.205 150.442 121.21 150.442 121.213C150.442 121.214 150.442 121.215 150.442 121.216C150.442 121.217 150.442 121.217 150.442 121.217L150.442 121.218C150.438 121.63 150.769 121.968 151.182 121.972Z" fill="#9AD0D2"/>
<path d="M98.03 201.825C98.437 201.757 98.8222 202.031 98.8903 202.438C99.1184 203.8 99.2744 204.878 99.3736 205.617C99.4232 205.987 99.4587 206.272 99.4817 206.465C99.4933 206.561 99.5017 206.635 99.5073 206.685C99.5102 206.71 99.5123 206.729 99.5137 206.742C99.5144 206.748 99.5149 206.754 99.5153 206.757C99.5155 206.759 99.5156 206.76 99.5157 206.761C99.5158 206.762 99.5158 206.762 99.5158 206.762L99.516 206.763V206.763C99.5593 207.173 99.2618 207.541 98.8514 207.584C98.4411 207.628 98.0732 207.33 98.0298 206.92C98.0298 206.92 98.0299 206.92 98.0298 206.919C98.0298 206.919 98.0296 206.918 98.0294 206.917C98.0292 206.914 98.0287 206.91 98.0281 206.904C98.0269 206.893 98.025 206.875 98.0224 206.852C98.0172 206.805 98.0091 206.735 97.998 206.642C97.9758 206.456 97.9411 206.178 97.8925 205.816C97.7953 205.092 97.6417 204.03 97.4165 202.685C97.3484 202.278 97.623 201.893 98.03 201.825ZM-20.7928 198.358C-20.6727 197.963 -20.2553 197.741 -19.8605 197.861C-19.4657 197.981 -19.2431 198.398 -19.3632 198.793C-19.7746 200.145 -20.1057 201.452 -20.3541 202.689C-20.4353 203.093 -20.8292 203.355 -21.2338 203.274C-21.6383 203.193 -21.9004 202.799 -21.8192 202.395C-21.5605 201.106 -21.2171 199.753 -20.7928 198.358ZM19.8152 194.635C20.0825 194.321 20.5541 194.283 20.8685 194.55C21.9605 195.478 23.0784 196.2 24.2089 196.693C25.4495 197.235 26.6244 197.62 27.7271 197.867C28.1297 197.957 28.3831 198.357 28.293 198.759C28.2029 199.162 27.8035 199.415 27.4008 199.325C26.1959 199.056 24.9301 198.639 23.6107 198.063C22.3235 197.5 21.0831 196.694 19.9005 195.688C19.5861 195.421 19.548 194.95 19.8152 194.635ZM38.7888 191.898C38.8732 191.494 39.2691 191.235 39.673 191.32C40.0769 191.404 40.336 191.8 40.2516 192.204C39.6554 195.057 37.976 197.389 35.4099 198.663C35.0403 198.846 34.5918 198.695 34.4084 198.325C34.225 197.956 34.376 197.507 34.7457 197.324C36.8629 196.273 38.2772 194.346 38.7888 191.898ZM93.994 184.924C94.3895 184.807 94.8056 185.032 94.9233 185.427C95.827 188.463 96.5654 191.31 97.1647 193.873C97.2586 194.275 97.0091 194.677 96.6073 194.771C96.2055 194.865 95.8036 194.615 95.7096 194.213C95.1164 191.676 94.3856 188.858 93.4912 185.854C93.3734 185.458 93.5985 185.042 93.994 184.924ZM-13.6616 183.393C-13.4323 183.05 -12.9684 182.958 -12.6253 183.187C-12.2822 183.416 -12.1899 183.88 -12.4191 184.223C-13.9432 186.504 -15.2801 188.885 -16.4153 191.26C-16.5932 191.633 -17.0393 191.79 -17.4116 191.612C-17.784 191.435 -17.9416 190.988 -17.7637 190.616C-16.5996 188.18 -15.2276 185.737 -13.6616 183.393ZM11.044 180.447C11.4275 180.294 11.8619 180.481 12.0143 180.865C13.0933 183.579 14.3312 186.082 15.69 188.279C15.9071 188.629 15.7986 189.09 15.4477 189.307C15.0968 189.524 14.6363 189.416 14.4192 189.065C13.008 186.784 11.7323 184.201 10.6257 181.417C10.4733 181.033 10.6605 180.599 11.044 180.447ZM34.0833 177.506C34.3896 177.23 34.8621 177.254 35.1385 177.561C37.1113 179.747 38.5103 182.018 39.383 184.241C39.5338 184.625 39.3447 185.058 38.9606 185.209C38.5765 185.36 38.1428 185.171 37.992 184.787C37.1912 182.747 35.8932 180.628 34.029 178.562C33.7526 178.255 33.7769 177.783 34.0833 177.506ZM-2.14624 171.438C-1.80357 171.208 -1.33935 171.3 -1.10946 171.642C-0.87956 171.985 -0.971077 172.449 -1.31376 172.679C-3.50131 174.147 -5.53785 175.919 -7.4078 177.897C-7.6913 178.196 -8.16424 178.21 -8.46409 177.926C-8.76392 177.643 -8.77717 177.17 -8.49367 176.87C-6.5588 174.823 -4.43867 172.976 -2.14624 171.438ZM87.8773 168.656C88.2535 168.486 88.6959 168.654 88.8654 169.03C90.0965 171.764 91.1921 174.478 92.1658 177.123C92.3084 177.51 92.1101 177.94 91.7229 178.082C91.3356 178.225 90.9061 178.027 90.7636 177.639C89.8008 175.024 88.7183 172.343 87.5028 169.644C87.3333 169.267 87.501 168.825 87.8773 168.656ZM7.13179 164.143C7.54137 164.093 7.91402 164.384 7.96414 164.794C8.05978 165.576 8.16988 166.356 8.29302 167.133C10.0645 166.829 11.8977 166.718 13.7878 166.831C14.1997 166.856 14.5135 167.21 14.4888 167.622C14.4641 168.034 14.1102 168.348 13.6982 168.323C11.9251 168.217 10.2059 168.32 8.54336 168.606C8.81031 170.079 9.12444 171.536 9.48304 172.967C9.58334 173.367 9.34018 173.773 8.9399 173.873C8.53964 173.973 8.13383 173.73 8.03352 173.33C7.66982 171.879 7.35023 170.401 7.07872 168.908C6.66623 169.007 6.25742 169.117 5.85235 169.239C5.45703 169.357 5.04065 169.132 4.92236 168.737C4.8041 168.342 5.02867 167.925 5.42397 167.807C5.8869 167.668 6.35469 167.543 6.82705 167.432C6.69696 166.616 6.58126 165.796 6.48079 164.975C6.4307 164.565 6.72219 164.193 7.13179 164.143ZM21.0095 169.102C21.1588 168.717 21.5916 168.526 21.9762 168.675C23.2322 169.163 24.5052 169.75 25.7944 170.442C26.9966 171.088 28.1188 171.763 29.1631 172.462C29.506 172.692 29.598 173.156 29.3685 173.499C29.1391 173.842 28.675 173.934 28.332 173.704C27.3291 173.033 26.2484 172.383 25.0871 171.759C23.8493 171.094 22.6318 170.533 21.4358 170.068C21.051 169.919 20.8602 169.486 21.0095 169.102ZM79.3495 153.522C79.6908 153.29 80.1554 153.379 80.3873 153.72C82.0471 156.163 83.5677 158.668 84.9601 161.195C85.1592 161.556 85.0275 162.011 84.6661 162.21C84.3047 162.409 83.8503 162.277 83.6512 161.916C82.2792 159.426 80.7827 156.961 79.1513 154.56C78.9194 154.219 79.0082 153.754 79.3495 153.522ZM6.80065 148.004C6.87505 147.598 7.26439 147.329 7.67028 147.404C8.07618 147.478 8.34499 147.867 8.2706 148.273C7.78625 150.916 7.53741 153.683 7.49981 156.504C7.4943 156.916 7.1553 157.247 6.74268 157.241C6.33008 157.236 6.00008 156.897 6.00558 156.484C6.04417 153.59 6.29951 150.738 6.80065 148.004ZM67.9325 140.462C68.2106 140.157 68.6833 140.135 68.9881 140.413C71.1673 142.402 73.1948 144.522 75.0805 146.736C75.3481 147.05 75.3103 147.522 74.9961 147.79C74.682 148.057 74.2103 148.019 73.9428 147.705C72.0946 145.535 70.1104 143.461 67.9807 141.517C67.6759 141.239 67.6543 140.766 67.9325 140.462ZM13.9076 132.552C14.1872 132.249 14.6599 132.229 14.9634 132.509C15.2669 132.788 15.2862 133.261 15.0066 133.564C13.202 135.523 11.7517 137.832 10.6244 140.399C10.4584 140.776 10.0175 140.948 9.63972 140.782C9.26192 140.616 9.0902 140.175 9.25618 139.797C10.4404 137.102 11.9763 134.649 13.9076 132.552ZM53.4812 130.914C53.6592 130.542 54.1052 130.384 54.4775 130.562C57.1727 131.85 59.7105 133.325 62.0996 134.954C62.4406 135.186 62.5285 135.651 62.2961 135.992C62.0637 136.333 61.5988 136.421 61.2579 136.188C58.929 134.601 56.457 133.165 53.8331 131.91C53.4608 131.732 53.3033 131.286 53.4812 130.914ZM29.2405 125.304C29.6514 125.265 30.0159 125.567 30.0547 125.977C30.0935 126.388 29.792 126.753 29.3812 126.792C26.4073 127.073 23.7943 127.778 21.5095 128.829C21.1346 129.002 20.691 128.838 20.5185 128.463C20.3461 128.088 20.5101 127.644 20.8849 127.472C23.3347 126.345 26.1131 125.599 29.2405 125.304ZM36.9471 126.18C37.002 125.771 37.378 125.484 37.787 125.539C39.142 125.721 40.5457 125.97 41.9993 126.289C43.457 126.608 44.879 126.977 46.266 127.393C46.6613 127.512 46.8857 127.928 46.7672 128.323C46.6488 128.719 46.2324 128.943 45.8371 128.825C44.5705 128.445 43.2734 128.105 41.9452 127.807L41.6792 127.748C40.2633 127.438 38.9001 127.196 37.5883 127.02C37.1793 126.965 36.8923 126.589 36.9471 126.18Z" fill="#9AD0D2"/>
<path d="M247.835 193.541C249.115 197.468 252 200.646 255.69 202.33C252.07 204.037 249.276 207.181 248.016 211.007C246.735 207.081 243.854 203.903 240.164 202.221C243.783 200.514 246.576 197.367 247.835 193.542V193.541Z" fill="#65C2C9"/>
<path d="M198.39 68.9006C199.772 73.1296 202.885 76.5517 206.867 78.3653C202.96 80.2033 199.946 83.5887 198.586 87.7091C197.203 83.4814 194.093 80.0593 190.111 78.2471C194.017 76.409 197.032 73.0209 198.39 68.9019V68.9006Z" fill="#65C2C9"/>
<path d="M3.24724 89.7136C4.5188 93.6044 7.38252 96.752 11.0464 98.4203C7.45181 100.11 4.6791 103.227 3.42791 107.016C2.15635 103.126 -0.706017 99.9785 -4.36719 98.3102C-0.773942 96.6189 1.99877 93.5025 3.24859 89.7123L3.24724 89.7136Z" fill="#65C2C9"/>
<path d="M184.654 67.9673C186.688 67.9673 188.337 66.3184 188.337 64.2843C188.337 62.2503 186.688 60.6014 184.654 60.6014C182.62 60.6014 180.971 62.2503 180.971 64.2843C180.971 66.3184 182.62 67.9673 184.654 67.9673Z" fill="#D8EEF0"/>
<path d="M43.1228 39.0544C44.5821 39.0544 45.7651 37.8714 45.7651 36.4121C45.7651 34.9528 44.5821 33.7698 43.1228 33.7698C41.6635 33.7698 40.4805 34.9528 40.4805 36.4121C40.4805 37.8714 41.6635 39.0544 43.1228 39.0544Z" fill="#D8EEF0"/>
<path d="M261.242 191.063C262.701 191.063 263.884 189.88 263.884 188.42C263.884 186.961 262.701 185.778 261.242 185.778C259.783 185.778 258.6 186.961 258.6 188.42C258.6 189.88 259.783 191.063 261.242 191.063Z" fill="#D8EEF0"/>
<path d="M162.121 132.033C146.245 135.014 104.828 143.208 85.7878 146.838C75.7794 148.817 51.8646 153.32 47.1542 154.331C43.6971 155.066 41.4759 153.121 40.9487 150.606C40.2659 146.371 26.1521 66.468 25.8755 64.4629C25.4002 61.6453 27.2411 59.3291 29.9896 58.9315L56.9725 54.8693C67.7674 53.2877 88.6918 49.9948 110.109 46.771L146.478 41.3001C148.414 40.9889 151.214 42.0866 151.707 45.1548C154.023 58.5685 163.513 113.684 165.751 126.674C166.218 129.111 164.688 131.497 162.121 132.033Z" fill="#E4ECF5"/>
<path d="M162.121 132.033C146.245 135.014 104.828 143.208 85.7878 146.838C75.7794 148.817 51.8646 153.32 47.1542 154.331C43.6971 155.066 41.4759 153.121 40.9487 150.606C40.3437 146.829 29.0388 82.7944 26.4114 67.6262C26.0916 65.7939 25.9015 64.6789 25.8755 64.4629C25.4002 61.6453 27.2411 59.3291 29.9896 58.9315L56.9725 54.8693C57.8627 54.7397 58.8221 54.6014 59.8506 54.4458C71.2332 52.7432 90.4636 49.7268 110.109 46.771L146.478 41.3001C148.414 40.9889 151.214 42.0866 151.707 45.1548C153.055 52.9766 156.849 74.9813 160.22 94.54C162.182 105.949 163.997 116.519 165.112 122.966C165.363 124.427 165.579 125.68 165.751 126.674C166.218 129.111 164.688 131.497 162.121 132.033Z" fill="#E4ECF5"/>
<path d="M165.112 122.966C146.798 128.178 124.223 128.524 100.982 122.793C63.8263 113.632 35.4086 91.4977 26.4114 67.6262C26.0916 65.7939 25.9015 64.6789 25.8755 64.4629C25.4002 61.6453 27.2411 59.3291 29.9895 58.9315L56.9725 54.8693C57.8627 54.7397 58.8221 54.6014 59.8506 54.4458C71.2332 52.7432 90.4636 49.7268 110.109 46.771L146.478 41.3001C148.414 40.9889 151.214 42.0866 151.707 45.1548C153.055 52.9766 156.849 74.9813 160.22 94.54C162.182 105.949 163.997 116.519 165.112 122.966Z" fill="#D5DEEB"/>
<path d="M160.219 94.54C148.326 94.903 135.604 93.5979 122.683 90.4087C95.8298 83.7883 73.5312 70.3833 59.8496 54.4458C71.2322 52.7432 90.4626 49.7268 110.108 46.771L146.477 41.3001C148.413 40.9889 151.213 42.0866 151.706 45.1548C153.054 52.9766 156.848 74.9813 160.219 94.54Z" fill="#CCD4E0"/>
<path d="M148.206 41.3778C147.627 41.4643 70.593 52.7778 70.593 52.7778C70.6017 52.7864 70.6103 52.7864 70.6103 52.7864C70.6103 52.7864 49.7724 56.7362 37.9663 58.8796C27.7591 60.7378 26.8256 60.6168 27.7504 65.7593L42.9014 150.546C42.9014 150.623 45.2436 153.415 46.6523 154.4C41.1209 154.651 35.0018 150.572 34.561 148.195C34.5696 148.195 20.0804 64.7555 20.0891 64.7555C19.6397 62.1022 20.0891 57.4778 25.426 56.9926L138.906 39.8999C140.159 39.6838 148.206 41.3778 148.206 41.3778Z" fill="#8E9EA7"/>
<path d="M165.743 126.666L151.707 45.1635C151.275 42.415 148.803 40.963 146.426 41.3087C143.159 41.7927 65.4942 53.5557 36.1344 58.0067C31.571 58.8969 25.279 58.1969 25.8754 64.4716L40.9399 150.598C41.1473 152.067 42.7549 155.04 46.6874 154.418L162.121 132.033C164.36 131.618 166.244 129.457 165.743 126.666ZM161.776 130.01C161.058 129.742 149.14 132.62 138.742 134.652L138.086 134.781C137.602 134.876 137.126 134.963 136.659 135.049L135.259 135.308L122.036 137.823L83.4887 145.153L80.3253 145.749L78.6141 146.077L46.3157 152.292C44.8292 152.577 43.4117 151.626 43.1611 150.183L28.1053 64.1345C27.967 63.3135 28.4337 61.3861 30.3697 61.0836C54.9154 57.2289 121.405 47.376 146.841 43.3398C147.921 43.1842 149.382 43.8584 149.727 45.4746L163.781 127.054C164.057 128.714 162.588 129.82 161.776 130.01Z" fill="#B2BCC1"/>
<path d="M80.3262 145.749L83.4895 145.144V145.153L80.3262 145.749Z" fill="#CBD3D2"/>
<path d="M110.602 46.7018C110.731 46.6846 110.887 46.6586 111.068 46.6327L110.602 46.7105V46.7018Z" fill="#CBD3D2"/>
<path d="M68.4322 55.3188L30.3691 61.0836L68.4236 55.2842C68.4236 55.2842 68.4322 55.3101 68.4322 55.3188Z" fill="#CBD3D2"/>
<path d="M26.6774 214.261L105.077 206.258L138.965 208.98L106.218 203.95C105.846 203.984 123.693 113.952 124.022 112.336C124.022 112.336 241.686 104.289 241.928 104.246C244.633 103.719 248.885 104.747 248.634 107.72C247.398 119.924 233.708 204.166 231.487 218.141C231.245 219.628 230.51 219.542 228.056 220.363C218.903 222.497 134.402 241.728 136.433 241.313C135.292 241.564 134.143 241.564 133.002 241.399C133.002 241.399 26.5737 221.685 26.5996 219.879L26.6774 214.278V214.261Z" fill="#8E9EA7"/>
<path d="M106.122 203.596C106.209 203.103 122.803 113.001 122.803 113.001C122.89 112.586 123.218 112.344 123.633 112.258C123.633 112.258 243.786 104.004 243.95 104.004C244.78 104.168 245.35 104.998 245.186 105.819L239.075 141.825L226.768 214.494C226.682 215.151 226.111 215.652 225.532 215.817H225.117C225.117 215.817 106.287 204.831 106.287 204.088C106.036 203.924 106.036 203.76 106.122 203.596Z" fill="#B2BCC1"/>
<path d="M203.043 106.804L133.727 207.122C117.833 205.549 106.286 204.322 106.286 204.088C106.131 203.984 106.07 203.872 106.07 203.768C106.07 203.708 106.088 203.656 106.114 203.587C106.2 203.094 122.794 112.993 122.794 112.993C122.872 112.578 123.209 112.336 123.624 112.249C123.624 112.249 168.152 109.19 203.034 106.796L203.043 106.804Z" fill="#CBD4DB"/>
<path d="M27.2641 213.837C26.5209 213.924 26.4344 215.237 27.2641 215.41L134.124 235.064C135.282 235.315 136.441 235.228 137.59 234.978L225.453 215.652L105.957 203.924L27.2555 213.837H27.2641Z" fill="#F9F9F9"/>
<path d="M225.454 215.652L137.59 234.978C136.432 235.228 135.274 235.306 134.116 235.055L68.8885 223.059L68.3008 222.869L188.203 211.996H188.212L225.445 215.652H225.454Z" fill="#E4E6EA"/>
<path d="M59.5458 213.422L144.436 226.879C144.851 226.966 145.343 226.966 145.758 226.879L198.194 217.709L106.113 208.133L59.5371 213.422H59.5458Z" fill="#B2BCC1"/>
<path d="M198.29 215.652L59.555 212.264C59.3908 212.264 59.2266 212.428 59.2266 212.593V213.915C59.2266 214.079 59.3908 214.243 59.555 214.33L144.532 226.715C144.946 226.802 145.439 226.802 145.854 226.715L198.212 217.631L198.299 215.652H198.29Z" fill="#B2BCC1"/>
<path d="M59.3828 212.264L144.524 224.736C144.938 224.822 145.431 224.822 145.846 224.736L198.204 215.652L106.123 206.404L59.3828 212.264Z" fill="#CBD4DB"/>
<path d="M93.5221 217.268L163.503 212.169L106.123 206.404L59.3828 212.264L93.5221 217.268Z" fill="#DAE0E5"/>
<path d="M111.904 196.992C111.74 197.9 112.397 198.807 113.304 198.894L219.499 209.378C220.329 209.464 221.072 208.885 221.236 208.055L238.167 111.601C238.332 110.607 237.511 109.7 236.517 109.786L128.421 116.476C127.677 116.562 127.098 117.055 126.934 117.798L111.904 196.992Z" fill="#D6E1EA"/>
<path d="M110.651 197.036L125.871 117.53C126.009 116.813 126.614 116.285 127.349 116.234L236.655 109.535C237.692 109.475 238.513 110.382 238.332 111.402L221.219 208.159C221.072 208.98 220.32 209.55 219.482 209.464L112.068 198.902C111.135 198.807 110.47 197.943 110.651 197.018V197.036Z" fill="#E9F1FA"/>
<path fill-rule="evenodd" clip-rule="evenodd" d="M238.332 111.402L221.219 208.159C221.081 208.98 220.32 209.55 219.482 209.473L132.293 200.899C125.586 194.633 119.406 187.814 113.814 180.51L125.871 117.53C126.01 116.813 126.615 116.277 127.349 116.234L236.655 109.535C237.692 109.475 238.513 110.382 238.332 111.402Z" fill="#E4ECF5"/>
<path fill-rule="evenodd" clip-rule="evenodd" d="M214.911 198.349C170.616 198.349 134.705 162.456 134.705 118.17C134.705 117.374 134.714 116.571 134.74 115.784L236.647 109.535C237.685 109.475 238.506 110.382 238.324 111.402L223.018 197.943C220.347 198.211 217.642 198.349 214.902 198.349H214.911Z" fill="#D5DEEB"/>
<path fill-rule="evenodd" clip-rule="evenodd" d="M214.919 163.812C189.708 163.812 169.268 143.381 169.268 118.17C169.268 116.648 169.345 115.145 169.492 113.658L236.664 109.544C237.702 109.484 238.523 110.391 238.341 111.411L229.491 161.444C224.919 162.983 220.018 163.821 214.919 163.821V163.812Z" fill="#C8D1DF"/>
<path d="M24.6986 104.263L55.9684 96.1043C57.6624 95.6376 60.1342 96.4586 60.6096 99.354L74.1097 176.353C74.5591 178.652 73.2368 181.003 70.9637 181.643C70.9637 181.643 43.54 188.712 40.0655 189.706C37.1183 190.553 35.3984 188.488 35.0527 186.552L21.5526 109.553C21.1204 107.037 22.5292 104.825 24.6899 104.263H24.6986Z" fill="#EAEEEF"/>
<path d="M21.5534 109.544L22.6078 115.551L35.0535 186.552C35.1831 187.26 35.4943 187.995 35.9869 188.583C36.8339 189.603 38.1995 190.234 40.0664 189.698C43.5408 188.704 70.9645 181.634 70.9645 181.634C73.2289 181.003 74.5513 178.652 74.1019 176.344L72.1572 165.256L61.7426 105.879L60.5931 99.3453C60.1178 96.45 57.6373 95.6289 55.9519 96.0956L24.6821 104.254C22.5214 104.808 21.1126 107.029 21.5447 109.535L21.5534 109.544Z" fill="#E9F1FA"/>
<path d="M71.5513 161.747C67.1953 163.147 62.5454 163.899 57.7227 163.899C46.9797 163.899 37.1009 160.165 29.3396 153.916L22.6068 115.551L21.5524 109.544C21.5005 109.241 21.4746 108.939 21.4746 108.645C21.4746 106.519 22.797 104.747 24.6984 104.263L28.4235 103.295L55.9682 96.1043C57.6622 95.6376 60.1341 96.4586 60.6094 99.354L61.7589 105.888L67.5151 138.731L71.5513 161.747Z" fill="#E4ECF5"/>
<path d="M67.5154 138.731C47.4122 138.074 30.9821 122.871 28.4238 103.295L55.9686 96.1043C57.6626 95.6376 60.1344 96.4586 60.6098 99.354L61.7593 105.888L67.5154 138.731Z" fill="#D5DEEB"/>
<path d="M57.4815 96.0352C57.4815 96.0352 50.4203 95.1018 49.3313 95.4043L19.0467 103.338C17.007 103.892 15.6847 106.251 16.0909 108.611C16.0909 108.611 16.0909 108.611 16.0909 108.619L29.9454 184.607C30.3343 186.725 35.2607 190.19 39.6686 189.784C38.5277 188.946 36.6177 186.5 36.609 186.431L23.057 110.59C22.2273 106 22.9706 106.044 31.0344 103.658C40.4464 100.867 57.4729 96.0265 57.4902 96.0352H57.4815Z" fill="#8E9EA7"/>
<path d="M25.0007 106.19C25.0007 106.19 24.9748 106.199 24.9662 106.199C24.9921 106.199 25.0094 106.19 25.0353 106.182C25.0266 106.182 25.0094 106.182 25.0007 106.19ZM21.5177 109.328C21.5263 109.406 21.535 109.475 21.5436 109.553L25.2254 130.563L31.0334 163.674L35.0437 186.543C35.1129 186.941 35.2339 187.321 35.3981 187.658C35.424 187.71 35.4499 187.753 35.4672 187.796C35.4845 187.822 35.4932 187.857 35.5104 187.883C35.5623 187.986 35.6228 188.081 35.6833 188.176C35.6919 188.194 35.7092 188.211 35.7179 188.228C35.7179 188.228 35.7179 188.228 35.7179 188.237C35.7524 188.289 35.787 188.341 35.8216 188.384L35.8389 188.401C35.8821 188.462 35.9339 188.522 35.9858 188.583C36.0117 188.609 36.029 188.635 36.0549 188.66C36.0809 188.686 36.0981 188.712 36.1154 188.73C36.1673 188.781 36.2105 188.833 36.2624 188.877C36.2969 188.911 36.3229 188.937 36.3574 188.972C36.3661 188.98 36.3834 188.998 36.4007 189.015L36.4179 189.032C36.4611 189.067 36.5044 189.101 36.5476 189.136C36.6081 189.188 36.6772 189.231 36.7377 189.274C36.7636 189.3 36.7982 189.317 36.8242 189.335C36.8501 189.352 36.876 189.369 36.9106 189.386C36.9106 189.386 36.9106 189.386 36.9192 189.386C36.9884 189.43 37.0575 189.464 37.1267 189.499C37.1267 189.499 37.1266 189.499 37.1353 189.499C37.1699 189.516 37.2044 189.533 37.2304 189.551C37.2304 189.551 37.2476 189.551 37.2476 189.559C37.2822 189.577 37.3082 189.585 37.3427 189.603C37.3859 189.62 37.4378 189.637 37.481 189.654C37.4983 189.654 37.5069 189.663 37.5242 189.672C37.5415 189.672 37.5501 189.68 37.5674 189.689C37.6452 189.715 37.723 189.741 37.8008 189.758C38.0342 189.827 38.2848 189.862 38.5268 189.879C38.57 189.879 38.6046 189.879 38.6478 189.879C38.9762 189.879 39.3133 189.845 39.659 189.758L40.0306 189.663L49.4341 187.208L70.9288 181.599C71.093 181.556 71.2573 181.504 71.4128 181.435C71.4301 181.435 71.456 181.418 71.4733 181.409C71.4733 181.409 71.5598 181.366 71.5943 181.349C71.6116 181.349 71.6289 181.331 71.6462 181.331C71.6635 181.323 71.6808 181.314 71.6894 181.305C71.724 181.288 71.7499 181.271 71.7845 181.254C71.7845 181.254 71.7931 181.254 71.8018 181.245C71.8623 181.21 71.9141 181.184 71.9746 181.15C72.0265 181.115 72.087 181.081 72.1388 181.046C72.2426 180.977 72.3463 180.899 72.4413 180.821C72.5796 180.709 72.7093 180.588 72.8303 180.458C72.8389 180.45 72.8475 180.441 72.8562 180.433C72.8994 180.389 72.9426 180.337 72.9858 180.286C72.9858 180.286 73.0204 180.242 73.0377 180.216C73.055 180.199 73.0723 180.173 73.0895 180.147C73.1155 180.113 73.1414 180.078 73.1759 180.044C73.2019 180 73.2365 179.966 73.2624 179.923C73.2883 179.888 73.3056 179.862 73.3316 179.828C73.3316 179.828 73.3315 179.81 73.3402 179.802C73.3402 179.802 73.3402 179.793 73.3488 179.784C73.4093 179.689 73.4698 179.594 73.5217 179.499C73.5563 179.439 73.5908 179.369 73.6254 179.3C73.6772 179.197 73.7291 179.084 73.7723 178.972C73.8674 178.73 73.9452 178.479 74.0057 178.22C74.023 178.168 74.0316 178.108 74.0402 178.047C74.1439 177.494 74.1439 176.915 74.0402 176.336L60.7476 100.512L60.5401 99.3453C60.4883 99.0515 60.4105 98.7749 60.3154 98.5156C59.7018 96.8734 58.1979 95.8536 56.5558 95.9832C56.5039 95.9832 56.4521 95.9919 56.4002 96.0005C56.2965 96.0092 56.2014 96.0265 56.0977 96.0524C56.0458 96.061 55.994 96.0783 55.9421 96.0869C55.9335 96.0869 55.9248 96.0869 55.9076 96.0869L55.8557 96.1042L43.6433 99.2848L24.6291 104.246C24.5859 104.254 24.534 104.272 24.4908 104.28C24.4476 104.289 24.3957 104.306 24.3525 104.324C24.3093 104.341 24.2661 104.358 24.2142 104.367C24.171 104.384 24.1278 104.401 24.0846 104.419C24.0241 104.445 23.9636 104.47 23.9031 104.496C23.8426 104.522 23.7907 104.557 23.7302 104.583C23.7043 104.6 23.6784 104.609 23.6525 104.626C23.6265 104.643 23.6006 104.661 23.5746 104.669C23.5055 104.712 23.445 104.756 23.3759 104.799C23.3759 104.799 23.3672 104.799 23.3586 104.808C23.3499 104.816 23.3327 104.825 23.324 104.833C23.2895 104.859 23.2635 104.877 23.2289 104.903C23.1857 104.937 23.1511 104.972 23.1166 104.998C23.0993 105.015 23.0734 105.032 23.0561 105.05C23.0215 105.075 22.9869 105.101 22.9524 105.136C22.9091 105.179 22.8659 105.214 22.8227 105.248C22.7363 105.335 22.6499 105.43 22.5634 105.525C22.5548 105.534 22.5375 105.551 22.5289 105.56C22.4943 105.603 22.4597 105.646 22.4252 105.689C22.4165 105.698 22.4079 105.715 22.3992 105.724C22.3992 105.724 22.3906 105.741 22.382 105.75C22.3474 105.793 22.3214 105.836 22.2869 105.879C22.2696 105.897 22.261 105.923 22.2437 105.94C22.1918 106.009 22.1486 106.078 22.114 106.147C22.0708 106.216 22.0276 106.286 21.993 106.363C21.9757 106.389 21.9671 106.415 21.9584 106.441C21.9412 106.476 21.9239 106.502 21.9066 106.536C21.8893 106.571 21.872 106.605 21.8547 106.64C21.8547 106.64 21.8547 106.648 21.8547 106.657C21.8288 106.709 21.8115 106.752 21.7942 106.804C21.7942 106.821 21.7856 106.83 21.7769 106.847C21.751 106.908 21.7251 106.968 21.7078 107.037C21.6819 107.098 21.6646 107.158 21.6473 107.219C21.6473 107.236 21.6386 107.254 21.63 107.271C21.63 107.279 21.63 107.288 21.6214 107.297C21.6214 107.323 21.6041 107.349 21.6041 107.374C21.5781 107.461 21.5609 107.547 21.5349 107.642C21.5263 107.686 21.5177 107.729 21.509 107.772C21.509 107.772 21.509 107.772 21.509 107.789C21.4917 107.858 21.4831 107.936 21.4744 108.005C21.4744 108.005 21.4744 108.014 21.4744 108.023C21.4744 108.04 21.4744 108.057 21.4744 108.083C21.4226 108.472 21.4226 108.861 21.4744 109.259C21.4744 109.267 21.4744 109.285 21.4744 109.293L21.5177 109.328ZM33.1769 165.428L27.3084 131.946L27.1096 130.823L24.2747 114.652L23.2981 109.086C23.229 108.697 23.2549 108.299 23.3499 107.936C23.3672 107.867 23.3932 107.798 23.4191 107.729C23.4277 107.694 23.4364 107.668 23.4537 107.634C23.5055 107.495 23.5747 107.366 23.6525 107.236C23.6697 107.202 23.687 107.176 23.7129 107.141C23.7302 107.107 23.7562 107.081 23.7734 107.055C23.8167 106.994 23.8599 106.942 23.9031 106.891C23.9376 106.847 23.9809 106.804 24.0241 106.761C24.0241 106.752 24.0414 106.744 24.05 106.735C24.0846 106.7 24.1192 106.666 24.1624 106.631C24.197 106.597 24.2402 106.562 24.2834 106.536C24.292 106.528 24.3093 106.519 24.3179 106.51C24.3612 106.476 24.4044 106.45 24.4562 106.415C24.4994 106.389 24.5427 106.363 24.5859 106.346C24.6291 106.32 24.6637 106.303 24.7069 106.285C24.7328 106.277 24.7587 106.268 24.7847 106.251C24.8452 106.225 24.9057 106.208 24.9748 106.19C25.0007 106.19 25.018 106.182 25.0439 106.173L29.6333 104.98L42.5457 101.61L56.3138 98.0143C57.2645 97.7636 58.1893 98.239 58.6387 99.1033C58.751 99.3194 58.8289 99.5527 58.8721 99.812L59.7018 104.548L59.719 104.669L71.4388 171.47L72.3722 176.803C72.4413 177.2 72.4154 177.598 72.3117 177.969C72.2857 178.064 72.2512 178.159 72.2166 178.255C72.1734 178.35 72.1302 178.453 72.0783 178.548C72.0611 178.583 72.0438 178.609 72.0265 178.643C72.0092 178.678 71.9919 178.704 71.9746 178.73C71.9141 178.816 71.8536 178.903 71.7845 178.98C71.6462 179.145 71.4906 179.283 71.3178 179.404C71.2918 179.421 71.2659 179.439 71.2313 179.456C71.2313 179.456 71.2313 179.456 71.2227 179.456C71.1622 179.49 71.1017 179.525 71.0412 179.56C70.9115 179.62 70.7819 179.672 70.6436 179.706L64.9048 181.202L48.5871 185.463L45.4411 186.284L42.0704 187.165L39.3738 187.865C38.1897 188.176 37.0489 187.373 36.8155 186.076L35.7524 180.026L33.1941 165.411L33.1769 165.428ZM24.9662 106.199C24.9662 106.199 25.0094 106.19 25.0353 106.182C25.0266 106.182 25.0094 106.182 25.0007 106.19C24.9921 106.19 24.9748 106.199 24.9662 106.199Z" fill="#CBD3D2"/>
<path d="M49.4698 187.252L40.0664 189.706C40.7492 188.877 41.4061 188.03 42.0456 187.183L45.4163 186.301L48.5623 185.48L64.88 181.219L70.6189 179.724C70.7572 179.689 70.8868 179.637 71.0164 179.577C71.0769 179.551 71.1374 179.516 71.1979 179.473C71.1979 179.473 71.198 179.473 71.2066 179.473C71.2325 179.456 71.2584 179.439 71.293 179.421C71.4659 179.3 71.6215 179.162 71.7598 178.998C71.8289 178.92 71.8894 178.834 71.9499 178.747C71.9672 178.721 71.9844 178.687 72.0017 178.661C72.0795 178.54 72.14 178.41 72.1919 178.272C72.3647 177.831 72.4252 177.33 72.3388 176.828L71.4054 171.496L59.6943 104.687L59.677 104.566C60.0055 103.563 60.308 102.552 60.5586 101.541C60.6364 101.204 60.7228 100.884 60.792 100.547V100.538L74.0933 176.379C74.2057 177.019 74.1884 177.658 74.0501 178.255C73.9896 178.514 73.9118 178.765 73.8168 179.007C73.7735 179.119 73.7216 179.231 73.6698 179.335C73.6352 179.404 73.6006 179.473 73.5661 179.534C73.5142 179.629 73.4537 179.724 73.3932 179.819C73.3932 179.836 73.3759 179.845 73.3673 179.862C73.3414 179.897 73.3241 179.931 73.2981 179.957C73.2463 180.035 73.1858 180.113 73.1253 180.191C73.0907 180.234 73.0562 180.277 73.013 180.32C72.9698 180.372 72.9265 180.415 72.8833 180.467C72.8833 180.467 72.866 180.493 72.8488 180.502C72.7278 180.631 72.5981 180.752 72.4598 180.865C72.3647 180.943 72.261 181.02 72.1573 181.089C72.1054 181.124 72.0536 181.159 71.9931 181.193C71.898 181.254 71.803 181.306 71.7079 181.349C71.6906 181.357 71.6733 181.366 71.6646 181.375C71.6646 181.375 71.6301 181.392 71.6128 181.392C71.5696 181.418 71.5264 181.435 71.4832 181.452C71.4659 181.461 71.44 181.47 71.4227 181.478C71.2671 181.539 71.1029 181.599 70.9387 181.643L49.4439 187.252H49.4698Z" fill="#D6DEDE"/>
<path d="M42.5389 101.627L29.6265 104.989L25.0458 106.182C23.8617 106.493 23.0838 107.798 23.3172 109.094L24.2938 114.66L27.1287 130.823C26.8608 131.376 26.5928 131.938 26.3249 132.491C26.1434 132.862 25.9619 133.243 25.7891 133.614L21.5627 109.544C21.1478 107.193 22.5566 104.825 24.7087 104.263L43.723 99.3022C43.36 100.089 42.9624 100.867 42.5475 101.618L42.5389 101.627Z" fill="#D6DEDE"/>
<path d="M49.4698 187.252L40.0664 189.706C40.7492 188.877 41.4061 188.03 42.0456 187.183L45.4163 186.301L48.5623 185.48L64.88 181.219L70.6189 179.724C70.7572 179.689 70.8868 179.637 71.0164 179.577C71.0769 179.551 71.1374 179.516 71.1979 179.473C71.1979 179.473 71.198 179.473 71.2066 179.473C71.2325 179.456 71.2584 179.439 71.293 179.421C71.4659 179.3 71.6215 179.162 71.7598 178.998C71.8289 178.92 71.8894 178.834 71.9499 178.747C71.9672 178.721 71.9844 178.687 72.0017 178.661C72.0795 178.54 72.14 178.41 72.1919 178.272C72.3647 177.831 72.4252 177.33 72.3388 176.828L71.4054 171.496L59.6943 104.687L59.677 104.566C60.0055 103.563 60.308 102.552 60.5586 101.541C60.6364 101.204 60.7228 100.884 60.792 100.547V100.538L74.0933 176.379C74.2057 177.019 74.1884 177.658 74.0501 178.255C73.9896 178.514 73.9118 178.765 73.8168 179.007C73.7735 179.119 73.7216 179.231 73.6698 179.335C73.6352 179.404 73.6006 179.473 73.5661 179.534C73.5142 179.629 73.4537 179.724 73.3932 179.819C73.3932 179.836 73.3759 179.845 73.3673 179.862C73.3414 179.897 73.3241 179.931 73.2981 179.957C73.2463 180.035 73.1858 180.113 73.1253 180.191C73.0907 180.234 73.0562 180.277 73.013 180.32C72.9698 180.372 72.9265 180.415 72.8833 180.467C72.8833 180.467 72.866 180.493 72.8488 180.502C72.7278 180.631 72.5981 180.752 72.4598 180.865C72.3647 180.943 72.261 181.02 72.1573 181.089C72.1054 181.124 72.0536 181.159 71.9931 181.193C71.898 181.254 71.803 181.306 71.7079 181.349C71.6906 181.357 71.6733 181.366 71.6646 181.375C71.6646 181.375 71.6301 181.392 71.6128 181.392C71.5696 181.418 71.5264 181.435 71.4832 181.452C71.4659 181.461 71.44 181.47 71.4227 181.478C71.2671 181.539 71.1029 181.599 70.9387 181.643L49.4439 187.252H49.4698Z" fill="#D6DEDE"/>
<path d="M41.8553 99.7861L24.5523 104.306C24.5091 104.315 24.4572 104.332 24.414 104.35C24.3708 104.367 24.3276 104.384 24.2757 104.393C24.2325 104.41 24.1893 104.427 24.1461 104.445C24.0856 104.471 24.0251 104.496 23.9646 104.522C23.9041 104.548 23.8522 104.583 23.7917 104.609C23.7571 104.626 23.7312 104.643 23.6966 104.661C23.6794 104.669 23.6534 104.687 23.6361 104.695C23.5151 104.773 23.3941 104.851 23.2731 104.937C23.1781 105.006 23.0916 105.084 22.9966 105.171C22.9534 105.214 22.9101 105.248 22.8669 105.283C22.7805 105.369 22.6941 105.464 22.6076 105.56C22.6076 105.568 22.5904 105.585 22.5731 105.594C22.5472 105.62 22.5212 105.655 22.4953 105.681C22.4348 105.758 22.3829 105.836 22.3224 105.914C22.2619 106 22.2014 106.087 22.1496 106.182C22.115 106.234 22.0804 106.294 22.0545 106.346C22.0372 106.372 22.0286 106.398 22.0113 106.424C21.8989 106.64 21.8039 106.856 21.7261 107.089C21.7088 107.141 21.6915 107.184 21.6829 107.236C21.6829 107.254 21.6742 107.271 21.6656 107.288C21.6569 107.323 21.6483 107.357 21.6396 107.392C21.631 107.426 21.6223 107.47 21.6051 107.504C21.5532 107.694 21.5186 107.893 21.5013 108.092C21.4927 108.17 21.4841 108.247 21.4754 108.325C21.4754 108.403 21.4668 108.489 21.4668 108.567C21.4668 108.645 21.4668 108.723 21.4668 108.809C21.4668 108.922 21.4668 109.043 21.4927 109.164C21.4927 109.198 21.4927 109.233 21.5013 109.267C21.5013 109.285 21.5013 109.293 21.5013 109.311C21.51 109.38 21.5186 109.449 21.5359 109.509L25.2264 130.468L27.3266 132.275L24.9931 118.861L24.2584 114.626L23.2818 109.06C23.2299 108.783 23.2299 108.507 23.2645 108.239C23.2731 108.17 23.2904 108.092 23.3077 108.023C23.3077 107.988 23.325 107.954 23.3336 107.919C23.3596 107.815 23.3942 107.712 23.4374 107.608C23.4633 107.539 23.4978 107.478 23.5238 107.418C23.5583 107.349 23.5929 107.288 23.6275 107.228C23.6448 107.193 23.6707 107.167 23.688 107.133C23.7053 107.107 23.7226 107.072 23.7485 107.046C23.8349 106.934 23.9214 106.821 24.0251 106.726C24.051 106.7 24.0769 106.674 24.1029 106.657C24.1201 106.64 24.1288 106.631 24.1461 106.623C24.1806 106.588 24.2239 106.553 24.2671 106.528C24.2844 106.519 24.293 106.51 24.3017 106.502C24.3449 106.467 24.3881 106.441 24.4399 106.407C24.4572 106.389 24.4831 106.381 24.5004 106.372C24.5177 106.355 24.5436 106.346 24.5609 106.337C24.6041 106.311 24.6387 106.294 24.6819 106.277C24.7078 106.268 24.7338 106.251 24.7597 106.242C24.8289 106.208 24.9066 106.182 24.9758 106.165C24.9844 106.165 25.0017 106.165 25.0103 106.156L29.5997 104.963L42.5121 101.592L43.7653 101.264C42.8319 100.624 42.6072 100.426 41.8293 99.7602L41.8553 99.7861Z" fill="#D6DEDE"/>
<path d="M21.5524 109.553L35.0526 186.543C35.2427 187.857 36.5737 190.484 39.7024 189.793L70.9723 181.634C72.9428 181.133 74.585 178.981 74.1096 176.345L60.6095 99.3541C60.1946 96.7612 57.9994 95.5771 55.9164 96.113C53.7211 96.6748 24.6985 104.263 24.6985 104.263C22.7711 104.756 21.103 106.787 21.5524 109.553ZM23.3069 109.095C23.1859 108.369 23.5144 106.588 25.0355 106.182L56.3054 98.023C57.2561 97.7724 58.5439 98.2996 58.8636 99.8208L72.3638 176.811C72.6404 178.384 71.3439 179.508 70.6266 179.724L39.3567 187.883C38.1727 188.194 37.0318 187.39 36.7984 186.094L23.2897 109.095H23.3069Z" fill="#CBD4DB"/>
<path fill-rule="evenodd" clip-rule="evenodd" d="M175.585 127.916C164.332 127.277 153.321 130.181 143.711 135.686C141.403 146.576 141.991 158.011 146.01 168.607C150.02 179.186 156.891 187.431 165.37 192.876L165.413 192.989L165.491 192.885C175.508 188.494 184.807 181.174 192.033 171.234C199.267 161.286 203.381 150.12 204.496 139.161C196.761 132.661 186.856 128.556 175.594 127.908L175.585 127.916Z" fill="#4D9777"/>
<path fill-rule="evenodd" clip-rule="evenodd" d="M174.989 131.737C165.058 131.166 155.344 133.733 146.865 138.599C144.834 148.21 145.344 158.305 148.896 167.648C152.431 176.982 158.498 184.259 165.974 189.065L166.009 189.16L166.078 189.065C174.92 185.193 183.131 178.728 189.5 169.964C195.888 161.183 199.518 151.33 200.503 141.659C193.675 135.92 184.937 132.298 174.998 131.728L174.989 131.737Z" fill="#67B279"/>
<path fill-rule="evenodd" clip-rule="evenodd" d="M200.486 141.667C199.501 151.339 195.871 161.192 189.493 169.973C188.957 170.707 188.412 171.425 187.842 172.125C181.74 179.808 174.177 185.521 166.07 189.073L166.001 189.169L165.967 189.073C158.482 184.259 152.423 176.991 148.888 167.648C145.336 158.305 144.826 148.21 146.857 138.599C153.391 134.857 160.643 132.48 168.162 131.84C170.418 131.642 172.699 131.607 174.99 131.737C184.921 132.307 193.667 135.928 200.486 141.667Z" fill="#67B279"/>
<path fill-rule="evenodd" clip-rule="evenodd" d="M200.485 141.667C199.5 151.339 195.87 161.192 189.491 169.973C188.955 170.707 188.411 171.425 187.84 172.125C175.403 167.682 166.51 155.868 166.51 141.978C166.51 138.435 167.089 135.03 168.161 131.84C170.416 131.642 172.698 131.607 174.988 131.737C184.919 132.307 193.666 135.928 200.485 141.667Z" fill="#72C48D"/>
<path fill-rule="evenodd" clip-rule="evenodd" d="M180.191 153.05C180.865 154.061 180.615 155.625 179.647 156.55L172.196 163.551C169.612 166.187 168.247 166.109 166.432 163.222L163.208 158.383C162.534 157.371 162.776 155.798 163.752 154.882C164.729 153.966 166.06 154.035 166.734 155.055L169.88 159.774L177.218 152.877C178.195 151.961 179.534 152.039 180.208 153.05H180.191Z" fill="url(#paint0_linear_23569_40492)"/>
<path fill-rule="evenodd" clip-rule="evenodd" d="M179.647 156.55L173.693 162.134C172.768 161.001 171.929 159.809 171.16 158.564L177.21 152.877C178.187 151.961 179.526 152.047 180.201 153.05H180.192C180.857 154.061 180.615 155.634 179.647 156.55Z" fill="white"/>
<path fill-rule="evenodd" clip-rule="evenodd" d="M257.183 110.892C255.135 120.953 246.484 128.066 237.867 126.787C229.25 125.507 223.926 116.311 225.983 106.251C228.031 96.1909 236.683 89.0778 245.299 90.3569C253.916 91.6361 259.24 100.832 257.192 110.892" fill="#8E9EA7"/>
<path fill-rule="evenodd" clip-rule="evenodd" d="M255.047 110.875C252.99 120.857 244.339 127.927 235.722 126.657C227.105 125.386 221.789 116.268 223.846 106.286C225.903 96.3031 234.555 89.2333 243.172 90.5038C251.789 91.7743 257.104 100.892 255.047 110.875Z" fill="white"/>
<path fill-rule="evenodd" clip-rule="evenodd" d="M255.16 111.031C253.086 121.091 244.374 128.213 235.688 126.933C227.002 125.654 221.643 116.467 223.717 106.398C225.792 96.3377 234.504 89.2161 243.19 90.4952C251.876 91.7743 257.234 100.962 255.16 111.031Z" fill="#C8C6C6"/>
<path fill-rule="evenodd" clip-rule="evenodd" d="M253.31 110.763C251.487 119.639 243.795 125.922 236.128 124.79C228.471 123.666 223.743 115.551 225.567 106.675C227.391 97.7984 235.083 91.515 242.749 92.6473C250.406 93.7708 255.134 101.886 253.31 110.763Z" fill="white"/>
<path d="M238.246 118.757C238.168 118.757 238.082 118.757 238.004 118.74C237.019 118.61 236.327 117.703 236.457 116.709L238.903 98.6541C239.033 97.6688 239.949 96.9773 240.934 97.107C241.919 97.2366 242.611 98.1442 242.481 99.1381L240.035 117.193C239.914 118.1 239.136 118.757 238.255 118.757H238.246Z" fill="#72C48D"/>
<path d="M231.564 109.795C230.596 109.795 229.801 109.034 229.767 108.058C229.732 107.064 230.51 106.225 231.504 106.191L247.822 105.586C248.833 105.56 249.654 106.329 249.688 107.323C249.723 108.317 248.945 109.155 247.951 109.19L231.634 109.795C231.634 109.795 231.59 109.795 231.564 109.795Z" fill="#72C48D"/>
<path fill-rule="evenodd" clip-rule="evenodd" d="M35.7797 146.44C38.5022 154.47 46.1684 158.376 52.9012 155.161C59.634 151.946 62.8923 142.828 60.1698 134.798C57.4473 126.769 49.7811 122.863 43.0483 126.078C36.3156 129.293 33.0572 138.411 35.7797 146.44Z" fill="#B5BFCF"/>
<path fill-rule="evenodd" clip-rule="evenodd" d="M37.456 145.706C39.8501 152.81 46.5656 156.285 52.4514 153.458C58.3371 150.632 61.1634 142.577 58.7607 135.473C56.3666 128.368 49.6511 124.894 43.7653 127.72C37.8795 130.546 35.0533 138.601 37.456 145.706Z" fill="white"/>
<path d="M50.1874 150.364C50.2566 150.364 50.3344 150.356 50.4035 150.338C51.2937 150.183 51.8814 149.336 51.7259 148.454L48.8564 132.231C48.7009 131.341 47.8539 130.754 46.9723 130.909C46.0821 131.065 45.4944 131.912 45.65 132.793L48.5194 149.016C48.6663 149.828 49.3837 150.39 50.1874 150.364Z" fill="#72C48D"/>
<path d="M56.3072 140.442C57.1456 140.2 57.6555 139.345 57.448 138.489C57.232 137.616 56.3504 137.08 55.4775 137.288L41.139 140.788C40.2574 141.013 39.7302 141.886 39.9376 142.758C40.1537 143.631 41.0353 144.167 41.9082 143.96L56.2467 140.459C56.2467 140.459 56.2899 140.451 56.3072 140.442Z" fill="#72C48D"/>
<path fill-rule="evenodd" clip-rule="evenodd" d="M94.8722 69.4033C86.3071 70.5182 78.5976 74.0618 72.418 79.2648C72.997 87.2682 75.9616 95.332 81.4671 102.324C86.9985 109.359 94.2586 114.251 102.115 116.818L102.175 116.896L102.21 116.81C108.839 111.926 114.129 105.133 117.136 96.9481C120.101 88.9016 120.455 80.6218 118.675 73.0333C111.544 69.7144 103.351 68.3056 94.8809 69.4033H94.8722Z" fill="#4D9777"/>
<path fill-rule="evenodd" clip-rule="evenodd" d="M95.2774 72.0912C87.7062 73.0938 80.9129 76.2311 75.4766 80.8464C76.0124 87.9163 78.6398 95.0208 83.4971 101.174C88.3717 107.363 94.7675 111.667 101.673 113.931L101.725 114.001L101.751 113.923C107.602 109.636 112.269 103.672 114.94 96.4555C117.576 89.351 117.904 82.0219 116.349 75.2891C110.031 72.3505 102.771 71.1059 95.2774 72.0998V72.0912Z" fill="#67B279"/>
<path fill-rule="evenodd" clip-rule="evenodd" d="M114.941 96.4381C114.448 97.7518 113.895 99.031 113.281 100.258C110.524 105.781 106.523 110.405 101.743 113.914L101.717 113.992L101.665 113.923C94.751 111.658 88.3726 107.363 83.4894 101.166C78.6321 95.012 76.0046 87.9076 75.4688 80.8377C77.69 78.9535 80.1359 77.3114 82.772 75.9631C86.5835 74.0099 90.7926 72.6702 95.2782 72.0825C102.772 71.0886 110.032 72.3331 116.35 75.2717C117.905 81.9959 117.577 89.325 114.941 96.4295V96.4381Z" fill="#67B279"/>
<path d="M114.94 96.4383C114.448 97.752 113.894 99.0311 113.281 100.258C102.546 100.907 91.6477 95.2369 85.9607 84.9346C84.3618 82.0392 83.3073 79.0056 82.7715 75.9719C86.583 74.0186 90.7921 72.6789 95.2777 72.0912C102.771 71.0973 110.031 72.3419 116.349 75.2805C117.905 82.0046 117.576 89.3338 114.94 96.4383Z" fill="#72C48D"/>
<path d="M93.1684 87.1385C93.4277 88.8497 94.2661 90.3017 95.3724 91.1833L96.5391 98.8927C96.7725 100.44 98.2245 101.503 99.7629 101.27C101.301 101.036 102.356 99.5928 102.114 98.0544L100.912 90.3795C101.699 89.23 102.062 87.6138 101.794 85.9112C101.319 82.8775 99.0196 80.6995 96.6428 81.0279C94.2661 81.3564 92.7017 84.0875 93.1597 87.1385H93.1684Z" fill="#4D995F"/>
<path d="M101.812 85.9112C102.08 87.6138 101.717 89.2301 100.931 90.3796L102.132 98.0544C102.167 98.2619 102.175 98.4606 102.158 98.668C102.08 99.9645 101.112 101.071 99.7727 101.278C98.2256 101.512 96.7822 100.448 96.5402 98.9014L95.3735 91.192C94.2672 90.3104 93.4288 88.8584 93.1695 87.1471C92.7114 84.0962 94.2758 81.365 96.6613 81.0366C99.0294 80.7082 101.337 82.8861 101.812 85.9198V85.9112Z" fill="#428568"/>
<path d="M101.812 85.9112C102.079 87.6138 101.716 89.23 100.93 90.3795L102.131 98.0544C102.166 98.2618 102.175 98.4606 102.157 98.668C100.04 97.9247 97.9828 96.9308 96.0641 95.6949L95.3812 91.1833C94.2749 90.3017 93.4366 88.8497 93.1773 87.1385C92.7192 84.0875 94.2836 81.3564 96.6691 81.0279C99.0372 80.6995 101.345 82.8775 101.82 85.9112H101.812Z" fill="#4B9877"/>
</g>
<defs>
<linearGradient id="paint0_linear_23569_40492" x1="162.819" y1="158.849" x2="180.571" y2="158.849" gradientUnits="userSpaceOnUse">
<stop stop-color="#F5F5F6"/>
<stop offset="1" stop-color="#EDEDEE"/>
</linearGradient>
<clipPath id="clip0_23569_40492">
<rect width="262" height="262" fill="white"/>
</clipPath>
</defs>
</svg>
