<svg width="291" height="291" viewBox="0 0 291 291" fill="none" xmlns="http://www.w3.org/2000/svg">
<path d="M94.9765 138.845C95.3583 138.815 95.692 139.101 95.7216 139.483C95.7513 139.864 95.4657 140.198 95.0839 140.228C93.8918 140.32 92.6871 140.368 91.4716 140.368C90.2561 140.368 89.0515 140.32 87.8595 140.228C87.4777 140.198 87.1921 139.864 87.2218 139.483C87.2514 139.101 87.585 138.815 87.9669 138.845C89.1232 138.935 90.292 138.98 91.4716 138.98C92.6513 138.98 93.8202 138.935 94.9765 138.845ZM73.4872 135.97C73.6339 135.616 74.0396 135.448 74.3934 135.595C76.5337 136.483 78.7582 137.208 81.0513 137.757C81.4238 137.846 81.6535 138.22 81.5643 138.593C81.4752 138.965 81.101 139.195 80.7285 139.106C78.3636 138.54 76.0695 137.792 73.8622 136.876C73.5084 136.73 73.3405 136.324 73.4872 135.97ZM108.55 135.595C108.904 135.448 109.309 135.616 109.456 135.97C109.603 136.324 109.435 136.73 109.081 136.876C106.874 137.792 104.58 138.54 102.215 139.106C101.842 139.195 101.468 138.965 101.379 138.593C101.29 138.22 101.52 137.846 101.892 137.757C104.185 137.208 106.41 136.483 108.55 135.595ZM61.5181 128.368C61.767 128.077 62.2048 128.043 62.496 128.292C64.2686 129.807 66.1613 131.186 68.1578 132.412C68.4842 132.612 68.5863 133.04 68.3859 133.366C68.1855 133.692 67.7583 133.794 67.4319 133.594C65.3733 132.33 63.4219 130.908 61.5945 129.346C61.3034 129.097 61.2692 128.659 61.5181 128.368ZM120.447 128.292C120.739 128.043 121.176 128.077 121.425 128.368C121.674 128.659 121.64 129.097 121.349 129.346C119.521 130.908 117.57 132.33 115.512 133.594C115.185 133.794 114.758 133.692 114.557 133.366C114.357 133.04 114.459 132.612 114.786 132.412C116.782 131.186 118.675 129.807 120.447 128.292ZM52.4703 117.45C52.7967 117.25 53.2239 117.352 53.4243 117.678C54.6504 119.675 56.0292 121.568 57.5445 123.34C57.7934 123.631 57.7592 124.069 57.4681 124.318C57.1769 124.567 56.7391 124.533 56.4902 124.242C54.928 122.414 53.5064 120.463 52.2423 118.404C52.0418 118.078 52.1439 117.651 52.4703 117.45ZM129.519 117.678C129.72 117.352 130.147 117.25 130.473 117.45C130.799 117.651 130.902 118.078 130.701 118.404C129.437 120.463 128.015 122.414 126.453 124.242C126.204 124.533 125.766 124.567 125.475 124.318C125.184 124.069 125.15 123.631 125.399 123.34C126.914 121.568 128.293 119.675 129.519 117.678ZM47.2433 104.272C47.6158 104.183 47.99 104.412 48.0792 104.785C48.6278 107.078 49.3535 109.303 50.241 111.443C50.3877 111.797 50.2198 112.202 49.866 112.349C49.5122 112.496 49.1065 112.328 48.9598 111.974C48.0445 109.767 47.296 107.473 46.7301 105.108C46.641 104.735 46.8708 104.361 47.2433 104.272ZM134.864 104.785C134.953 104.412 135.328 104.183 135.7 104.272C136.073 104.361 136.302 104.735 136.213 105.108C135.647 107.473 134.899 109.767 133.984 111.974C133.837 112.328 133.431 112.496 133.077 112.349C132.724 112.202 132.556 111.797 132.702 111.443C133.59 109.303 134.316 107.078 134.864 104.785ZM45.4688 94.3645C45.4688 93.149 45.5159 91.9444 45.6085 90.7524C45.6382 90.3705 45.9718 90.085 46.3537 90.1146C46.7355 90.1443 47.0211 90.4779 46.9914 90.8598C46.9016 92.0161 46.8559 93.1849 46.8559 94.3645C46.8559 95.5441 46.9016 96.7131 46.9914 97.8694C47.0211 98.2512 46.7355 98.5849 46.3537 98.6145C45.9718 98.6442 45.6382 98.3586 45.6085 97.9767C45.5159 96.7847 45.4688 95.58 45.4688 94.3645ZM136.088 94.3645C136.088 93.1849 136.042 92.0161 135.952 90.8598C135.922 90.4779 136.208 90.1443 136.59 90.1146C136.972 90.085 137.305 90.3705 137.335 90.7524C137.427 91.9444 137.475 93.149 137.475 94.3645C137.475 95.58 137.427 96.7847 137.335 97.9767C137.305 98.3586 136.972 98.6442 136.59 98.6145C136.208 98.5849 135.922 98.2512 135.952 97.8694C136.042 96.7131 136.088 95.5441 136.088 94.3645ZM48.9598 76.7551C49.1065 76.4012 49.5122 76.2334 49.866 76.3801C50.2198 76.5268 50.3877 76.9325 50.241 77.2863C49.3535 79.4266 48.6278 81.6511 48.0792 83.9442C47.99 84.3167 47.6158 84.5463 47.2433 84.4572C46.8708 84.3681 46.641 83.9939 46.7301 83.6214C47.296 81.2564 48.0445 78.9624 48.9598 76.7551ZM133.077 76.3801C133.431 76.2334 133.837 76.4013 133.984 76.7551C134.899 78.9624 135.647 81.2563 136.213 83.6213C136.302 83.9938 136.073 84.3681 135.7 84.4572C135.328 84.5463 134.953 84.3166 134.864 83.9441C134.316 81.6509 133.59 79.4266 132.702 77.2863C132.556 76.9325 132.724 76.5268 133.077 76.3801ZM56.4902 64.4874C56.7391 64.1963 57.1769 64.1621 57.4681 64.411C57.7592 64.6599 57.7934 65.0977 57.5445 65.3889C56.0292 67.1615 54.6502 69.0542 53.4242 71.0507C53.2237 71.3771 52.7967 71.4792 52.4703 71.2788C52.1439 71.0783 52.0418 70.6512 52.2423 70.3248C53.5064 68.2662 54.928 66.3148 56.4902 64.4874ZM125.475 64.411C125.766 64.1621 126.204 64.1963 126.453 64.4874C128.015 66.3148 129.437 68.2662 130.701 70.3248C130.902 70.6512 130.799 71.0783 130.473 71.2788C130.147 71.4792 129.72 71.377 129.519 71.0506C128.293 69.0541 126.914 67.1614 125.399 65.3889C125.15 65.0977 125.184 64.6599 125.475 64.411ZM67.4319 55.1351C67.7583 54.9347 68.1855 55.0368 68.3859 55.3632C68.5863 55.6896 68.4841 56.1168 68.1577 56.3172C66.1612 57.5432 64.2686 58.9221 62.496 60.4374C62.2048 60.6863 61.767 60.6521 61.5181 60.3609C61.2692 60.0698 61.3034 59.6319 61.5945 59.383C63.4219 57.8208 65.3733 56.3993 67.4319 55.1351ZM114.557 55.3632C114.758 55.0368 115.185 54.9347 115.512 55.1351C117.57 56.3993 119.521 57.8208 121.349 59.383C121.64 59.6319 121.674 60.0698 121.425 60.3609C121.176 60.6521 120.739 60.6863 120.447 60.4374C118.675 58.922 116.782 57.5431 114.786 56.3171C114.459 56.1166 114.357 55.6896 114.557 55.3632ZM80.7284 49.623C81.1009 49.5339 81.4752 49.7636 81.5643 50.1362C81.6535 50.5087 81.4237 50.8829 81.0512 50.9721C78.7581 51.5207 76.5337 52.2464 74.3934 53.1339C74.0396 53.2806 73.6339 53.1127 73.4872 52.7589C73.3405 52.4051 73.5084 51.9994 73.8622 51.8527C76.0695 50.9374 78.3635 50.1888 80.7284 49.623ZM101.379 50.1362C101.468 49.7636 101.842 49.5339 102.215 49.623C104.58 50.1888 106.874 50.9374 109.081 51.8527C109.435 51.9994 109.603 52.4051 109.456 52.7589C109.309 53.1127 108.904 53.2806 108.55 53.1339C106.41 52.2463 104.185 51.5207 101.892 50.9721C101.52 50.8829 101.29 50.5087 101.379 50.1362ZM91.4716 48.3616C92.6871 48.3616 93.8918 48.4088 95.0839 48.5014C95.4657 48.5311 95.7513 48.8647 95.7216 49.2466C95.692 49.6284 95.3583 49.914 94.9765 49.8843C93.8202 49.7945 92.6513 49.7487 91.4716 49.7487C90.292 49.7487 89.1232 49.7945 87.9669 49.8843C87.585 49.914 87.2514 49.6284 87.2218 49.2466C87.1921 48.8647 87.4776 48.5311 87.8595 48.5014C89.0515 48.4088 90.2561 48.3616 91.4716 48.3616Z" fill="#9AD0D2"/>
<path d="M186.88 118.957C186.934 118.578 187.284 118.313 187.664 118.367C190.046 118.701 192.481 118.866 194.963 118.834C195.346 118.83 195.661 119.136 195.666 119.519C195.671 119.902 195.364 120.217 194.981 120.221C192.426 120.254 189.92 120.084 187.471 119.74C187.091 119.687 186.827 119.336 186.88 118.957ZM209.695 116.299C210.057 116.176 210.451 116.37 210.575 116.732C210.698 117.095 210.505 117.489 210.142 117.612C208.886 118.04 207.564 118.428 206.172 118.773H206.172C204.933 119.08 203.702 119.335 202.481 119.542C202.103 119.605 201.745 119.351 201.681 118.973C201.617 118.596 201.872 118.238 202.249 118.174C203.436 117.973 204.633 117.725 205.839 117.426C207.194 117.091 208.478 116.714 209.695 116.299ZM172.689 114.708C172.841 114.357 173.249 114.194 173.6 114.346C175.836 115.308 178.139 116.146 180.504 116.829C180.872 116.935 181.084 117.32 180.978 117.688C180.871 118.056 180.487 118.268 180.119 118.162C177.694 117.462 175.336 116.604 173.052 115.62C172.7 115.468 172.538 115.06 172.689 114.708ZM223.005 107.883C223.257 107.595 223.695 107.566 223.983 107.818C224.271 108.07 224.301 108.509 224.048 108.797C222.327 110.763 220.216 112.557 217.674 114.122C217.348 114.323 216.921 114.222 216.72 113.895C216.519 113.569 216.621 113.142 216.947 112.941C219.377 111.445 221.38 109.739 223.005 107.883ZM159.828 107.308C160.047 106.994 160.479 106.917 160.794 107.136C162.786 108.524 164.864 109.845 167.021 111.067C167.354 111.256 167.471 111.679 167.283 112.012C167.094 112.345 166.671 112.463 166.337 112.274C164.14 111.029 162.025 109.685 160.001 108.274C159.686 108.055 159.609 107.623 159.828 107.308ZM148.42 97.8102C148.684 97.5324 149.123 97.5209 149.401 97.7846C151.127 99.4233 152.97 101.067 154.922 102.675C155.217 102.918 155.26 103.355 155.016 103.651C154.773 103.947 154.336 103.989 154.04 103.746C152.061 102.116 150.193 100.45 148.446 98.7907C148.168 98.527 148.156 98.088 148.42 97.8102ZM229.56 92.8176C229.942 92.8439 230.231 93.175 230.204 93.5571C230.014 96.3281 229.437 99.0686 228.398 101.683C228.257 102.039 227.854 102.213 227.498 102.072C227.142 101.93 226.968 101.527 227.109 101.171C228.09 98.7026 228.639 96.1042 228.82 93.4619C228.847 93.0798 229.178 92.7914 229.56 92.8176ZM138.367 86.8666C138.663 86.6233 139.1 86.6659 139.344 86.9617C140.758 88.6809 142.384 90.5627 144.205 92.5252C144.465 92.8059 144.449 93.2448 144.168 93.5054C143.888 93.7659 143.449 93.7495 143.188 93.4688C141.346 91.4841 139.702 89.5812 138.273 87.8429C138.029 87.5471 138.072 87.11 138.367 86.8666ZM217.261 85.7654C217.32 85.3869 217.675 85.1277 218.053 85.1865C219.259 85.374 220.504 85.4941 221.783 85.538L222.005 85.5448C223.111 85.5746 224.164 85.5424 225.165 85.4528C225.547 85.4187 225.883 85.7003 225.918 86.0818C225.952 86.4633 225.67 86.8002 225.289 86.8343C224.16 86.9353 222.976 86.9668 221.735 86.9242C220.401 86.8784 219.101 86.7531 217.84 86.5573C217.462 86.4984 217.203 86.1439 217.261 85.7654ZM226.421 76.9692C226.774 76.8218 227.18 76.9891 227.328 77.3427C228.381 79.8701 229.194 82.5442 229.697 85.275C229.767 85.6517 229.518 86.0134 229.141 86.0828C228.764 86.1522 228.403 85.9031 228.333 85.5264C227.849 82.898 227.065 80.3181 226.047 77.8761C225.9 77.5226 226.067 77.1165 226.421 76.9692ZM237.02 80.0623C237.286 79.7866 237.725 79.7787 238.001 80.0446C238.277 80.3105 238.284 80.7495 238.019 81.0252C236.399 82.7047 234.465 84.1016 232.176 85.1156C231.826 85.2707 231.416 85.1126 231.261 84.7624C231.106 84.4122 231.264 84.0025 231.614 83.8473C233.732 82.9091 235.519 81.6186 237.02 80.0623ZM203.495 79.4327C203.736 79.1344 204.172 79.0873 204.471 79.3275C206.289 80.7921 208.443 82.1027 210.872 83.1396C211.224 83.29 211.387 83.6975 211.237 84.0498C211.087 84.4021 210.679 84.5657 210.327 84.4153C207.784 83.3294 205.52 81.9535 203.601 80.4079C203.302 80.1676 203.255 79.731 203.495 79.4327ZM131.805 77.8936C132.128 77.6889 132.557 77.7852 132.762 78.1089C132.762 78.1089 132.762 78.1091 132.762 78.1092C132.762 78.1096 132.763 78.1104 132.763 78.1113C132.764 78.1132 132.766 78.1163 132.769 78.1203C132.774 78.1285 132.782 78.141 132.793 78.1578C132.814 78.1914 132.847 78.2421 132.891 78.3091C132.978 78.4432 133.11 78.6427 133.284 78.9014C133.632 79.419 134.151 80.174 134.832 81.1189C135.056 81.4296 134.986 81.8632 134.675 82.0872C134.365 82.3112 133.931 82.2408 133.707 81.9301C133.017 80.9721 132.489 80.2048 132.133 79.6756C131.955 79.4111 131.82 79.2061 131.729 79.0666C131.683 78.9968 131.649 78.9435 131.626 78.9072C131.614 78.8891 131.605 78.8752 131.599 78.8657C131.596 78.861 131.594 78.8573 131.592 78.8548C131.591 78.8535 131.591 78.8525 131.59 78.8518C131.59 78.8515 131.59 78.8512 131.59 78.8509L131.59 78.8507V78.8506L131.589 78.8504C131.385 78.5268 131.481 78.0984 131.805 77.8936ZM242.927 68.17C243.012 67.7964 243.383 67.5618 243.756 67.646C244.13 67.7303 244.365 68.1015 244.28 68.4752C243.754 70.8082 243.014 73.0656 242.017 75.155C241.852 75.5006 241.438 75.6471 241.092 75.482C240.747 75.317 240.6 74.903 240.765 74.5573C241.711 72.5765 242.42 70.4198 242.927 68.17ZM196.804 66.6723C196.89 66.299 197.262 66.0659 197.635 66.1517C198.009 66.2374 198.242 66.6096 198.156 66.9829C197.693 68.9984 198.195 71.3874 199.598 73.8115C199.79 74.1429 199.677 74.5672 199.346 74.7592C199.014 74.9511 198.59 74.838 198.398 74.5065C196.881 71.8865 196.238 69.135 196.804 66.6723ZM216.845 63.9694C217.091 63.6758 217.529 63.6372 217.822 63.8832C219.829 65.5647 221.711 67.6738 223.373 70.0758C223.591 70.3908 223.512 70.8229 223.197 71.0408C222.882 71.2587 222.45 71.18 222.232 70.8651C220.631 68.5507 218.83 66.5377 216.931 64.9464C216.638 64.7005 216.599 64.263 216.845 63.9694ZM244.503 53.8806C244.885 53.8563 245.215 54.1466 245.239 54.5288C245.383 56.8025 245.4 59.1628 245.25 61.5261C245.226 61.9084 244.897 62.1987 244.514 62.1746C244.132 62.1504 243.842 61.8208 243.866 61.4385C244.011 59.1388 243.995 56.8374 243.854 54.6166C243.83 54.2344 244.12 53.9049 244.503 53.8806ZM206.102 59.7814C207.526 59.5521 208.972 59.624 210.407 59.9509C210.78 60.036 211.014 60.4077 210.929 60.7812C210.844 61.1546 210.472 61.3884 210.099 61.3033C208.819 61.0118 207.554 60.9527 206.322 61.1509C204.954 61.3711 203.775 61.6995 202.773 62.1126C202.419 62.2586 202.013 62.0899 201.868 61.7358C201.722 61.3817 201.89 60.9763 202.244 60.8303C203.36 60.3702 204.644 60.0159 206.102 59.7814ZM242.757 43.6815C243.127 43.5829 243.507 43.8029 243.605 44.173C243.889 45.2366 244.149 46.3806 244.376 47.5866C244.447 47.963 244.199 48.3257 243.823 48.3967C243.446 48.4676 243.083 48.2199 243.013 47.8435C242.791 46.669 242.539 45.5586 242.265 44.5304C242.166 44.1603 242.386 43.7802 242.757 43.6815Z" fill="#9AD0D2"/>
<path d="M166.091 200.195L97.9672 212.336C97.5372 213.238 96.5586 213.926 94.7125 214.157C90.0795 214.736 86.2461 213.311 84.0191 212.159C83.1465 211.708 81.9221 210.873 81.9221 210.873C78.8767 208.592 76.7822 204.993 76.3875 200.664L66.1077 87.9348C65.3385 79.5011 71.3094 71.4899 79.4442 70.0398L153.027 56.9253C154.128 56.7298 155.212 56.663 156.266 56.7172L156.276 56.6995C156.276 56.6995 163.892 56.4637 168.432 62.6906C169.601 64.2933 169.222 64.9377 168.014 65.0109C168.606 66.4055 168.999 67.9364 169.149 69.5707L179.427 182.3C180.196 190.734 174.226 198.745 166.092 200.195H166.091Z" fill="#CBD3D2"/>
<path d="M169.557 200.953L96.7223 213.934C88.6708 215.369 81.5272 209.765 80.7668 201.417L70.5929 89.8339C69.8313 81.486 75.7416 73.5555 83.7919 72.1204L156.627 59.1396C164.678 57.7046 171.822 63.3085 172.582 71.6564L182.756 183.239C183.518 191.587 177.607 199.518 169.557 200.953Z" fill="white"/>
<path d="M135.044 70.8025C136.242 70.5745 137.397 71.3603 137.625 72.5576C137.853 73.7548 137.067 74.9102 135.87 75.1382L112.317 79.6235C111.12 79.8515 109.964 79.0658 109.736 77.8686C109.508 76.6713 110.294 75.5159 111.491 75.2879L135.044 70.8025Z" fill="#D3D3D3"/>
<path d="M160.55 89.2625C162.602 88.8716 164.583 90.2186 164.974 92.2709C165.364 94.3234 164.018 96.3042 161.965 96.6951L120.638 104.566C118.586 104.957 116.605 103.61 116.214 101.558C115.823 99.5054 117.17 97.5248 119.222 97.1338L160.55 89.2625Z" fill="#62AD74"/>
<path d="M164.3 126.684C166.352 126.293 168.333 127.64 168.724 129.693C169.114 131.745 167.768 133.726 165.715 134.117L124.388 141.988C122.336 142.379 120.355 141.032 119.964 138.98C119.573 136.927 120.92 134.947 122.972 134.556L164.3 126.684Z" fill="#D3D3D3"/>
<path d="M168.05 164.106C170.102 163.715 172.083 165.062 172.474 167.114C172.865 169.167 171.518 171.148 169.466 171.539L128.139 179.41C126.086 179.801 124.105 178.454 123.714 176.401C123.324 174.349 124.671 172.368 126.723 171.977L168.05 164.106Z" fill="#62AD74"/>
<path d="M106.25 89.3828C106.843 89.2874 107.45 89.4375 107.931 89.8001C108.427 90.1745 108.742 90.7406 108.799 91.3594L111.047 115.809C111.151 116.943 110.376 117.969 109.258 118.18L85.5797 122.635C84.969 122.75 84.3381 122.602 83.8421 122.228C83.3462 121.853 83.031 121.287 82.9741 120.668L80.7257 96.2187C80.6215 95.0853 81.3965 94.0584 82.5151 93.8479L106.193 89.3928L106.25 89.3828ZM85.3046 97.814L87.147 117.849L106.468 114.214L104.626 94.1786L85.3046 97.814Z" fill="#62AD74"/>
<path d="M109.877 126.3C110.47 126.205 111.077 126.355 111.557 126.717C112.053 127.092 112.368 127.658 112.425 128.277L114.675 152.725C114.779 153.859 114.004 154.886 112.885 155.096L89.2061 159.551C88.5954 159.666 87.9646 159.518 87.4686 159.144C86.9726 158.769 86.6575 158.203 86.6005 157.585L84.3522 133.135C84.2479 132.001 85.023 130.974 86.1417 130.764L109.82 126.31L109.877 126.3ZM88.9311 134.73L90.7735 154.765L110.096 151.13L108.252 131.096L88.9311 134.73Z" fill="#D3D3D3"/>
<path d="M113.505 163.216C114.098 163.121 114.705 163.271 115.185 163.634C115.681 164.008 115.996 164.574 116.053 165.193L118.301 189.642C118.406 190.776 117.631 191.803 116.512 192.013L92.834 196.468C92.2233 196.583 91.5925 196.435 91.0965 196.061C90.6006 195.687 90.2854 195.121 90.2285 194.502L87.9801 170.052C87.8759 168.919 88.6509 167.892 89.7695 167.681L113.448 163.226L113.505 163.216ZM92.559 171.647L94.4014 191.683L113.723 188.047L111.88 168.012L92.559 171.647Z" fill="#62AD74"/>
<path d="M100.199 100.503C100.949 99.5418 102.336 99.3706 103.297 100.12C104.258 100.87 104.429 102.257 103.679 103.218L97.1975 111.525C96.8182 112.011 96.2529 112.316 95.6385 112.367C95.024 112.418 94.4165 112.209 93.963 111.791L89.3829 107.574C88.4863 106.749 88.4287 105.353 89.2542 104.456C90.0797 103.56 91.4758 103.502 92.3724 104.327L95.1907 106.922L100.199 100.503Z" fill="#62AD74"/>
<path d="M107.454 174.336C108.203 173.375 109.59 173.204 110.551 173.954C111.512 174.703 111.683 176.09 110.934 177.051L104.453 185.358C104.074 185.844 103.509 186.15 102.895 186.2C102.28 186.251 101.673 186.042 101.219 185.625L95.5936 180.447C94.6969 179.622 94.6391 178.226 95.4644 177.329C96.2898 176.432 97.6859 176.374 98.5826 177.2L102.446 180.756L107.454 174.336Z" fill="#62AD74"/>
<path d="M200.747 189.425L198.728 191.249L169.648 217.529C166.888 212.38 166.162 208.798 164.976 206.592C164.976 206.588 164.972 206.588 164.972 206.587C163.84 204.498 162.298 203.653 158.193 203.889H158.177C153.381 204.166 147.423 202.214 141.543 199.321C131.355 194.321 121.411 186.524 118.175 182.75C114.053 177.938 108.028 174.971 104.657 173.151C103.129 172.322 102.148 171.729 102.124 171.307C102.085 170.458 102.404 168.752 104.404 167.727C106.253 166.778 111.202 166.569 113.939 166.894C118.778 167.469 123.944 171.135 128.699 174.255C131.844 176.31 134.216 176.88 135.847 176.289C139.948 174.798 136.424 169.269 135.361 167.594H135.359C135.02 167.054 133.849 165.096 132.301 162.519C130.805 160.031 128.953 156.966 127.145 154.053C124.992 150.581 122.898 147.308 121.546 145.471C117.87 140.49 104.305 123.444 102.97 116.272C101.879 110.42 106.207 108.632 107.613 108.927C108.888 109.192 114.091 117.12 117.745 121.349C118.22 121.896 118.64 122.392 118.998 122.819C120.579 124.703 125.518 129.57 130.003 133.923H130.006C132.216 136.063 134.318 138.08 135.857 139.554C137.37 141.001 138.345 141.925 138.345 141.925C138.345 141.925 138.499 141.205 138.906 140.201C140.013 137.447 143.006 132.551 149.854 134.501H149.859C150.428 134.667 151.023 134.873 151.646 135.136C152.009 135.286 152.379 135.455 152.757 135.643C152.757 135.643 152.859 135.5 153.055 135.262C153.081 135.229 153.114 135.19 153.144 135.156C153.167 135.129 153.191 135.099 153.22 135.063C153.321 134.942 153.435 134.812 153.563 134.663C153.662 134.553 153.767 134.441 153.882 134.319C155.275 132.852 157.851 130.679 160.894 130.645C163.508 130.61 165.269 131.417 166.399 132.264C166.402 132.267 166.405 132.269 166.406 132.274C167.631 133.196 168.106 134.174 168.106 134.174C168.106 134.174 168.397 133.847 168.922 133.437C169.926 132.648 171.772 131.561 174.043 131.856C175.907 132.099 177.651 133.029 179.11 134.157C180.366 135.128 181.408 136.244 182.133 137.202C183.621 139.167 191.889 149.989 196.002 165.917C196.237 166.812 196.454 167.723 196.653 168.643C197.773 173.781 198.561 178.105 199.363 182.014C199.471 182.543 199.576 183.054 199.673 183.541C199.778 184.055 199.872 184.547 199.96 185.005C200.48 187.716 200.754 189.43 200.754 189.43L200.75 189.422L200.747 189.425Z" fill="#E8D4BA"/>
<path d="M200.75 189.434L200.746 189.426L198.727 191.251L169.647 217.53C166.887 212.381 166.16 208.799 164.975 206.593C163.85 204.499 162.278 203.646 158.177 203.892C153.381 204.168 147.423 202.215 141.543 199.324C123.703 191.188 117.848 179.344 104.657 173.154C103.129 172.324 102.146 171.732 102.124 171.309C102.085 170.462 102.404 168.754 104.404 167.729C113.594 164.607 120.805 168.728 128.699 174.259C137.588 180.019 140.017 173.677 135.363 167.597H135.36C134.923 166.903 132.076 162.136 130.813 160.055C123.678 145.944 108.397 131.604 102.968 116.277C101.879 110.425 106.206 108.636 107.613 108.932C108.886 109.197 114.091 117.125 117.745 121.354C120.552 124.744 124.401 128.475 130.003 133.926H130.007C132.218 136.065 135.857 139.558 135.857 139.558C137.1 135.769 146.412 131.731 152.758 135.646C155.688 131.365 161.82 128.784 166.406 132.28C167.631 133.2 168.107 134.179 168.107 134.179C178.497 124.444 190.645 147.341 196.001 165.92C197.82 173.638 199.548 182.816 200.751 189.434H200.75Z" fill="#E8D4BA"/>
<path opacity="0.4" d="M175.985 132.361C171.326 131.923 169.778 136.331 169.778 136.331C169.778 136.331 164.931 131.412 160.05 131.841C155.168 132.271 154.045 137.197 154.045 137.197C154.045 137.197 149.853 134.505 144.321 135.659C138.789 136.813 137.947 143.385 137.947 143.385L136.333 138.697C138.179 136.018 143.688 132.75 149.853 134.505H149.859C150.427 134.672 151.023 134.877 151.646 135.141C152.008 135.291 152.379 135.46 152.756 135.649C152.756 135.649 152.858 135.505 153.055 135.268C153.083 135.234 153.114 135.196 153.144 135.162C153.166 135.136 153.191 135.105 153.22 135.07C153.321 134.949 153.436 134.819 153.563 134.67C153.663 134.561 153.767 134.448 153.882 134.326C155.275 132.86 157.852 130.687 160.894 130.653C163.51 130.618 165.269 131.423 166.399 132.272C166.403 132.274 166.406 132.277 166.406 132.283C167.631 133.204 168.107 134.181 168.107 134.181C168.107 134.181 168.399 133.855 168.923 133.445C169.927 132.654 171.773 131.567 174.044 131.863C174.709 131.95 175.36 132.124 175.986 132.365L175.985 132.361Z" fill="#CEB79B"/>
<path opacity="0.4" d="M145.434 180.353C142.535 185.35 131.046 182.311 126.782 177.357C118.353 167.564 109.033 166.84 108.886 166.83C110.683 166.703 112.582 166.733 113.939 166.894C118.778 167.469 123.944 171.136 128.699 174.255C131.844 176.31 134.215 176.88 135.847 176.289C139.947 174.797 136.424 169.267 135.362 167.593H135.36C135.019 167.053 133.849 165.095 132.301 162.519C131.835 161.746 131.336 160.916 130.815 160.053C131.065 160.271 148.313 175.39 145.435 180.352L145.434 180.353Z" fill="#CEB79B"/>
<path d="M104.98 111.304C102.895 115.488 107.054 119.688 109.986 117.943C109.986 117.943 108.139 118.688 106.221 115.791C104.303 112.893 104.98 111.303 104.98 111.303V111.304Z" fill="#CEB79B"/>
<path d="M115.043 175.84C113.932 172.895 108.299 171.438 104.521 171.872C104.521 171.872 107.651 169.723 110.448 170.768C115.6 172.694 115.043 175.84 115.043 175.84Z" fill="#CEB79B"/>
<path opacity="0.4" d="M127.142 154.043C124.992 150.57 122.897 147.298 121.546 145.46C117.872 140.475 104.315 123.426 102.982 116.252C101.894 110.4 106.204 108.633 107.611 108.928C105.443 113.416 105.528 120.841 114.104 129.992C121.502 138.124 126.465 148.545 127.142 154.042V154.043Z" fill="#CEB79B"/>
<path opacity="0.4" d="M186.995 184.971C186.995 184.971 190.869 170.593 188.439 155.418C186.547 143.61 183.419 139.814 179.097 134.156H179.1C180.354 135.127 181.399 136.243 182.122 137.201C183.612 139.166 191.879 149.988 195.991 165.916C196.225 166.811 196.442 167.721 196.642 168.642C197.761 173.779 198.55 178.103 199.35 182.011C199.46 182.541 199.563 183.053 199.66 183.54C199.765 184.053 199.86 184.546 199.947 185.004L186.989 184.972H186.994L186.995 184.971Z" fill="#CEB79B"/>
<path d="M141.618 146.922C139.922 147.202 138.249 144.072 135.853 139.554C135.853 139.554 136.122 138.625 137.161 137.704C137.376 138.296 137.877 140.606 140.065 142.329C141.203 143.224 143.313 146.644 141.62 146.925V146.922H141.618Z" fill="#CEB79B"/>
<path d="M157.49 141.085C156.69 142.099 155.993 139.866 155.176 138.578C154.767 137.934 153.696 136.635 151.644 135.136C152.007 135.287 152.377 135.456 152.755 135.643C152.755 135.643 152.857 135.5 153.053 135.262C153.056 135.264 153.057 135.267 153.058 135.267C153.058 135.267 153.085 135.225 153.142 135.156C153.164 135.129 153.188 135.099 153.217 135.063C153.351 134.892 153.569 134.619 153.864 134.291L153.878 134.32C154.007 134.607 155.075 136.939 156.125 137.794C157.249 138.709 158.293 140.074 157.491 141.085H157.49Z" fill="#CEB79B"/>
<path d="M170.179 137.733C169.744 137.209 168.479 134.485 166.402 132.276C167.627 133.198 168.102 134.175 168.102 134.175C168.102 134.175 168.393 133.847 168.918 133.438C168.918 133.438 169.562 135.056 171.431 136.578C172.973 137.834 170.96 138.685 170.178 137.736V137.733H170.179Z" fill="#CEB79B"/>
<path d="M130.011 133.916C116.744 134.949 118.185 125.543 117.758 121.34C118.233 121.888 118.653 122.383 119.011 122.811C120.591 124.695 125.526 129.565 130.011 133.916Z" fill="#EDDAC5"/>
<path d="M144.472 138.226C143.231 140.969 149.995 144.301 152.688 143.151C154.065 142.562 154.902 141.462 154.582 139.883C154.152 137.765 150.652 136.616 149.501 136.417C147.336 136.075 145.115 136.761 144.475 138.223L144.472 138.226Z" fill="#EDDAC5"/>
<path d="M159.186 134.361C157.942 136.412 163.098 139.076 165.609 138.123C166.346 137.849 167.614 136.635 167.261 135.322C166.898 133.974 165.082 133.244 163.994 133.076C161.95 132.785 159.825 133.271 159.182 134.363H159.186V134.361Z" fill="#EDDAC5"/>
<path d="M173.249 133.709C172.058 135.189 174.982 135.911 176.777 135.522C177.301 135.413 177.942 135.196 177.975 134.786C178.038 134.25 177.248 133.707 176.584 133.406C175.327 132.852 173.869 132.92 173.249 133.709Z" fill="#EDDAC5"/>
<path d="M196.456 167.729C196.456 167.729 190.967 162.352 171.473 168.183C171.473 168.183 192.961 166.004 197.753 173.963C197.753 173.963 197.21 171.189 196.456 167.729Z" fill="#CEB79B"/>
<path d="M238.776 233.116C236.899 246.774 206.078 255.005 184.602 243.385C175.283 238.336 168.255 217.173 163.751 208.842C156.167 194.817 198.171 174.125 207.129 187.315C211.581 193.884 239.617 226.985 238.78 233.119L238.776 233.116Z" fill="#9EA58E"/>
<path d="M182.764 204.354C181.127 213.965 173.344 217.751 168.551 219.187C166.72 215.095 165.119 211.376 163.749 208.843C160.387 202.625 166.771 195.098 175.7 189.793C179.395 191.397 184.31 195.268 182.763 204.355L182.764 204.354Z" fill="#B1B7A5"/>
<path d="M238.778 233.119L238.774 233.116C236.898 246.773 206.076 255.004 184.6 243.385C180.915 241.388 177.59 236.875 174.639 231.633C209.045 230.636 200.858 196.074 196.559 183.1C201.177 183.013 205.045 184.247 207.128 187.315C211.579 193.885 239.615 226.986 238.778 233.119Z" fill="#949984"/>
<path opacity="0.14" d="M238.778 233.119L238.775 233.116C237.855 239.8 230.007 245.183 219.714 247.578C226.541 237.117 225.708 221.253 223.215 208.115C231.314 218.7 239.23 229.817 238.78 233.118L238.778 233.119Z" fill="#474C2F"/>
<path opacity="0.14" d="M238.778 233.119L238.774 233.116C238.515 235.005 237.701 236.791 236.435 238.434C235.352 237.299 234.434 235.661 233.902 233.318C231.732 223.768 232.491 223.009 227.824 218.342C223.157 213.675 216.972 210.204 216.755 206.433C216.538 202.663 215.779 199.568 209.05 195.335C202.321 191.103 202.389 183.881 202.389 183.881C204.377 184.55 206.01 185.668 207.127 187.315C209.182 190.348 216.265 199.036 223.212 208.117C231.312 218.702 239.227 229.819 238.777 233.119H238.778Z" fill="#474C2F"/>
<path d="M170.039 202.046C172.929 200.617 175.176 204.139 173.445 205.641C170.947 207.807 167.623 203.24 170.039 202.046Z" fill="#676D54"/>
<path d="M184.328 220.98C184.856 222 185.111 222.912 184.376 223.82C182.432 226.216 177.006 220.355 181.03 219.202C182.321 218.833 183.857 220.07 184.329 220.98H184.328Z" fill="#676D54"/>
<path d="M195.078 241.032C191.159 241.093 189.793 234.466 193.495 235.454C195.672 235.898 198.248 240.624 195.078 241.032Z" fill="#676D54"/>
<path d="M195.281 240.999C195.215 241.013 195.148 241.023 195.076 241.033C191.698 241.087 190.218 236.17 192.243 235.445C192.179 235.559 192.127 235.687 192.085 235.834C191.442 238.182 192.92 240.429 195.279 240.999H195.281Z" fill="#474C2F"/>
<path d="M184.283 223.922C182.408 225.896 177.768 221.085 180.338 219.497C180.253 220.017 180.316 220.599 180.624 221.24C181.444 222.949 183.099 223.641 184.283 223.922Z" fill="#474C2F"/>
<path d="M173.12 205.882C170.672 207.422 167.726 203.189 170.039 202.046C170.169 201.982 170.295 201.929 170.422 201.885C170.074 202.654 169.87 203.668 170.492 204.581C171.113 205.495 172.204 205.802 173.12 205.881V205.882Z" fill="#474C2F"/>
<path d="M138.48 179.182C134.451 179.868 128.866 174.419 128.702 174.259C131.846 176.31 134.217 176.88 135.846 176.29C139.944 174.8 136.427 169.274 135.363 167.597C139.199 170.109 142.567 178.485 138.479 179.182H138.48Z" fill="#CEB79B"/>
<path d="M54.3775 46.1285C55.0723 48.2558 56.636 49.9783 58.6397 50.8901C56.6738 51.8144 55.1568 53.5193 54.4734 55.5924C53.7785 53.465 52.2149 51.7438 50.2124 50.832C52.1783 49.9077 53.6953 48.2028 54.3775 46.1297V46.1285Z" fill="#9AD0D2"/>
<path d="M191.867 86.82C193.09 90.5653 195.848 93.5942 199.372 95.1995C195.913 96.8262 193.244 99.8249 192.04 103.472C190.815 99.729 188.061 96.6988 184.537 95.0935C187.994 93.4656 190.664 90.4669 191.867 86.8188V86.82Z" fill="#65C2C9"/>
<path d="M96.499 228.641C97.9012 232.932 101.06 236.406 105.102 238.246C101.137 240.11 98.0765 243.547 96.697 247.728C95.2947 243.438 92.1372 239.966 88.0981 238.126C92.0628 236.26 95.1207 232.822 96.5003 228.641H96.499Z" fill="#65C2C9"/>
<path d="M58.8632 216.726C61.0207 216.726 62.7698 214.977 62.7698 212.819C62.7698 210.661 61.0207 208.912 58.8632 208.912C56.7056 208.912 54.9565 210.661 54.9565 212.819C54.9565 214.977 56.7056 216.726 58.8632 216.726Z" fill="#D8EEF0"/>
<path d="M226.558 166.602C228.716 166.602 230.465 164.853 230.465 162.695C230.465 160.537 228.716 158.788 226.558 158.788C224.401 158.788 222.652 160.537 222.652 162.695C222.652 164.853 224.401 166.602 226.558 166.602Z" fill="#D8EEF0"/>
</svg>
