<svg width="300" height="300" viewBox="0 0 300 300" fill="none" xmlns="http://www.w3.org/2000/svg">
<g clip-path="url(#clip0_23569_37132)">
<path d="M222.518 198.2C222.608 197.784 223.018 197.521 223.433 197.611C224.715 197.889 226.024 198.119 227.362 198.297C228.851 198.496 230.292 198.622 231.687 198.68C232.112 198.698 232.442 199.056 232.425 199.481C232.407 199.906 232.048 200.236 231.623 200.219C230.18 200.159 228.692 200.028 227.159 199.824C225.779 199.64 224.429 199.403 223.107 199.116C222.691 199.026 222.427 198.616 222.518 198.2ZM248.426 195.404C248.806 195.214 249.269 195.369 249.458 195.75C249.648 196.13 249.494 196.593 249.113 196.782C246.529 198.072 243.684 199.039 240.568 199.621C240.15 199.699 239.748 199.423 239.67 199.005C239.592 198.587 239.867 198.185 240.285 198.107C243.264 197.551 245.972 196.629 248.426 195.404ZM207.659 192.017C207.878 191.652 208.351 191.534 208.715 191.753C210.971 193.106 213.342 194.294 215.832 195.288C216.227 195.445 216.42 195.893 216.262 196.288C216.105 196.683 215.657 196.876 215.262 196.718C212.691 195.692 210.246 194.468 207.923 193.073C207.558 192.855 207.44 192.381 207.659 192.017ZM260.913 183.894C261.142 183.536 261.618 183.431 261.977 183.66C262.335 183.89 262.44 184.366 262.211 184.724C260.587 187.263 258.688 189.599 256.493 191.645C256.182 191.935 255.695 191.918 255.405 191.607C255.115 191.297 255.132 190.809 255.443 190.519C257.534 188.569 259.352 186.336 260.913 183.894ZM195.289 181.684C195.598 181.392 196.085 181.405 196.378 181.714C198.215 183.653 200.158 185.478 202.212 187.16C202.541 187.429 202.589 187.915 202.32 188.244C202.05 188.573 201.565 188.621 201.236 188.351C199.128 186.625 197.138 184.755 195.26 182.773C194.968 182.464 194.981 181.977 195.289 181.684ZM267.196 167.835C267.282 167.418 267.689 167.15 268.106 167.235C268.522 167.321 268.791 167.728 268.705 168.145C268.104 171.072 267.28 173.953 266.218 176.717C266.066 177.114 265.62 177.312 265.223 177.16C264.826 177.007 264.628 176.562 264.781 176.165C265.81 173.486 266.611 170.686 267.196 167.835ZM185.579 168.787C185.939 168.561 186.415 168.669 186.641 169.028C188.066 171.289 189.585 173.494 191.204 175.615C191.462 175.953 191.397 176.436 191.059 176.694C190.721 176.952 190.237 176.887 189.979 176.549C188.331 174.388 186.786 172.145 185.339 169.849C185.112 169.49 185.22 169.014 185.579 168.787ZM178.089 154.467C178.477 154.293 178.932 154.466 179.107 154.854C180.191 157.269 181.364 159.687 182.629 162.077C182.828 162.453 182.684 162.919 182.308 163.118C181.933 163.317 181.467 163.174 181.268 162.798C179.986 160.376 178.799 157.928 177.702 155.485C177.528 155.097 177.701 154.641 178.089 154.467ZM280.507 159.783C280.894 159.607 281.351 159.777 281.527 160.164C281.704 160.551 281.533 161.008 281.146 161.184C278.646 162.325 275.923 163.021 272.977 163.144C272.552 163.161 272.193 162.831 272.176 162.406C272.158 161.981 272.488 161.623 272.913 161.605C275.652 161.491 278.179 160.845 280.507 159.783ZM256.359 157.474C256.574 157.107 257.045 156.984 257.412 157.199C258.658 157.928 259.975 158.6 261.362 159.202C262.65 159.762 263.902 160.216 265.119 160.575C265.527 160.695 265.76 161.123 265.64 161.531C265.52 161.939 265.092 162.172 264.684 162.052C263.403 161.675 262.091 161.198 260.748 160.614C259.304 159.987 257.932 159.288 256.634 158.528C256.267 158.313 256.144 157.841 256.359 157.474ZM268.933 149.683C269.357 149.648 269.729 149.964 269.764 150.388C270.001 153.286 270.038 156.284 269.859 159.307C269.834 159.731 269.47 160.055 269.045 160.03C268.621 160.005 268.297 159.64 268.322 159.216C268.497 156.265 268.46 153.339 268.229 150.513C268.194 150.09 268.51 149.718 268.933 149.683ZM292.162 149.262C292.401 148.91 292.88 148.819 293.232 149.058C293.584 149.297 293.675 149.776 293.436 150.128C291.85 152.46 290.062 154.616 288.066 156.476C287.754 156.766 287.267 156.749 286.977 156.437C286.687 156.126 286.705 155.639 287.016 155.349C288.915 153.58 290.63 151.515 292.162 149.262ZM243.963 144.578C244.332 144.368 244.802 144.497 245.013 144.866C246.379 147.266 248.18 149.642 250.401 151.835C250.704 152.133 250.707 152.621 250.408 152.924C250.109 153.226 249.622 153.229 249.319 152.931C246.999 150.64 245.111 148.153 243.674 145.628C243.464 145.259 243.593 144.788 243.963 144.578ZM172.363 139.347C172.767 139.214 173.202 139.435 173.334 139.839C174.139 142.302 175.033 144.843 176.023 147.426C176.175 147.823 175.976 148.268 175.579 148.42C175.182 148.572 174.737 148.374 174.585 147.977C173.585 145.368 172.683 142.802 171.871 140.318C171.738 139.913 171.959 139.479 172.363 139.347ZM299.053 134.764C299.184 134.36 299.618 134.137 300.022 134.268C300.427 134.398 300.649 134.832 300.519 135.237C299.694 137.795 298.691 140.393 297.505 142.922C297.324 143.307 296.866 143.472 296.481 143.292C296.096 143.111 295.93 142.653 296.111 142.268C297.267 139.803 298.246 137.266 299.053 134.764ZM264.229 132.818C264.606 132.623 265.071 132.77 265.266 133.148C266.543 135.618 267.577 138.473 268.347 141.576C268.45 141.989 268.198 142.407 267.786 142.509C267.373 142.611 266.955 142.36 266.853 141.947C266.106 138.938 265.11 136.2 263.898 133.855C263.703 133.478 263.851 133.013 264.229 132.818ZM242.153 127.652C242.393 127.301 242.872 127.212 243.223 127.452C243.574 127.693 243.663 128.172 243.422 128.523C242.032 130.55 241.549 133.404 242.043 136.682C242.106 137.103 241.817 137.495 241.396 137.558C240.976 137.622 240.584 137.332 240.52 136.912C239.989 133.385 240.474 130.099 242.153 127.652ZM168.112 123.75C168.527 123.655 168.94 123.914 169.035 124.328C169.577 126.685 170.23 129.312 171.011 132.133C171.125 132.542 170.884 132.967 170.475 133.08C170.065 133.194 169.641 132.953 169.527 132.543C168.74 129.699 168.081 127.05 167.534 124.673C167.439 124.259 167.698 123.845 168.112 123.75ZM301.675 122.989C301.724 122.567 302.106 122.264 302.529 122.312C302.951 122.361 303.254 122.743 303.205 123.165C303.057 124.455 302.847 125.823 302.574 127.245C302.494 127.662 302.091 127.936 301.673 127.856C301.256 127.776 300.982 127.373 301.062 126.955C301.327 125.568 301.531 124.238 301.675 122.989ZM250.617 123.612C252.037 123.589 253.597 123.756 255.297 124.128C256.826 124.464 258.25 125.135 259.558 126.082C259.902 126.331 259.979 126.813 259.73 127.157C259.481 127.502 258.999 127.579 258.655 127.329C257.499 126.493 256.267 125.918 254.967 125.632C253.365 125.281 251.925 125.131 250.641 125.151C250.216 125.158 249.866 124.819 249.859 124.394C249.853 123.968 250.192 123.618 250.617 123.612ZM165.919 111.856C166.328 111.802 166.703 112.079 166.776 112.48L166.782 112.519C166.782 112.519 166.783 112.52 166.783 112.52C166.783 112.52 166.783 112.521 166.783 112.523C166.783 112.525 166.784 112.529 166.785 112.534C166.786 112.545 166.788 112.561 166.791 112.582C166.797 112.625 166.806 112.69 166.818 112.776C166.842 112.947 166.879 113.203 166.931 113.537C167.033 114.205 167.192 115.187 167.415 116.436C167.49 116.854 167.212 117.255 166.793 117.33C166.374 117.405 165.974 117.126 165.899 116.707C165.673 115.445 165.513 114.451 165.408 113.77C165.356 113.43 165.318 113.169 165.293 112.992C165.281 112.903 165.271 112.835 165.265 112.79C165.262 112.767 165.26 112.75 165.258 112.738C165.257 112.732 165.257 112.727 165.256 112.724C165.256 112.723 165.256 112.721 165.256 112.721C165.256 112.72 165.256 112.72 165.256 112.72V112.719C165.2 112.297 165.498 111.911 165.919 111.856Z" fill="#EBEFFF"/>
<path d="M114.198 223.583C114.616 223.662 114.891 224.065 114.811 224.483C114.546 225.881 114.313 226.979 114.145 227.729C114.061 228.104 113.994 228.392 113.947 228.587C113.924 228.684 113.906 228.759 113.894 228.809C113.888 228.834 113.883 228.853 113.88 228.866C113.878 228.873 113.877 228.878 113.876 228.881C113.875 228.883 113.875 228.885 113.875 228.886C113.875 228.886 113.874 228.886 113.874 228.887L113.874 228.887L113.874 228.887C113.77 229.3 113.351 229.549 112.939 229.445C112.527 229.34 112.277 228.922 112.381 228.509C112.381 228.509 112.381 228.509 112.382 228.509C112.382 228.508 112.382 228.507 112.382 228.506C112.383 228.503 112.384 228.499 112.385 228.493C112.388 228.482 112.393 228.464 112.398 228.441C112.41 228.394 112.427 228.323 112.45 228.229C112.495 228.041 112.56 227.761 112.642 227.393C112.806 226.658 113.037 225.577 113.299 224.196C113.378 223.778 113.781 223.504 114.198 223.583ZM0.547742 177.858C0.804658 177.519 1.28761 177.453 1.62647 177.71C1.96536 177.967 2.03179 178.45 1.77487 178.789C0.894772 179.949 0.1088 181.094 -0.572436 182.202C-0.795243 182.564 -1.26957 182.677 -1.63179 182.454C-1.99395 182.231 -2.10697 181.757 -1.88419 181.395C-1.17453 180.241 -0.359796 179.055 0.547742 177.858ZM41.1383 188.74C41.5088 188.531 41.9784 188.662 42.187 189.033C42.9118 190.32 43.7355 191.416 44.6525 192.296C45.6588 193.263 46.6574 194.054 47.6356 194.686C47.9927 194.917 48.0953 195.393 47.8646 195.75C47.6339 196.108 47.1573 196.21 46.8001 195.979C45.7312 195.289 44.6559 194.435 43.5857 193.407C42.5417 192.404 41.6301 191.182 40.8451 189.789C40.6365 189.418 40.7677 188.948 41.1383 188.74ZM60.4594 192.859C60.6851 192.499 61.1602 192.39 61.5206 192.615C61.881 192.841 61.9903 193.316 61.7647 193.677C60.171 196.222 57.7154 197.879 54.7802 198.195C54.3574 198.24 53.9777 197.934 53.9321 197.512C53.8866 197.089 54.1925 196.709 54.6153 196.664C57.037 196.403 59.0918 195.044 60.4594 192.859ZM116.323 205.803C116.747 205.83 117.069 206.196 117.042 206.621C116.833 209.878 116.532 212.894 116.197 215.586C116.145 216.008 115.76 216.308 115.338 216.255C114.916 216.203 114.617 215.818 114.669 215.396C115.001 212.731 115.299 209.746 115.505 206.522C115.533 206.098 115.899 205.776 116.323 205.803ZM12.7794 165.932C13.1234 165.682 13.6048 165.758 13.8548 166.102C14.1048 166.446 14.0286 166.928 13.6846 167.178C11.3977 168.839 9.25606 170.664 7.31128 172.557C7.00649 172.853 6.51895 172.847 6.22239 172.542C5.92585 172.237 5.9325 171.749 6.23725 171.453C8.23161 169.512 10.4295 167.639 12.7794 165.932ZM37.7173 171.893C38.1424 171.883 38.4957 172.219 38.5063 172.644C38.5816 175.653 38.8858 178.515 39.4165 181.122C39.5013 181.539 39.2322 181.946 38.8155 182.031C38.3987 182.115 37.9921 181.846 37.9073 181.43C37.3563 178.721 37.044 175.769 36.9668 172.682C36.9562 172.257 37.2922 171.904 37.7173 171.893ZM61.042 177.266C61.4368 177.108 61.8849 177.3 62.0429 177.695C63.1705 180.513 63.7136 183.207 63.7646 185.667C63.7734 186.093 63.436 186.444 63.0109 186.453C62.5857 186.462 62.2338 186.125 62.225 185.699C62.1782 183.441 61.6788 180.93 60.6132 178.267C60.4552 177.872 60.6472 177.424 61.042 177.266ZM28.1764 158.479C28.5897 158.379 29.006 158.633 29.1061 159.047C29.2062 159.46 28.9521 159.876 28.5388 159.976C25.9004 160.615 23.2993 161.602 20.786 162.848C20.405 163.036 19.943 162.881 19.7542 162.5C19.5654 162.119 19.7212 161.657 20.1023 161.468C22.7028 160.179 25.4115 159.149 28.1764 158.479ZM116.21 187.892C116.635 187.862 117.003 188.182 117.032 188.606C117.248 191.689 117.339 194.704 117.337 197.608C117.337 198.034 116.992 198.378 116.567 198.378C116.142 198.378 115.797 198.033 115.797 197.608C115.799 194.736 115.709 191.757 115.496 188.714C115.466 188.29 115.786 187.922 116.21 187.892ZM39.7488 154.734C40.1626 154.832 40.419 155.246 40.3214 155.66C40.135 156.451 39.9632 157.244 39.8052 158.039C41.6265 158.377 43.4384 158.924 45.2255 159.707C45.6149 159.878 45.7921 160.332 45.6213 160.722C45.4506 161.111 44.9964 161.289 44.6069 161.118C42.9305 160.383 41.2313 159.87 39.5219 159.553C39.2549 161.072 39.039 162.593 38.8754 164.104C38.8297 164.527 38.4498 164.833 38.0271 164.787C37.6043 164.741 37.2986 164.361 37.3444 163.939C37.5103 162.406 37.7282 160.863 37.9982 159.323C37.564 159.271 37.1293 159.232 36.6945 159.205C36.2701 159.178 35.9476 158.813 35.9742 158.388C36.0008 157.964 36.3664 157.641 36.7908 157.668C37.2878 157.699 37.7847 157.745 38.2812 157.806C38.4464 156.97 38.6267 156.137 38.8225 155.307C38.9201 154.893 39.3349 154.637 39.7488 154.734ZM51.3984 164.478C51.6799 164.159 52.1664 164.129 52.4851 164.41C53.5257 165.329 54.5472 166.351 55.5467 167.48C56.4788 168.534 57.323 169.587 58.0835 170.635C58.3333 170.979 58.2567 171.46 57.9125 171.71C57.5684 171.96 57.0868 171.883 56.8371 171.539C56.1067 170.533 55.2938 169.518 54.3935 168.501C53.4338 167.416 52.4567 166.44 51.4657 165.565C51.147 165.283 51.1169 164.796 51.3984 164.478ZM113.362 170.219C113.774 170.116 114.192 170.368 114.295 170.78C115.028 173.734 115.605 176.698 116.05 179.638C116.114 180.059 115.825 180.451 115.404 180.515C114.984 180.578 114.591 180.289 114.528 179.869C114.089 176.972 113.521 174.055 112.8 171.151C112.697 170.739 112.949 170.321 113.362 170.219ZM45.1838 139.012C45.4005 138.646 45.8727 138.525 46.2387 138.742C46.6046 138.958 46.7256 139.431 46.509 139.796C45.0983 142.179 43.8708 144.766 42.8286 147.48C42.6762 147.877 42.2307 148.075 41.8337 147.922C41.4367 147.77 41.2385 147.325 41.391 146.928C42.4604 144.143 43.7242 141.477 45.1838 139.012ZM106.98 153.519C107.358 153.324 107.823 153.472 108.018 153.849C109.416 156.549 110.62 159.322 111.654 162.135C111.801 162.534 111.596 162.977 111.197 163.124C110.798 163.27 110.355 163.065 110.208 162.666C109.195 159.909 108.017 157.196 106.651 154.557C106.455 154.18 106.603 153.715 106.98 153.519ZM57.5655 126.606C57.944 126.413 58.408 126.562 58.6018 126.941C58.7955 127.319 58.6456 127.783 58.2671 127.977C55.8237 129.228 53.5981 130.943 51.5929 133.022C51.2977 133.328 50.8102 133.337 50.5041 133.042C50.198 132.747 50.1892 132.259 50.4844 131.953C52.5907 129.769 54.9505 127.945 57.5655 126.606ZM96.4125 139.135C96.7173 138.838 97.2048 138.845 97.5013 139.15C99.6478 141.356 101.576 143.687 103.305 146.114C103.552 146.46 103.471 146.941 103.125 147.188C102.778 147.434 102.297 147.354 102.051 147.007C100.365 144.642 98.4871 142.372 96.3974 140.223C96.1009 139.919 96.1077 139.431 96.4125 139.135ZM74.9753 125.066C75.3864 125.175 75.6313 125.596 75.5223 126.008C75.4134 126.419 74.9918 126.663 74.5807 126.555C71.6052 125.766 68.8271 125.516 66.2431 125.718C65.8192 125.751 65.4487 125.434 65.4156 125.01C65.3826 124.586 65.6994 124.216 66.1233 124.183C68.894 123.966 71.846 124.236 74.9753 125.066ZM82.1141 128.662C82.313 128.286 82.7789 128.142 83.1548 128.341C84.4001 129 85.6686 129.741 86.9604 130.568C88.2557 131.397 89.499 132.261 90.6918 133.157C91.0318 133.413 91.1002 133.896 90.8447 134.236C90.5892 134.575 90.1066 134.644 89.7667 134.388C88.6773 133.57 87.5444 132.779 86.3665 132.017L86.1303 131.865C84.8721 131.06 83.6401 130.34 82.4345 129.702C82.0586 129.504 81.9152 129.038 82.1141 128.662Z" fill="#EBEFFF"/>
<path fill-rule="evenodd" clip-rule="evenodd" d="M153.241 69.6863C117.635 69.6863 84.5574 80.1975 57.1185 98.2232C55.2313 131.004 62.6658 164.905 80.4628 195.729C97.9166 225.97 121.421 249.212 150.038 264.012L153.058 264.618H153.424C182.681 249.864 208.256 226.508 226.018 195.729C243.827 164.905 251.25 131.004 249.363 98.2232C221.924 80.1975 188.846 69.6863 153.241 69.6863Z" fill="#8E9DB1"/>
<path fill-rule="evenodd" clip-rule="evenodd" d="M150.209 69.08C114.604 69.08 81.5262 79.5912 54.0872 97.617C52.2 130.397 59.6345 164.298 77.4315 195.123C95.1942 225.902 120.769 249.257 150.026 264.012H150.392C179.65 249.257 205.224 225.902 222.987 195.123C240.796 164.298 248.219 130.397 246.331 97.617C218.904 79.5912 185.815 69.08 150.209 69.08Z" fill="#C0CED1"/>
<path opacity="0.41" fill-rule="evenodd" clip-rule="evenodd" d="M154.761 69.1486L153.789 80.8837L123.651 235.338L116.777 242.086C101.462 229.253 88.0571 213.515 77.4315 195.123C59.6345 164.298 52.2 130.397 54.0872 97.617C81.5147 79.6027 114.604 69.08 150.209 69.08C151.719 69.08 153.217 69.1029 154.716 69.1372C154.739 69.1486 154.75 69.1486 154.761 69.1486Z" fill="#E8E8E8"/>
<path opacity="0.45" fill-rule="evenodd" clip-rule="evenodd" d="M200.02 76.1942L195.262 89.359L176.538 87.4489L178.185 71.2875C182.257 71.928 186.283 72.7172 190.252 73.6436C193.546 74.3985 196.806 75.2564 200.02 76.1942Z" fill="#B6BDDC"/>
<path opacity="0.45" fill-rule="evenodd" clip-rule="evenodd" d="M97.1499 95.9128L85.1747 102.798L82.1895 82.6679C86.1354 81.0095 90.1501 79.4997 94.2447 78.1272L97.1499 95.9128Z" fill="#B6BDDC"/>
<path opacity="0.45" fill-rule="evenodd" clip-rule="evenodd" d="M129.015 70.3381V87.8378L111.881 88.5126L109.88 73.7008C115.05 72.4884 120.311 71.5048 125.652 70.7613C126.773 70.6127 127.883 70.4639 129.015 70.3381Z" fill="#B6BDDC"/>
<path opacity="0.45" fill-rule="evenodd" clip-rule="evenodd" d="M162.515 69.5032L158.615 84.8983L143.552 82.7251L143.678 69.2058C145.37 69.1372 147.086 69.1029 148.802 69.0914C149.271 69.08 149.751 69.08 150.22 69.08C154.349 69.08 158.455 69.2173 162.515 69.5032Z" fill="#B6BDDC"/>
<path opacity="0.45" fill-rule="evenodd" clip-rule="evenodd" d="M68.2238 121.361L55.3907 130.912C53.8809 119.783 53.4577 108.631 54.0868 97.6054C56.6603 95.9241 59.2681 94.3 61.933 92.7444C63.4314 91.8752 64.9411 91.0174 66.4738 90.1938L71.6436 107.225L68.2238 121.361Z" fill="#B6BDDC"/>
<path opacity="0.45" fill-rule="evenodd" clip-rule="evenodd" d="M84.2021 174.958L70.7057 182.29C67.9264 176.434 65.5016 170.486 63.4199 164.482L72.021 159.037L84.2021 174.958Z" fill="#B6BDDC"/>
<path opacity="0.45" fill-rule="evenodd" clip-rule="evenodd" d="M103.086 204.559L93.0323 217.861C89.6925 213.732 86.5243 209.42 83.5391 204.925L98.7626 194.219L103.086 204.559Z" fill="#B6BDDC"/>
<path opacity="0.45" fill-rule="evenodd" clip-rule="evenodd" d="M123.662 235.338L116.994 242.28C112.682 238.678 108.518 234.846 104.538 230.786L113.62 220.698L123.662 235.338Z" fill="#B6BDDC"/>
<path opacity="0.45" d="M222.987 195.123C205.225 225.902 179.65 249.257 150.393 264.012H150.027C142.329 260.135 134.894 255.651 127.78 250.596L133.145 242.326L211.367 93.3736L214.821 81.2725C225.961 85.6646 236.518 91.1547 246.343 97.6169C248.219 130.397 240.784 164.298 222.987 195.123Z" fill="#ACBCC2"/>
<path fill-rule="evenodd" clip-rule="evenodd" d="M146.16 80.8493C205.853 78.0242 239.503 104.846 239.503 104.846C239.503 104.846 243.231 154.039 214.82 198.245C188.834 238.666 150.381 252.277 150.381 252.277L149.969 246.306L147.235 185.687C147.224 185.687 117.943 82.1876 146.16 80.8493Z" fill="#8E9DB1"/>
<g opacity="0.5">
<path fill-rule="evenodd" clip-rule="evenodd" d="M238.382 92.6873L226.453 106.149L213.917 99.4584L222.003 84.3035C227.642 86.8198 233.098 89.622 238.382 92.6873Z" fill="#9FA6C1"/>
<path fill-rule="evenodd" clip-rule="evenodd" d="M211.801 212.177C208.29 216.935 204.561 221.464 200.638 225.764L191.945 214.121L201.05 203.209L211.801 212.177Z" fill="#9FA6C1"/>
<path fill-rule="evenodd" clip-rule="evenodd" d="M180.496 244.682C175.624 248.583 170.557 252.197 165.353 255.514L159.565 237.671L171.689 230.259L180.496 244.682Z" fill="#9FA6C1"/>
<path fill-rule="evenodd" clip-rule="evenodd" d="M245.885 123.409C245.268 130.146 244.25 136.871 242.832 143.562L225.698 141.194L223.937 125.948L245.885 123.409Z" fill="#9FA6C1"/>
<path fill-rule="evenodd" clip-rule="evenodd" d="M234.151 172.133C231.543 178.653 228.524 185.092 225.07 191.406L212.923 184.395L217.018 169.743L234.151 172.133Z" fill="#9FA6C1"/>
<path fill-rule="evenodd" clip-rule="evenodd" d="M150.118 264.012H150.038C146.31 262.136 142.638 260.112 139.035 257.95L143.393 243.996L150.05 252.277L150.118 264.012Z" fill="#9FA6C1"/>
</g>
<path fill-rule="evenodd" clip-rule="evenodd" d="M65.685 105.944C65.685 105.944 57.5758 152.209 81.0916 192.664C108.199 239.307 150.061 252.277 150.061 252.277L65.685 105.944Z" fill="#8E9DB1"/>
<path fill-rule="evenodd" clip-rule="evenodd" d="M150.209 80.8493C118.893 80.8493 89.8069 90.0909 65.6735 105.944C64.015 134.778 70.5573 164.584 86.2041 191.692C101.828 218.765 124.314 239.295 150.049 252.277H150.369C176.104 239.295 198.59 218.765 214.214 191.692C229.872 164.584 236.403 134.778 234.745 105.944C210.623 90.0909 181.525 80.8493 150.209 80.8493Z" fill="#4A218E"/>
<path opacity="0.8" fill-rule="evenodd" clip-rule="evenodd" d="M167.663 207.51C154.178 219.851 139.149 229.15 123.651 235.338C108.999 223.649 96.2002 209.008 86.2151 191.703C70.557 164.596 64.0261 134.789 65.6845 105.955C89.8065 90.1025 118.904 80.8609 150.22 80.8609C171.986 80.8609 192.665 85.333 211.366 93.3851C218.137 131.232 202.708 175.439 167.663 207.51Z" fill="#60349E"/>
<path opacity="0.6" fill-rule="evenodd" clip-rule="evenodd" d="M153.79 80.8836C150.793 99.8129 140.453 119.223 123.503 134.583C108.005 148.64 89.6702 156.864 72.0219 159.026C66.7263 141.526 64.6789 123.558 65.6854 105.944C89.8075 90.0909 118.905 80.8493 150.221 80.8493C151.411 80.8493 152.612 80.8493 153.79 80.8836Z" fill="#6F40A9"/>
<path opacity="0.1" d="M84.9225 131.804C90.6986 134.755 99.3454 129.688 103.978 123.466C108.29 117.69 107.786 112.772 105.202 109.821C89.7264 92.184 72.6843 125.559 84.9225 131.804Z" fill="white"/>
<path d="M129.036 190.323V137.741L119.729 126.474H183.578L172.31 137.741H140.303V152.765H169.599V164.574H140.303V179.056H174.015V190.323H129.036Z" fill="white"/>
<path d="M207.455 39.2669C209.216 44.6593 213.185 49.023 218.262 51.3348C213.28 53.6779 209.436 57.9967 207.702 63.2491C205.94 57.8585 201.973 53.4953 196.897 51.1841C201.878 48.8395 205.722 44.5203 207.455 39.2669Z" fill="#EBEFFF"/>
<path d="M180.002 43.912C182.487 43.912 184.502 41.8973 184.502 39.412C184.502 36.9267 182.487 34.912 180.002 34.912C177.517 34.912 175.502 36.9267 175.502 39.412C175.502 41.8973 177.517 43.912 180.002 43.912Z" fill="#C194FF"/>
<path d="M223.148 258.849C225.634 258.849 227.648 256.834 227.648 254.349C227.648 251.864 225.634 249.849 223.148 249.849C220.663 249.849 218.648 251.864 218.648 254.349C218.648 256.834 220.663 258.849 223.148 258.849Z" fill="#C194FF"/>
<path d="M35.8737 208.194C37.5822 213.425 41.4325 217.658 46.3576 219.901C41.5255 222.173 37.7963 226.362 36.1144 231.457C34.4049 226.228 30.5564 221.996 25.6325 219.754C30.4648 217.48 34.1933 213.29 35.8737 208.194Z" fill="#EBEFFF"/>
<path d="M86.0181 56.156C87.2268 59.857 89.9513 62.8515 93.4358 64.4382C90.017 66.0462 87.3789 69.0103 86.1889 72.6149C84.9795 68.9155 82.2567 65.9216 78.7733 64.3355C82.192 62.7265 84.8292 59.7616 86.0181 56.156Z" fill="#EBEFFF"/>
</g>
<defs>
<clipPath id="clip0_23569_37132">
<rect width="300" height="300" fill="white"/>
</clipPath>
</defs>
</svg>
