<svg width="300" height="300" viewBox="0 0 300 300" fill="none" xmlns="http://www.w3.org/2000/svg">
<path d="M122.447 227.151C122.519 226.732 122.916 226.45 123.335 226.521C124.678 226.748 126.046 226.955 127.438 227.141C128.762 227.318 130.057 227.425 131.322 227.465C131.747 227.478 132.08 227.834 132.067 228.259C132.054 228.684 131.698 229.017 131.273 229.004C129.955 228.962 128.608 228.851 127.234 228.668C125.824 228.48 124.439 228.269 123.078 228.039C122.659 227.968 122.376 227.57 122.447 227.151ZM146.346 224.459C146.731 224.28 147.19 224.447 147.369 224.833C147.548 225.218 147.381 225.676 146.995 225.856C144.583 226.977 142.026 227.827 139.322 228.362C138.905 228.445 138.5 228.174 138.417 227.756C138.335 227.339 138.606 226.934 139.023 226.852C141.603 226.341 144.043 225.53 146.346 224.459ZM106.302 223.032C106.436 222.628 106.872 222.41 107.276 222.544C109.808 223.385 112.456 224.155 115.224 224.838C115.637 224.94 115.889 225.358 115.787 225.771C115.686 226.183 115.268 226.435 114.855 226.334C112.048 225.641 109.361 224.859 106.79 224.005C106.387 223.871 106.168 223.435 106.302 223.032ZM158.614 215.141C158.898 214.824 159.385 214.798 159.701 215.083C160.017 215.367 160.044 215.854 159.759 216.17C157.94 218.195 155.98 220.037 153.877 221.655C153.54 221.914 153.056 221.851 152.797 221.514C152.538 221.177 152.601 220.693 152.938 220.434C154.96 218.879 156.851 217.102 158.614 215.141ZM91.0555 216.36C91.2559 215.985 91.7225 215.843 92.0975 216.044C94.436 217.293 96.9171 218.491 99.5461 219.615C99.9371 219.783 100.119 220.235 99.9515 220.626C99.7843 221.017 99.3318 221.199 98.9408 221.032C96.27 219.89 93.7487 218.672 91.3717 217.402C90.9967 217.202 90.8551 216.735 91.0555 216.36ZM77.2084 207.103C77.4733 206.771 77.9577 206.716 78.2903 206.981C80.3332 208.608 82.5602 210.234 84.9803 211.822C85.3359 212.055 85.435 212.532 85.2018 212.888C84.9685 213.243 84.4912 213.343 84.1357 213.109C81.6745 211.495 79.4093 209.841 77.3309 208.185C76.9982 207.92 76.9434 207.436 77.2084 207.103ZM167.282 202.183C167.473 201.804 167.936 201.651 168.316 201.842C168.696 202.033 168.849 202.496 168.657 202.876C167.44 205.293 166.106 207.615 164.652 209.811C164.417 210.165 163.939 210.262 163.585 210.027C163.23 209.792 163.133 209.315 163.368 208.96C164.786 206.82 166.09 204.55 167.282 202.183ZM65.3424 195.427C65.6668 195.152 66.1527 195.192 66.4277 195.517C68.0156 197.39 69.892 199.425 72.0779 201.534C72.3839 201.829 72.3926 202.317 72.0973 202.623C71.802 202.929 71.3147 202.938 71.0086 202.642C68.7834 200.495 66.8719 198.422 65.253 196.513C64.978 196.188 65.0181 195.702 65.3424 195.427ZM172.948 187.577C173.066 187.168 173.493 186.933 173.902 187.052C174.31 187.17 174.545 187.597 174.427 188.006C173.684 190.566 172.837 193.098 171.884 195.571C171.731 195.968 171.285 196.166 170.888 196.013C170.492 195.86 170.294 195.414 170.447 195.017C171.384 192.587 172.217 190.098 172.948 187.577ZM58.3184 185.125C58.6979 184.934 59.161 185.086 59.3528 185.465C59.353 185.465 59.3533 185.466 59.3538 185.467C59.3547 185.469 59.3563 185.472 59.3586 185.476C59.3631 185.485 59.3704 185.499 59.3803 185.518C59.4001 185.556 59.4306 185.614 59.4722 185.691C59.5553 185.845 59.6824 186.076 59.8551 186.375C60.2006 186.974 60.7287 187.848 61.4532 188.939C61.6885 189.293 61.592 189.771 61.2377 190.006C60.8835 190.242 60.4057 190.145 60.1704 189.791C59.4269 188.671 58.8819 187.77 58.5213 187.145C58.341 186.832 58.2068 186.589 58.1169 186.422C58.072 186.339 58.0381 186.275 58.0151 186.231C58.0036 186.209 57.9948 186.192 57.9887 186.18C57.9856 186.174 57.9833 186.169 57.9816 186.166C57.9807 186.164 57.98 186.163 57.9795 186.162C57.9793 186.161 57.979 186.161 57.9788 186.161C57.9787 186.161 57.9788 186.16 57.9787 186.16L57.9786 186.16L58.6657 185.813L57.9784 186.16C57.7866 185.78 57.9389 185.317 58.3184 185.125ZM176.132 172.208C176.186 171.786 176.572 171.488 176.993 171.542C177.415 171.596 177.713 171.982 177.659 172.404C177.325 175.004 176.887 177.634 176.344 180.263C176.258 180.679 175.85 180.947 175.434 180.861C175.017 180.775 174.75 180.367 174.836 179.951C175.371 177.361 175.802 174.77 176.132 172.208ZM181.075 164.348C181.127 163.926 181.511 163.626 181.933 163.678C184.658 164.013 187.323 164.032 189.899 163.75C190.322 163.704 190.702 164.009 190.749 164.431C190.795 164.854 190.49 165.234 190.067 165.281C187.369 165.577 184.584 165.555 181.746 165.207C181.324 165.155 181.023 164.77 181.075 164.348ZM177.594 155.725C178.019 155.707 178.378 156.037 178.396 156.462C178.507 159.028 178.497 161.704 178.365 164.452C178.344 164.876 177.983 165.204 177.559 165.184C177.134 165.163 176.806 164.802 176.827 164.377C176.957 161.674 176.966 159.044 176.858 156.528C176.84 156.103 177.169 155.744 177.594 155.725ZM165.657 158.885C165.87 158.517 166.341 158.391 166.709 158.604C167.858 159.269 169.084 159.889 170.389 160.455C171.644 161.001 172.897 161.481 174.142 161.896C174.546 162.031 174.764 162.467 174.629 162.87C174.495 163.274 174.059 163.492 173.655 163.357C172.366 162.927 171.071 162.431 169.775 161.868C168.418 161.278 167.139 160.631 165.938 159.937C165.57 159.724 165.444 159.253 165.657 158.885ZM204.619 158.141C204.965 157.893 205.446 157.972 205.693 158.318C205.941 158.664 205.861 159.145 205.516 159.392C203.227 161.032 200.767 162.352 198.172 163.339C197.775 163.49 197.33 163.29 197.179 162.893C197.028 162.496 197.227 162.051 197.625 161.899C200.095 160.96 202.437 159.703 204.619 158.141ZM154.336 146.764C154.715 146.571 155.179 146.722 155.371 147.101C156.502 149.325 158.104 151.562 160.196 153.649C160.498 153.949 160.498 154.437 160.198 154.738C159.898 155.039 159.41 155.04 159.109 154.74C156.906 152.542 155.206 150.174 153.999 147.799C153.806 147.42 153.957 146.957 154.336 146.764ZM214.99 146.167C215.193 145.794 215.661 145.656 216.034 145.859C216.408 146.063 216.545 146.531 216.342 146.904C214.966 149.428 213.391 151.715 211.645 153.751C211.368 154.074 210.882 154.111 210.559 153.835C210.237 153.558 210.199 153.072 210.476 152.749C212.149 150.797 213.663 148.601 214.99 146.167ZM174.643 140.238C175.042 140.091 175.484 140.296 175.631 140.696C176.478 143.007 177.135 145.635 177.604 148.498C177.672 148.918 177.388 149.314 176.968 149.383C176.548 149.451 176.153 149.167 176.084 148.747C175.628 145.959 174.992 143.428 174.185 141.226C174.038 140.827 174.243 140.384 174.643 140.238ZM155.214 131.328C155.553 131.071 156.036 131.139 156.292 131.478C156.549 131.817 156.482 132.3 156.142 132.556C154.272 133.97 153.263 136.392 153.299 139.392C153.304 139.818 152.964 140.166 152.538 140.172C152.113 140.177 151.764 139.836 151.759 139.411C151.719 136.072 152.846 133.117 155.214 131.328ZM220.138 131.011C220.213 130.592 220.613 130.313 221.031 130.387C221.45 130.462 221.729 130.862 221.655 131.28C221.151 134.113 220.471 136.788 219.632 139.299C219.497 139.703 219.06 139.92 218.657 139.785C218.254 139.65 218.036 139.214 218.171 138.811C218.986 136.375 219.647 133.773 220.138 131.011ZM162.97 130.507C163.054 130.09 163.46 129.82 163.877 129.904C165.173 130.165 166.561 130.592 168.04 131.2C169.325 131.728 170.483 132.557 171.515 133.63C171.81 133.936 171.801 134.424 171.495 134.719C171.188 135.014 170.701 135.004 170.406 134.698C169.498 133.755 168.512 133.059 167.454 132.624C166.054 132.048 164.76 131.653 163.573 131.414C163.156 131.33 162.886 130.924 162.97 130.507ZM221.155 118.952C221.155 118.527 221.499 118.182 221.925 118.182C222.35 118.182 222.695 118.527 222.695 118.952C222.695 120.357 222.658 121.734 222.585 123.082C222.562 123.507 222.2 123.833 221.775 123.81C221.35 123.787 221.025 123.424 221.048 123C221.119 121.679 221.155 120.33 221.155 118.952Z" fill="#9AD0D2"/>
<path d="M77.8059 105.05C79.2297 109.409 82.4385 112.935 86.5418 114.804C82.5155 116.698 79.4089 120.187 78.0075 124.433C76.5823 120.076 73.3778 116.55 69.2744 114.682C73.2994 112.788 76.4059 109.297 77.8059 105.052V105.05Z" fill="#65C2C9"/>
<path d="M164.581 241.227C166.005 245.585 169.214 249.111 173.317 250.98C169.291 252.875 166.184 256.363 164.783 260.61C163.358 256.253 160.153 252.726 156.05 250.859C160.075 248.964 163.181 245.473 164.581 241.228V241.227Z" fill="#65C2C9"/>
<path d="M178.961 235.365C180.469 235.365 181.691 234.143 181.691 232.635C181.691 231.127 180.469 229.905 178.961 229.905C177.454 229.905 176.231 231.127 176.231 232.635C176.231 234.143 177.454 235.365 178.961 235.365Z" fill="#D8EEF0"/>
<path d="M251.894 166.549C253.845 166.549 255.427 164.967 255.427 163.015C255.427 161.064 253.845 159.482 251.894 159.482C249.942 159.482 248.36 161.064 248.36 163.015C248.36 164.967 249.942 166.549 251.894 166.549Z" fill="#D8EEF0"/>
<path d="M150.448 69.3145C153.102 69.3145 155.253 67.1633 155.253 64.5098C155.253 61.8562 153.102 59.705 150.448 59.705C147.795 59.705 145.644 61.8562 145.644 64.5098C145.644 67.1633 147.795 69.3145 150.448 69.3145Z" fill="#D8EEF0"/>
<path d="M41.3771 188.986C43.3175 217.078 66.9996 239.852 94.2727 239.852C121.544 239.852 142.081 217.078 140.139 188.986C138.199 160.894 114.516 138.121 87.2433 138.121C59.9717 138.121 39.4353 160.894 41.3771 188.986Z" fill="#708794"/>
<path d="M45.8693 187.953C47.8097 216.045 71.4918 238.819 98.7648 238.819C126.037 238.819 146.573 216.045 144.631 187.953C142.691 159.861 119.009 137.088 91.7355 137.088C64.4639 137.088 43.9275 159.861 45.8693 187.953Z" fill="#D9D9D9"/>
<path d="M53.0684 187.953C54.726 211.95 74.9571 231.404 98.2528 231.404C121.55 231.404 139.092 211.95 137.434 187.953C135.777 163.956 115.545 144.502 92.2497 144.502C68.954 144.502 51.4108 163.956 53.0684 187.953Z" fill="#EBEBEB"/>
<path d="M104.501 164.877C106.106 172.09 101.407 178.687 94.0072 179.609C86.6083 180.532 79.3087 175.433 77.7058 168.22C76.1014 161.008 80.7997 154.411 88.2 153.488C95.5989 152.566 102.898 157.665 104.501 164.877Z" fill="#62AD74"/>
<path d="M76.4644 212.519C73.7652 212.856 71.1935 210.731 71.0899 208.081C70.5649 194.588 80.1631 183.095 94.3884 181.32C108.614 179.545 122.667 188.088 128.009 200.98C129.058 203.513 127.544 206.146 124.845 206.483L76.4644 212.519Z" fill="#62AD74"/>
<path fill-rule="evenodd" clip-rule="evenodd" d="M104.281 188.754C105.303 189.548 105.625 190.997 105.002 191.996L100.198 199.607C98.6066 202.435 97.2375 202.605 94.4165 200.328L89.511 196.546C88.482 195.753 88.16 194.304 88.783 193.304C89.406 192.304 90.7443 192.134 91.7747 192.93L96.5627 196.616L101.288 189.125C101.918 188.125 103.262 187.964 104.286 188.751H104.282L104.281 188.754Z" fill="white"/>
<g opacity="0.25">
<path d="M259.072 193.485L258.256 195.72C258.079 196.203 257.528 196.531 256.656 196.711C256.65 196.731 256.644 196.751 256.637 196.769L255.655 199.464C255.331 200.349 253.676 200.683 251.067 200.532L224.338 222.386L220.189 233.758C220.05 234.139 219.749 234.437 219.368 234.575L207.625 238.81C206.535 239.204 205.481 238.145 205.878 237.056L212.772 218.166L206.384 184.145C204.432 182.651 203.463 181.389 203.775 180.535L204.758 177.84C204.765 177.82 204.772 177.802 204.781 177.784C204.229 177.084 204.018 176.478 204.194 175.995L205.01 173.759C206.003 171.04 218.909 173.252 233.837 178.699C248.767 184.147 260.063 190.767 259.071 193.486L259.072 193.485Z" fill="#8BE7F6"/>
</g>
<g opacity="0.25">
<path d="M131.283 46.5032L132.035 48.9714C132.197 49.5048 131.932 50.1488 131.295 50.874C131.304 50.8936 131.311 50.916 131.316 50.937L132.222 53.9119C132.52 54.8891 131.305 56.2583 128.946 57.8291L120.054 94.1908L123.877 106.746C124.004 107.166 123.94 107.621 123.699 107.988L116.292 119.315C115.604 120.366 114.001 120.138 113.635 118.936L107.283 98.08L79.5576 72.7823C76.8921 72.7613 75.2303 72.3007 74.9433 71.3571L74.0375 68.3821C74.0305 68.3611 74.0249 68.3401 74.0207 68.3177C73.0869 68.0699 72.5087 67.6836 72.3463 67.1502L71.5945 64.682C70.6804 61.679 83.3012 55.1775 99.7832 50.1572C116.265 45.1368 130.369 43.5002 131.283 46.5032Z" fill="#8BE7F6"/>
</g>
<path d="M257.442 80.6348C258.743 105.508 240.386 128.037 216.441 130.954C192.496 133.872 172.029 116.073 170.727 91.199C169.427 66.3255 187.783 43.797 211.728 40.8794C235.674 37.9619 256.14 55.7613 257.442 80.6348Z" fill="#708794"/>
<path d="M253.386 80.2092C254.687 105.083 236.33 127.611 212.385 130.529C188.44 133.446 167.973 115.647 166.672 90.7734C165.371 65.8999 183.727 43.3714 207.673 40.4538C231.618 37.5363 252.084 55.3357 253.386 80.2092Z" fill="#D9D9D9"/>
<path d="M247.067 80.9792C248.178 102.227 232.497 121.472 212.042 123.964C191.587 126.456 174.104 111.252 172.992 90.0049C171.881 68.7573 187.562 49.5118 208.017 47.0198C228.472 44.5278 245.955 59.7316 247.067 80.9792Z" fill="#EBEBEB"/>
<path d="M199.438 66.2205C198.801 72.7248 203.633 78.014 210.228 78.0336C216.823 78.0518 222.686 72.7948 223.323 66.2891C223.96 59.7848 219.129 54.4957 212.534 54.4761C205.938 54.4579 200.075 59.7148 199.438 66.2205Z" fill="#708794"/>
<path d="M229.153 105.05C231.56 105.057 233.59 102.917 233.398 100.579C232.415 88.6748 222.758 79.6113 210.078 79.5749C197.399 79.5385 185.973 88.5418 182.662 100.433C182.013 102.768 183.623 104.92 186.029 104.926L229.154 105.049L229.153 105.05Z" fill="#708794"/>
</svg>
