<svg width="300" height="300" viewBox="0 0 300 300" fill="none" xmlns="http://www.w3.org/2000/svg">
<path d="M198.414 235.726C198.504 235.311 198.914 235.047 199.33 235.137C200.611 235.415 201.92 235.645 203.259 235.824C204.747 236.022 206.189 236.148 207.584 236.206C208.009 236.224 208.339 236.583 208.321 237.008C208.303 237.433 207.945 237.763 207.52 237.745C206.076 237.685 204.588 237.555 203.055 237.35C201.676 237.166 200.325 236.929 199.003 236.642C198.588 236.552 198.324 236.142 198.414 235.726ZM224.322 232.931C224.703 232.741 225.165 232.896 225.355 233.276C225.545 233.657 225.39 234.119 225.01 234.309C222.426 235.598 219.581 236.565 216.465 237.147C216.047 237.225 215.644 236.95 215.566 236.532C215.488 236.114 215.764 235.712 216.182 235.634C219.16 235.077 221.868 234.155 224.322 232.931ZM183.555 229.543C183.774 229.179 184.247 229.06 184.612 229.279C186.868 230.633 189.238 231.82 191.729 232.814C192.124 232.972 192.316 233.42 192.159 233.815C192.001 234.21 191.553 234.402 191.158 234.244C188.587 233.219 186.143 231.994 183.819 230.6C183.455 230.381 183.336 229.908 183.555 229.543ZM236.81 221.421C237.039 221.063 237.515 220.958 237.873 221.187C238.231 221.416 238.336 221.892 238.107 222.25C236.483 224.79 234.584 227.125 232.389 229.172C232.078 229.462 231.591 229.445 231.301 229.134C231.011 228.823 231.028 228.336 231.339 228.046C233.43 226.095 235.249 223.862 236.81 221.421ZM171.186 219.211C171.495 218.918 171.982 218.932 172.274 219.24C174.111 221.179 176.054 223.004 178.109 224.686C178.438 224.956 178.486 225.441 178.216 225.77C177.947 226.099 177.462 226.147 177.133 225.878C175.025 224.151 173.034 222.282 171.156 220.299C170.864 219.991 170.877 219.503 171.186 219.211ZM243.093 205.361C243.178 204.945 243.586 204.676 244.002 204.762C244.419 204.847 244.687 205.255 244.601 205.671C244 208.598 243.176 211.48 242.114 214.244C241.962 214.641 241.517 214.839 241.12 214.686C240.723 214.534 240.524 214.088 240.677 213.691C241.706 211.013 242.507 208.212 243.093 205.361ZM161.476 206.314C161.836 206.087 162.311 206.195 162.538 206.555C163.962 208.815 165.482 211.02 167.1 213.141C167.358 213.479 167.293 213.962 166.955 214.22C166.617 214.478 166.134 214.414 165.876 214.075C164.227 211.915 162.682 209.672 161.235 207.376C161.008 207.016 161.116 206.541 161.476 206.314ZM153.985 191.994C154.373 191.819 154.829 191.993 155.003 192.381C156.088 194.796 157.26 197.213 158.525 199.604C158.724 199.98 158.581 200.446 158.205 200.645C157.829 200.843 157.363 200.7 157.164 200.324C155.882 197.902 154.696 195.454 153.598 193.012C153.424 192.624 153.597 192.168 153.985 191.994ZM256.403 197.31C256.79 197.133 257.247 197.304 257.424 197.691C257.6 198.077 257.429 198.534 257.043 198.711C254.542 199.852 251.819 200.547 248.873 200.67C248.449 200.688 248.09 200.358 248.072 199.933C248.054 199.508 248.384 199.149 248.809 199.131C251.548 199.017 254.076 198.372 256.403 197.31ZM232.255 195.001C232.47 194.634 232.942 194.511 233.309 194.725C234.554 195.454 235.871 196.126 237.258 196.729C238.546 197.288 239.799 197.743 241.015 198.101C241.423 198.221 241.657 198.649 241.537 199.057C241.417 199.465 240.989 199.698 240.581 199.578C239.3 199.201 237.988 198.724 236.645 198.141C235.201 197.514 233.829 196.814 232.531 196.055C232.164 195.84 232.04 195.368 232.255 195.001ZM244.83 187.21C245.254 187.175 245.625 187.49 245.66 187.914C245.897 190.812 245.935 193.811 245.756 196.833C245.731 197.258 245.366 197.582 244.942 197.556C244.517 197.531 244.193 197.167 244.219 196.742C244.393 193.792 244.357 190.865 244.125 188.04C244.09 187.616 244.406 187.244 244.83 187.21ZM268.059 186.788C268.298 186.436 268.777 186.345 269.128 186.584C269.48 186.823 269.571 187.302 269.332 187.654C267.746 189.986 265.959 192.142 263.962 194.002C263.651 194.292 263.164 194.275 262.874 193.964C262.584 193.653 262.601 193.166 262.912 192.876C264.811 191.106 266.526 189.042 268.059 186.788ZM219.859 182.105C220.229 181.894 220.699 182.023 220.909 182.393C222.275 184.793 224.076 187.168 226.297 189.361C226.6 189.66 226.603 190.147 226.304 190.45C226.006 190.753 225.518 190.756 225.216 190.457C222.895 188.167 221.007 185.679 219.571 183.155C219.36 182.785 219.489 182.315 219.859 182.105ZM148.26 176.873C148.664 176.741 149.099 176.961 149.231 177.366C150.036 179.828 150.929 182.37 151.919 184.952C152.071 185.349 151.873 185.795 151.476 185.947C151.079 186.099 150.633 185.9 150.481 185.503C149.482 182.895 148.579 180.329 147.767 177.844C147.635 177.44 147.855 177.005 148.26 176.873ZM274.95 172.291C275.08 171.886 275.514 171.664 275.919 171.794C276.323 171.925 276.546 172.359 276.415 172.764C275.59 175.322 274.587 177.919 273.401 180.448C273.221 180.833 272.762 180.999 272.377 180.818C271.992 180.638 271.827 180.179 272.007 179.794C273.163 177.329 274.143 174.793 274.95 172.291ZM240.125 170.344C240.503 170.149 240.967 170.297 241.162 170.675C242.439 173.144 243.473 175.999 244.244 179.103C244.346 179.515 244.095 179.933 243.682 180.035C243.269 180.138 242.852 179.886 242.749 179.474C242.002 176.465 241.007 173.726 239.794 171.382C239.599 171.004 239.747 170.54 240.125 170.344ZM218.049 165.178C218.289 164.828 218.769 164.738 219.119 164.979C219.47 165.22 219.559 165.699 219.319 166.049C217.929 168.076 217.446 170.931 217.94 174.209C218.003 174.629 217.713 175.021 217.293 175.085C216.872 175.148 216.48 174.859 216.417 174.438C215.885 170.912 216.371 167.625 218.049 165.178ZM144.009 161.277C144.423 161.181 144.837 161.44 144.932 161.855C145.473 164.211 146.127 166.839 146.908 169.659C147.021 170.069 146.781 170.493 146.371 170.607C145.961 170.72 145.537 170.48 145.424 170.07C144.636 167.226 143.977 164.576 143.431 162.199C143.336 161.785 143.594 161.372 144.009 161.277ZM277.572 160.516C277.621 160.093 278.002 159.79 278.425 159.839C278.847 159.888 279.15 160.269 279.102 160.692C278.953 161.982 278.743 163.349 278.471 164.771C278.391 165.189 277.987 165.462 277.57 165.382C277.152 165.302 276.878 164.899 276.958 164.481C277.224 163.095 277.428 161.765 277.572 160.516ZM226.513 161.138C227.934 161.116 229.494 161.282 231.193 161.655C232.722 161.99 234.146 162.662 235.454 163.609C235.799 163.858 235.876 164.339 235.626 164.684C235.377 165.028 234.896 165.105 234.551 164.856C233.395 164.019 232.163 163.444 230.863 163.159C229.261 162.808 227.821 162.658 226.537 162.678C226.112 162.685 225.762 162.345 225.756 161.92C225.749 161.495 226.088 161.145 226.513 161.138ZM141.816 149.382C142.224 149.329 142.6 149.606 142.673 150.007L142.679 150.046C142.679 150.046 142.679 150.046 142.679 150.046C142.679 150.047 142.679 150.048 142.68 150.049C142.68 150.052 142.68 150.055 142.681 150.061C142.682 150.071 142.685 150.087 142.687 150.109C142.693 150.152 142.702 150.216 142.714 150.302C142.739 150.474 142.776 150.729 142.827 151.064C142.929 151.732 143.088 152.714 143.312 153.962C143.387 154.381 143.108 154.781 142.689 154.856C142.271 154.931 141.871 154.652 141.796 154.234C141.57 152.972 141.409 151.977 141.305 151.297C141.253 150.957 141.215 150.695 141.19 150.518C141.177 150.43 141.168 150.362 141.162 150.316C141.158 150.294 141.156 150.276 141.155 150.264C141.154 150.258 141.153 150.254 141.153 150.251C141.153 150.249 141.152 150.248 141.152 150.247C141.152 150.247 141.152 150.246 141.152 150.246V150.246C141.097 149.824 141.394 149.437 141.816 149.382Z" fill="#9AD0D2"/>
<path d="M144.775 203.976C145.194 203.906 145.591 204.189 145.661 204.608C145.896 206.012 146.057 207.123 146.159 207.884C146.211 208.265 146.247 208.558 146.271 208.757C146.283 208.857 146.291 208.933 146.297 208.984C146.3 209.01 146.302 209.03 146.304 209.043C146.305 209.05 146.305 209.055 146.305 209.059C146.306 209.06 146.306 209.062 146.306 209.063C146.306 209.063 146.306 209.064 146.306 209.064L146.306 209.064V209.065C146.351 209.488 146.044 209.867 145.621 209.911C145.198 209.956 144.819 209.649 144.775 209.227C144.775 209.226 144.775 209.226 144.775 209.226C144.775 209.225 144.774 209.225 144.774 209.223C144.774 209.22 144.773 209.216 144.773 209.21C144.772 209.199 144.77 209.181 144.767 209.157C144.762 209.109 144.753 209.036 144.742 208.94C144.719 208.748 144.683 208.462 144.633 208.089C144.533 207.343 144.375 206.249 144.143 204.862C144.072 204.443 144.355 204.046 144.775 203.976ZM22.323 200.403C22.4468 199.996 22.8769 199.767 23.2837 199.891C23.6906 200.014 23.92 200.445 23.7963 200.851C23.3723 202.245 23.031 203.591 22.7751 204.866C22.6914 205.283 22.2855 205.553 21.8685 205.47C21.4517 205.386 21.1815 204.98 21.2652 204.563C21.5318 203.235 21.8858 201.84 22.323 200.403ZM64.1712 196.567C64.4467 196.243 64.9326 196.203 65.2566 196.479C66.382 197.436 67.534 198.179 68.6991 198.688C69.9776 199.246 71.1884 199.643 72.3247 199.897C72.7397 199.99 73.0008 200.402 72.908 200.817C72.8151 201.232 72.4035 201.493 71.9885 201.4C70.7468 201.122 69.4423 200.693 68.0826 200.099C66.7561 199.519 65.4779 198.688 64.2592 197.652C63.9351 197.377 63.8958 196.891 64.1712 196.567ZM83.7243 193.746C83.8113 193.33 84.2193 193.063 84.6355 193.15C85.0518 193.237 85.3187 193.645 85.2317 194.061C84.6173 197.001 82.8867 199.405 80.2422 200.717C79.8613 200.906 79.3991 200.75 79.2101 200.37C79.0211 199.989 79.1767 199.527 79.5577 199.338C81.7395 198.255 83.1971 196.269 83.7243 193.746ZM140.616 186.559C141.023 186.438 141.452 186.67 141.573 187.078C142.505 190.206 143.265 193.139 143.883 195.781C143.98 196.196 143.723 196.61 143.309 196.706C142.895 196.803 142.48 196.546 142.384 196.132C141.772 193.517 141.019 190.613 140.097 187.517C139.976 187.109 140.208 186.681 140.616 186.559ZM29.672 184.981C29.9083 184.628 30.3864 184.532 30.7399 184.769C31.0935 185.005 31.1886 185.483 30.9524 185.837C29.3818 188.187 28.004 190.64 26.8342 193.089C26.6508 193.472 26.1911 193.635 25.8074 193.452C25.4237 193.268 25.2612 192.809 25.4445 192.425C26.6442 189.914 28.0582 187.396 29.672 184.981ZM55.1321 181.945C55.5273 181.788 55.975 181.981 56.1321 182.376C57.2441 185.173 58.5197 187.753 59.92 190.016C60.1437 190.378 60.032 190.852 59.6703 191.076C59.3087 191.3 58.8341 191.188 58.6104 190.826C57.1561 188.476 55.8415 185.814 54.701 182.945C54.544 182.549 54.7369 182.102 55.1321 181.945ZM78.875 178.915C79.1908 178.63 79.6776 178.655 79.9625 178.971C81.9955 181.224 83.4373 183.564 84.3366 185.855C84.492 186.251 84.2972 186.697 83.9013 186.853C83.5055 187.008 83.0586 186.813 82.9032 186.417C82.0779 184.315 80.7402 182.131 78.8191 180.002C78.5342 179.686 78.5593 179.199 78.875 178.915ZM41.539 172.661C41.8922 172.424 42.3706 172.518 42.6075 172.872C42.8444 173.225 42.7501 173.703 42.3969 173.94C40.1426 175.452 38.0438 177.279 36.1168 179.317C35.8246 179.626 35.3372 179.639 35.0282 179.347C34.7192 179.055 34.7056 178.568 34.9977 178.259C36.9917 176.15 39.1766 174.246 41.539 172.661ZM134.312 169.794C134.7 169.619 135.156 169.792 135.33 170.18C136.599 172.997 137.728 175.794 138.732 178.52C138.878 178.919 138.674 179.361 138.275 179.508C137.876 179.655 137.433 179.451 137.286 179.052C136.294 176.357 135.179 173.593 133.926 170.812C133.751 170.424 133.924 169.968 134.312 169.794ZM51.1004 165.143C51.5225 165.091 51.9065 165.392 51.9582 165.814C52.0568 166.62 52.1702 167.424 52.2971 168.224C54.1227 167.911 56.0119 167.797 57.9597 167.914C58.3842 167.939 58.7076 168.304 58.6821 168.728C58.6567 169.153 58.2919 169.476 57.8674 169.451C56.0401 169.341 54.2684 169.448 52.5551 169.743C52.8302 171.26 53.1539 172.762 53.5235 174.236C53.6268 174.649 53.3763 175.067 52.9638 175.17C52.5513 175.274 52.1331 175.023 52.0297 174.611C51.6549 173.115 51.3255 171.592 51.0457 170.053C50.6206 170.156 50.1993 170.269 49.7819 170.394C49.3745 170.516 48.9454 170.285 48.8235 169.877C48.7016 169.47 48.9331 169.041 49.3405 168.919C49.8175 168.776 50.2996 168.647 50.7864 168.532C50.6523 167.692 50.5331 166.847 50.4295 166.001C50.3779 165.579 50.6783 165.194 51.1004 165.143ZM65.402 170.253C65.5558 169.857 66.0018 169.66 66.3982 169.814C67.6925 170.316 69.0044 170.921 70.333 171.635C71.572 172.301 72.7284 172.996 73.8046 173.716C74.158 173.953 74.2528 174.431 74.0163 174.785C73.7798 175.138 73.3016 175.233 72.9481 174.996C71.9146 174.305 70.8009 173.634 69.6042 172.991C68.3285 172.306 67.0739 171.728 65.8413 171.25C65.4448 171.096 65.2481 170.65 65.402 170.253ZM125.524 154.198C125.875 153.959 126.354 154.05 126.593 154.402C128.304 156.919 129.871 159.501 131.306 162.105C131.511 162.478 131.375 162.946 131.003 163.151C130.63 163.356 130.162 163.221 129.957 162.848C128.543 160.282 127.001 157.742 125.319 155.268C125.08 154.916 125.172 154.437 125.524 154.198ZM50.7592 148.511C50.8358 148.093 51.2371 147.816 51.6554 147.893C52.0737 147.969 52.3507 148.37 52.274 148.789C51.7749 151.512 51.5184 154.364 51.4797 157.271C51.474 157.696 51.1247 158.036 50.6994 158.03C50.2742 158.025 49.9342 157.675 49.9398 157.25C49.9796 154.268 50.2427 151.329 50.7592 148.511ZM113.758 140.738C114.045 140.424 114.532 140.402 114.846 140.689C117.092 142.739 119.181 144.923 121.124 147.205C121.4 147.528 121.361 148.015 121.037 148.29C120.714 148.566 120.228 148.527 119.952 148.203C118.047 145.967 116.002 143.829 113.808 141.826C113.494 141.54 113.471 141.053 113.758 140.738ZM58.0832 132.587C58.3713 132.275 58.8584 132.255 59.1712 132.543C59.4839 132.831 59.5039 133.318 59.2157 133.631C57.3561 135.649 55.8615 138.029 54.6997 140.674C54.5286 141.063 54.0743 141.24 53.6849 141.069C53.2956 140.898 53.1187 140.443 53.2897 140.054C54.5101 137.276 56.0929 134.748 58.0832 132.587ZM98.8654 130.899C99.0488 130.516 99.5085 130.353 99.8922 130.537C102.67 131.864 105.285 133.384 107.747 135.062C108.098 135.302 108.189 135.781 107.95 136.132C107.71 136.484 107.231 136.574 106.88 136.335C104.48 134.699 101.932 133.219 99.228 131.926C98.8443 131.743 98.682 131.283 98.8654 130.899ZM73.8844 125.118C74.3078 125.078 74.6834 125.389 74.7234 125.812C74.7634 126.235 74.4527 126.611 74.0293 126.651C70.9646 126.941 68.2718 127.668 65.9173 128.751C65.5309 128.929 65.0737 128.76 64.896 128.373C64.7183 127.987 64.8873 127.53 65.2736 127.352C67.7982 126.191 70.6614 125.422 73.8844 125.118ZM81.8264 126.021C81.8829 125.6 82.2704 125.304 82.6919 125.36C84.0883 125.548 85.5348 125.804 87.0329 126.133C88.535 126.462 90.0005 126.843 91.4299 127.271C91.8372 127.393 92.0685 127.822 91.9464 128.23C91.8243 128.637 91.3952 128.868 90.9879 128.746C89.6825 128.355 88.3458 128.005 86.9771 127.698L86.703 127.637C85.2438 127.317 83.839 127.068 82.4871 126.887C82.0657 126.83 81.7698 126.443 81.8264 126.021Z" fill="#9AD0D2"/>
<path d="M56.7806 81.9421C58.2044 86.3003 61.4132 89.8269 65.5166 91.6959C61.4902 93.5901 58.3836 97.0789 56.9822 101.325C55.557 96.9683 52.3524 93.4417 48.249 91.5741C52.274 89.6799 55.3806 86.1883 56.7806 81.9435V81.9421Z" fill="#65C2C9"/>
<path d="M249.405 58.992C250.828 63.3502 254.037 66.8768 258.141 68.7458C254.114 70.64 251.008 74.1288 249.606 78.3749C248.181 74.0182 244.976 70.4916 240.873 68.624C244.898 66.7298 248.005 63.2382 249.405 58.9934V58.992Z" fill="#65C2C9"/>
<path d="M106.669 219.182C107.98 223.192 110.931 226.436 114.707 228.155C111.002 229.896 108.145 233.108 106.855 237.013C105.545 233.004 102.595 229.761 98.8223 228.041C102.525 226.298 105.383 223.087 106.671 219.181L106.669 219.182Z" fill="#65C2C9"/>
<path d="M178.471 247.938C180.982 247.938 183.018 245.902 183.018 243.391C183.018 240.88 180.982 238.844 178.471 238.844C175.96 238.844 173.924 240.88 173.924 243.391C173.924 245.902 175.96 247.938 178.471 247.938Z" fill="#D8EEF0"/>
<path d="M96.892 219.843C98.8435 219.843 100.426 218.261 100.426 216.31C100.426 214.358 98.8435 212.776 96.892 212.776C94.9404 212.776 93.3584 214.358 93.3584 216.31C93.3584 218.261 94.9404 219.843 96.892 219.843Z" fill="#D8EEF0"/>
<path d="M235.249 58.0302C237.346 58.0302 239.045 56.331 239.045 54.2348C239.045 52.1387 237.346 50.4395 235.249 50.4395C233.153 50.4395 231.454 52.1387 231.454 54.2348C231.454 56.331 233.153 58.0302 235.249 58.0302Z" fill="#D8EEF0"/>
<path d="M139.192 73.2342C140.696 73.2342 141.915 72.0151 141.915 70.5112C141.915 69.0073 140.696 67.7882 139.192 67.7882C137.688 67.7882 136.469 69.0073 136.469 70.5112C136.469 72.0151 137.688 73.2342 139.192 73.2342Z" fill="#D8EEF0"/>
<path d="M221.49 138.94L166.918 230.916V255.866C166.918 259.956 158.668 263.271 148.491 263.271C138.315 263.271 130.063 259.956 130.063 255.866V230.916L75.4912 138.94H221.49Z" fill="#507A85"/>
<path d="M221.49 138.94L166.918 230.916V255.866C166.918 259.956 158.668 263.271 148.491 263.271C138.315 263.271 130.063 259.956 130.063 255.866V230.916L124.056 220.791C183.021 203.777 183.021 136.815 183.021 136.815L221.49 138.94Z" fill="#47717A"/>
<path d="M157.882 138.94C153.327 177.292 126.009 186.932 104.904 188.513L75.4912 138.94H157.882Z" fill="#57838F"/>
<path opacity="0.5" d="M221.49 138.94L215.527 148.991C200.385 152.088 175.679 153.398 147.884 152.069C117.408 150.612 90.9346 146.35 76.8436 141.219L75.4912 138.94H221.49Z" fill="#2F4B52"/>
<path d="M166.918 240.101V255.866C166.918 259.956 158.668 263.271 148.491 263.271C144.67 263.271 141.122 262.803 138.179 262.004C138.179 262.004 161.304 259.012 166.918 240.101Z" fill="#40666E"/>
<path d="M234.932 114.005H62.6738V121.129H234.932V114.005Z" fill="#507A85"/>
<path d="M231.455 125.741V134.329C231.455 142.593 194.45 149.292 148.803 149.292C103.156 149.292 66.1504 142.593 66.1504 134.329V125.741C66.1504 117.477 103.155 110.776 148.803 110.776C194.452 110.776 231.455 117.477 231.455 125.741Z" fill="#507A85"/>
<path d="M231.455 125.741V134.329C231.455 142.593 194.45 149.292 148.803 149.292C103.156 149.292 66.1504 142.593 66.1504 134.329V125.741C66.1504 117.477 103.155 110.776 148.803 110.776C194.452 110.776 231.455 117.477 231.455 125.741Z" fill="#507A85"/>
<path d="M231.455 125.741V134.329C231.455 142.593 194.45 149.292 148.804 149.292C144.616 149.292 140.502 149.236 136.482 149.127L135.246 116.83L189.57 112.721C214.582 115.293 231.455 120.161 231.455 125.741Z" fill="#47717A"/>
<path d="M231.454 125.741V134.329C231.454 141.336 204.855 147.217 168.94 148.845V130.033L228.642 121.856C230.476 123.095 231.454 124.398 231.454 125.741Z" fill="#40666E"/>
<path opacity="0.5" d="M231.455 125.741V130.953C220.962 137.194 187.645 140.969 148.316 139.748C109.329 138.538 76.5426 132.796 66.1504 125.993V125.741C66.1504 117.477 103.155 110.776 148.803 110.776C194.452 110.776 231.455 117.477 231.455 125.741Z" fill="#2F4B52"/>
<path d="M148.803 136.816C196.371 136.816 234.932 129.793 234.932 121.129C234.932 112.466 196.371 105.443 148.803 105.443C101.235 105.443 62.6738 112.466 62.6738 121.129C62.6738 129.793 101.235 136.816 148.803 136.816Z" fill="#507A85"/>
<path d="M234.932 121.129C234.932 129.793 196.371 136.815 148.803 136.815C139.364 136.815 130.28 136.539 121.78 136.028V124.396L123.593 108.464C133.348 106.863 145.019 105.816 157.693 105.525C201.084 106.336 234.932 113.012 234.932 121.129Z" fill="#47717A"/>
<path d="M234.932 121.129C234.932 129.076 202.487 135.642 160.406 136.674V128.267L210.635 110.209C225.674 113.033 234.932 116.883 234.932 121.129Z" fill="#40666E"/>
<path d="M234.932 114.005H162.124V121.129H234.932V114.005Z" fill="#40666E"/>
<path d="M148.803 129.692C196.371 129.692 234.932 122.669 234.932 114.005C234.932 105.341 196.371 98.3179 148.803 98.3179C101.235 98.3179 62.6738 105.341 62.6738 114.005C62.6738 122.669 101.235 129.692 148.803 129.692Z" fill="#57838F"/>
<path d="M189.704 109.543C189.704 119.444 164.563 127.677 131.423 129.371C92.1857 127.908 62.6738 121.583 62.6738 114.005C62.6738 105.342 101.235 98.3179 148.803 98.3179C159.82 98.3179 170.353 98.6945 180.037 99.3819C186.181 102.365 189.704 105.837 189.704 109.543Z" fill="#6794A1"/>
<path d="M223.806 112.37C223.806 113.087 223.415 113.788 222.666 114.47C216.473 120.11 185.76 124.396 148.803 124.396C111.846 124.396 81.131 120.11 74.9374 114.47C74.1884 113.788 73.7979 113.087 73.7979 112.37C73.7979 105.728 107.378 100.344 148.803 100.344C190.227 100.344 223.806 105.728 223.806 112.37Z" fill="#2E494F"/>
<path d="M222.666 114.47C216.473 120.11 185.76 124.396 148.803 124.396C111.846 124.396 81.1311 120.11 74.9375 114.47C81.1311 108.829 111.844 104.544 148.803 104.544C185.761 104.544 216.473 108.829 222.666 114.47Z" fill="#283740"/>
<path d="M228.12 80.5982C227.008 96.6785 213.452 109.715 197.841 109.715C182.229 109.715 170.475 96.6785 171.585 80.5982C172.697 64.5178 186.253 51.4811 201.864 51.4811C217.476 51.4811 229.23 64.5178 228.12 80.5982Z" fill="#708794"/>
<path d="M225.547 80.0074C224.435 96.0877 210.879 109.124 195.268 109.124C179.656 109.124 167.902 96.0877 169.012 80.0074C170.124 63.927 183.68 50.8903 199.291 50.8903C214.903 50.8903 226.657 63.927 225.547 80.0074Z" fill="#D9D9D9"/>
<path d="M221.426 80.0074C220.477 93.7441 208.896 104.88 195.561 104.88C182.226 104.88 172.184 93.7441 173.133 80.0074C174.083 66.2706 185.663 55.1351 198.998 55.1351C212.333 55.1351 222.375 66.2706 221.426 80.0074Z" fill="#EBEBEB"/>
<path d="M208.747 71.6578C208.978 70.9956 209.703 70.647 210.364 70.8766C210.984 71.0936 211.331 71.7432 211.181 72.3704L211.145 72.495C211.145 72.495 211.144 72.4992 211.142 72.5006C211.142 72.5034 211.139 72.509 211.138 72.5146C211.134 72.5258 211.127 72.5426 211.12 72.5636C211.104 72.6042 211.083 72.663 211.057 72.7358C211.001 72.8828 210.921 73.09 210.813 73.3462C210.6 73.8572 210.283 74.5628 209.867 75.351C209.048 76.9022 207.789 78.8804 206.094 80.2748C204.386 81.679 202.332 82.4154 200.768 82.8032C199.977 83.0006 199.286 83.1154 198.79 83.1798C198.541 83.212 198.339 83.233 198.198 83.2456C198.126 83.2512 198.07 83.2554 198.03 83.2582C198.01 83.2582 197.995 83.261 197.982 83.261C197.977 83.261 197.971 83.261 197.967 83.261C197.965 83.261 197.963 83.261 197.961 83.261H197.958C197.258 83.2974 196.659 82.7584 196.623 82.0584C196.586 81.3584 197.127 80.7606 197.827 80.7242H197.853C197.879 80.72 197.919 80.7186 197.974 80.713C198.083 80.7032 198.248 80.6864 198.458 80.6584C198.88 80.6038 199.473 80.5058 200.155 80.3364C201.537 79.9934 203.182 79.3788 204.478 78.312C205.789 77.234 206.858 75.603 207.618 74.1624C207.991 73.4554 208.275 72.8198 208.467 72.3634C208.562 72.1352 208.635 71.9546 208.681 71.8314C208.705 71.7698 208.722 71.7222 208.733 71.6928C208.738 71.6788 208.741 71.6676 208.744 71.6606C208.744 71.6578 208.747 71.655 208.747 71.655V71.6578Z" fill="#67B279"/>
<path d="M202.877 70.6274C202.886 69.926 202.323 69.3506 201.622 69.3422C200.964 69.3352 200.418 69.828 200.345 70.4678L200.338 70.598C200.338 70.598 200.338 70.6036 200.338 70.605C200.338 70.6092 200.338 70.6134 200.338 70.6204C200.338 70.633 200.338 70.6512 200.338 70.6722C200.338 70.7156 200.338 70.7772 200.339 70.8556C200.342 71.0124 200.346 71.235 200.36 71.5122C200.387 72.0652 200.444 72.8366 200.567 73.7186C200.81 75.4546 201.321 77.7436 202.439 79.6322C203.566 81.5348 205.248 82.925 206.586 83.8224C207.264 84.2774 207.874 84.6204 208.318 84.85C208.54 84.9648 208.722 85.053 208.853 85.1132C208.917 85.1426 208.97 85.1664 209.007 85.1818C209.025 85.1902 209.039 85.1958 209.05 85.2014C209.056 85.2042 209.061 85.2056 209.064 85.207C209.065 85.207 209.067 85.2084 209.068 85.2098H209.071V85.2126C209.718 85.4856 210.463 85.1818 210.736 84.5364C211.009 83.8896 210.703 83.1434 210.058 82.8718L210.033 82.8606C210.009 82.8508 209.971 82.834 209.922 82.8116C209.823 82.7654 209.673 82.6926 209.485 82.596C209.109 82.4014 208.582 82.1074 208 81.7154C206.817 80.9216 205.48 79.7848 204.623 78.34C203.758 76.8812 203.307 74.9814 203.083 73.3686C202.973 72.5762 202.922 71.8832 202.898 71.389C202.886 71.1426 202.88 70.948 202.877 70.8164C202.877 70.7506 202.877 70.7002 202.877 70.668C202.877 70.6526 202.877 70.6414 202.877 70.6344C202.877 70.6316 202.877 70.6288 202.877 70.6274Z" fill="#67B279"/>
<path d="M188.993 73.9874C189.487 74.0742 189.883 74.4438 190.003 74.931L194.032 91.1093C194.202 91.7897 193.787 92.4799 193.107 92.6493C192.427 92.8187 191.736 92.4043 191.567 91.7239L188.228 78.3176L180.511 89.7849C180.119 90.3659 179.33 90.5213 178.749 90.1308C178.168 89.7388 178.012 88.9492 178.403 88.3682L187.717 74.5306L187.832 74.385C188.122 74.0658 188.559 73.9132 188.991 73.9888L188.993 73.9874Z" fill="#67B279"/>
<path d="M191.25 85.557L190.811 88.0588L181.639 86.4502L182.077 83.9484L191.25 85.557Z" fill="#67B279"/>
<path d="M214.481 70.7226C215.171 70.8444 215.633 71.5024 215.513 72.1926C215.391 72.8828 214.733 73.3448 214.043 73.2244L197.366 70.2984C196.676 70.1766 196.214 69.5186 196.335 68.8284C196.456 68.1382 197.114 67.6762 197.805 67.7966L214.481 70.7226Z" fill="#67B279"/>
<path d="M204.818 69.457L205.256 66.9552C205.378 66.265 206.036 65.803 206.726 65.9234C207.416 66.0438 207.878 66.7032 207.758 67.3934L207.32 69.8952C207.198 70.5854 206.54 71.0474 205.85 70.927C205.16 70.8066 204.698 70.1472 204.818 69.457Z" fill="#67B279"/>
<path d="M77.4045 62.5116C78.3621 76.3702 90.045 87.6051 103.499 87.6051C116.953 87.6051 127.083 76.3702 126.126 62.5116C125.168 48.6531 113.485 37.4181 100.031 37.4181C86.5772 37.4181 76.4469 48.6531 77.4045 62.5116Z" fill="#708794"/>
<path d="M79.6222 62.002C80.5798 75.8606 92.2628 87.0955 105.717 87.0955C119.171 87.0955 129.301 75.8606 128.343 62.002C127.386 48.1435 115.703 36.9085 102.249 36.9085C88.795 36.9085 78.6646 48.1435 79.6222 62.002Z" fill="#D9D9D9"/>
<path d="M82.9544 62.002C83.7804 73.965 93.8646 83.6614 105.479 83.6614C117.092 83.6614 125.836 73.9636 125.01 62.002C124.184 50.0391 114.1 40.3427 102.486 40.3427C90.8728 40.3427 82.1284 50.0405 82.9544 62.002Z" fill="#EBEBEB"/>
<path d="M113.216 47.1257C113.552 46.6497 114.21 46.5349 114.686 46.8709C115.162 47.2069 115.277 47.8649 114.941 48.3409L95.4307 76.0384C95.0947 76.5144 94.4367 76.6292 93.9607 76.2932C93.4847 75.9572 93.3699 75.2992 93.7059 74.8232L98.5737 67.9114C96.9987 67.0252 94.9379 65.4838 92.4207 63.3348C92.0147 62.989 91.9308 62.3941 92.2248 61.9503C95.5245 56.9649 99.2359 54.0193 103.412 53.5461C105.021 53.3641 106.654 53.5573 108.302 54.1033L113.218 47.1285L113.216 47.1257ZM110.52 56.2033C110.832 55.7119 111.483 55.5649 111.974 55.8771C113.369 56.7605 114.777 57.8805 116.197 59.2301C116.561 59.5759 116.629 60.1317 116.362 60.5559C113.094 65.747 109.396 68.8228 105.199 69.2988C104.513 69.3772 103.82 69.3842 103.122 69.3212C102.543 69.2694 102.113 68.7556 102.166 68.176C102.218 67.5964 102.732 67.1666 103.311 67.2198C103.87 67.2702 104.42 67.2646 104.962 67.203C108.054 66.8516 111.119 64.6438 114.1 60.1653C112.987 59.1615 111.902 58.3271 110.847 57.6593C110.355 57.3471 110.209 56.6961 110.52 56.2033ZM103.649 55.6419C100.555 55.9933 97.4943 58.1031 94.5137 62.3381C96.7887 64.2392 98.5429 65.502 99.7945 66.1754L101.316 64.0152C100.867 63.4622 100.563 62.7791 100.478 62.0189C100.237 59.8965 101.763 57.9799 103.885 57.7391C104.485 57.6705 105.067 57.7461 105.6 57.9337L107.017 55.9233C105.852 55.6111 104.731 55.5201 103.646 55.6433L103.649 55.6419ZM102.597 61.9153L104.063 59.8433C103.131 59.9819 102.469 60.8345 102.575 61.7795C102.581 61.8257 102.589 61.8705 102.597 61.9153Z" fill="#67B279"/>
<path d="M170.807 124.011C163.847 124.352 156.458 124.536 148.802 124.536C136.581 124.536 125.042 124.067 114.848 123.235C119.909 113.002 130.455 105.966 142.643 105.966C154.832 105.966 165.904 113.359 170.807 124.011Z" fill="#D9D9D9"/>
<path d="M167.648 124.1C161.474 124.384 154.92 124.536 148.127 124.536C137.285 124.536 127.05 124.146 118.006 123.456C122.496 114.964 131.852 109.124 142.664 109.124C153.476 109.124 163.3 115.261 167.648 124.1Z" fill="#EBEBEB"/>
<path d="M167.648 124.1C164.622 124.239 161.502 124.347 158.309 124.421C157.497 124.439 156.679 124.456 155.858 124.468C153.322 124.513 150.743 124.536 148.128 124.536C146.606 124.536 145.097 124.527 143.602 124.513C142.78 124.505 141.964 124.494 141.151 124.481C136.937 124.415 132.837 124.291 128.894 124.111C128.069 124.075 127.251 124.034 126.442 123.992C123.533 123.843 120.716 123.663 118.006 123.456C122.496 114.964 131.852 109.124 142.664 109.124C153.476 109.124 163.3 115.261 167.648 124.1Z" fill="#EBEBEB"/>
<path d="M153.815 116.358H130.936C128.454 116.358 126.442 118.37 126.442 120.852V123.992C127.252 124.034 128.069 124.075 128.894 124.111V120.852C128.894 119.724 129.808 118.81 130.936 118.81H153.815C154.943 118.81 155.858 119.724 155.858 120.852V124.468C156.679 124.456 157.497 124.439 158.309 124.421V120.852C158.309 118.37 156.297 116.358 153.815 116.358Z" fill="#67B279"/>
<path d="M143.602 122.944V124.513C142.78 124.505 141.964 124.494 141.15 124.481V122.944C141.15 122.268 141.699 121.719 142.375 121.719C143.052 121.719 143.602 122.268 143.602 122.944Z" fill="#67B279"/>
</svg>
