<svg width="300" height="300" viewBox="0 0 300 300" fill="none" xmlns="http://www.w3.org/2000/svg">
<path d="M213.246 196.079C213.67 196.04 214.045 196.351 214.085 196.774C214.125 197.197 213.814 197.573 213.39 197.613C212.071 197.736 210.709 197.811 209.303 197.833C207.828 197.856 206.375 197.82 204.944 197.726C204.52 197.698 204.198 197.332 204.226 196.907C204.254 196.483 204.62 196.162 205.044 196.189C206.434 196.28 207.845 196.316 209.279 196.293C210.646 196.271 211.968 196.199 213.246 196.079ZM187.659 192.766C187.822 192.373 188.272 192.186 188.665 192.349C191.247 193.416 193.923 194.291 196.696 194.943C197.11 195.041 197.366 195.455 197.269 195.869C197.171 196.283 196.757 196.54 196.343 196.443C193.487 195.77 190.732 194.87 188.077 193.772C187.684 193.61 187.497 193.159 187.659 192.766ZM228.197 191.669C228.569 191.462 229.038 191.596 229.245 191.967C229.451 192.339 229.318 192.808 228.947 193.014C226.664 194.286 224.154 195.335 221.403 196.127C220.995 196.245 220.568 196.009 220.45 195.6C220.333 195.191 220.569 194.765 220.977 194.647C223.619 193.887 226.02 192.881 228.197 191.669ZM173.051 183.876C173.313 183.542 173.797 183.482 174.132 183.744C176.365 185.492 178.692 187.103 181.114 188.547C181.479 188.765 181.599 189.238 181.381 189.603C181.163 189.968 180.69 190.088 180.325 189.87C177.843 188.39 175.463 186.742 173.183 184.957C172.848 184.695 172.789 184.211 173.051 183.876ZM239.467 181.056C239.698 180.699 240.175 180.598 240.532 180.83C240.889 181.061 240.99 181.538 240.758 181.895C239.276 184.175 237.544 186.289 235.54 188.183C235.231 188.475 234.744 188.462 234.451 188.153C234.159 187.844 234.173 187.356 234.482 187.064C236.391 185.259 238.047 183.24 239.467 181.056ZM160.831 171.873C161.153 171.596 161.639 171.632 161.917 171.954C163.767 174.104 165.708 176.18 167.741 178.153C168.046 178.449 168.053 178.937 167.757 179.242C167.461 179.547 166.973 179.554 166.668 179.258C164.6 177.251 162.628 175.14 160.75 172.959C160.472 172.637 160.508 172.151 160.831 171.873ZM245.254 166.516C245.341 166.1 245.749 165.833 246.165 165.92C246.581 166.007 246.849 166.415 246.762 166.831C246.204 169.507 245.444 172.123 244.463 174.63C244.308 175.026 243.861 175.221 243.465 175.066C243.069 174.911 242.873 174.464 243.028 174.068C243.975 171.649 244.712 169.116 245.254 166.516ZM150.717 158.026C151.075 157.796 151.551 157.9 151.781 158.258C153.299 160.623 154.909 162.977 156.613 165.287C156.865 165.63 156.792 166.112 156.45 166.364C156.107 166.616 155.625 166.543 155.373 166.201C153.648 163.862 152.019 161.48 150.485 159.09C150.255 158.732 150.359 158.255 150.717 158.026ZM247.043 149.959C247.468 149.933 247.832 150.257 247.858 150.681C248.018 153.368 248.018 156.085 247.842 158.788C247.815 159.212 247.448 159.534 247.024 159.506C246.6 159.478 246.278 159.112 246.306 158.688C246.477 156.052 246.477 153.398 246.32 150.773C246.295 150.349 246.619 149.984 247.043 149.959ZM233.342 148.874C233.5 148.48 233.949 148.288 234.344 148.446C235.767 149.016 237.256 149.515 238.808 149.93C240.249 150.315 241.637 150.596 242.972 150.781C243.393 150.84 243.687 151.229 243.629 151.65C243.57 152.071 243.181 152.365 242.76 152.307C241.446 152.125 240.09 151.855 238.691 151.491L238.41 151.417C236.798 150.986 235.25 150.468 233.771 149.876C233.376 149.717 233.184 149.269 233.342 148.874ZM259.027 147.529C259.384 147.297 259.861 147.398 260.093 147.754C260.325 148.111 260.224 148.588 259.867 148.82C257.427 150.406 254.685 151.561 251.618 152.151C251.201 152.231 250.797 151.958 250.717 151.541C250.636 151.123 250.91 150.719 251.328 150.639C254.19 150.088 256.747 149.012 259.027 147.529ZM142.331 143.059C142.711 142.869 143.174 143.023 143.365 143.403C144.596 145.861 145.933 148.389 147.377 150.944C147.587 151.314 147.456 151.784 147.086 151.993C146.716 152.203 146.246 152.072 146.037 151.702C144.579 149.123 143.23 146.572 141.988 144.093C141.797 143.712 141.951 143.25 142.331 143.059ZM218.295 137.307C218.629 137.044 219.113 137.102 219.376 137.437C221.189 139.744 223.455 141.957 226.133 143.912C226.477 144.163 226.552 144.644 226.302 144.988C226.051 145.331 225.569 145.407 225.226 145.156C222.435 143.119 220.066 140.808 218.165 138.388C217.902 138.054 217.96 137.569 218.295 137.307ZM243.991 134.265C244.396 134.137 244.829 134.361 244.957 134.767C245.749 137.27 246.401 139.911 246.894 142.636C246.97 143.054 246.692 143.455 246.273 143.531C245.855 143.606 245.454 143.328 245.378 142.91C244.897 140.248 244.26 137.67 243.489 135.231C243.361 134.826 243.586 134.393 243.991 134.265ZM269.624 134.639C269.808 134.256 270.268 134.094 270.651 134.279C271.035 134.463 271.196 134.924 271.011 135.307C269.714 138 268.179 140.541 266.378 142.803C266.113 143.136 265.628 143.191 265.296 142.926C264.963 142.661 264.908 142.177 265.173 141.844C266.891 139.686 268.368 137.247 269.624 134.639ZM135.419 127.362C135.815 127.206 136.261 127.401 136.417 127.797C137.355 130.186 138.454 132.841 139.716 135.678C139.889 136.067 139.714 136.522 139.326 136.695C138.937 136.868 138.482 136.693 138.309 136.304C137.037 133.444 135.929 130.768 134.984 128.36C134.828 127.964 135.023 127.517 135.419 127.362ZM213.752 119.812C213.938 119.43 214.399 119.271 214.781 119.457C215.164 119.643 215.323 120.104 215.137 120.486C213.989 122.845 213.932 125.929 214.967 129.299C215.092 129.705 214.864 130.136 214.457 130.261C214.051 130.386 213.62 130.158 213.495 129.751C212.387 126.141 212.382 122.629 213.752 119.812ZM236.45 120.244C236.776 119.971 237.262 120.015 237.534 120.341C239.161 122.288 240.639 124.614 241.937 127.218C242.127 127.599 241.972 128.062 241.591 128.251C241.211 128.441 240.748 128.286 240.559 127.906C239.304 125.388 237.888 123.167 236.353 121.329C236.08 121.002 236.123 120.517 236.45 120.244ZM274.583 118.331C274.652 117.912 275.049 117.628 275.468 117.697C275.888 117.766 276.172 118.162 276.102 118.582C275.639 121.394 274.995 124.275 274.147 127.113C274.026 127.521 273.597 127.752 273.189 127.631C272.782 127.509 272.55 127.08 272.672 126.673C273.499 123.903 274.129 121.085 274.583 118.331ZM131.246 115.226C131.655 115.109 132.081 115.346 132.198 115.754C132.198 115.755 132.198 115.755 132.198 115.755C132.198 115.756 132.199 115.756 132.199 115.758C132.2 115.76 132.201 115.764 132.202 115.77C132.206 115.781 132.21 115.797 132.217 115.819C132.23 115.863 132.249 115.93 132.276 116.018C132.328 116.194 132.407 116.457 132.513 116.8C132.726 117.486 133.046 118.491 133.477 119.767C133.613 120.17 133.397 120.607 132.994 120.743C132.591 120.879 132.154 120.663 132.018 120.26C131.583 118.971 131.259 117.953 131.042 117.256C130.934 116.907 130.853 116.639 130.799 116.457C130.772 116.366 130.752 116.297 130.738 116.25C130.732 116.227 130.726 116.209 130.723 116.197C130.721 116.191 130.72 116.186 130.719 116.183C130.718 116.181 130.718 116.18 130.718 116.179C130.718 116.179 130.718 116.178 130.717 116.178L130.717 116.178V116.178C130.6 115.769 130.837 115.342 131.246 115.226ZM221.966 114.27C223.449 114.024 225.108 113.954 226.947 114.078C228.367 114.173 229.746 114.542 231.07 115.144C231.457 115.32 231.628 115.777 231.452 116.164C231.276 116.551 230.819 116.722 230.432 116.546C229.262 116.013 228.063 115.697 226.843 115.614C225.104 115.497 223.566 115.566 222.217 115.789C221.798 115.858 221.402 115.575 221.332 115.155C221.263 114.736 221.546 114.339 221.966 114.27ZM276.231 104.758C276.656 104.744 277.012 105.077 277.026 105.502C277.072 106.877 277.067 108.344 277.004 109.878C276.987 110.303 276.628 110.633 276.204 110.616C275.779 110.598 275.448 110.24 275.466 109.815C275.527 108.317 275.532 106.888 275.487 105.553C275.473 105.128 275.806 104.772 276.231 104.758Z" fill="#9AD0D2"/>
<path d="M151.524 118.89C151.944 118.823 152.339 119.108 152.407 119.528C152.609 120.777 152.748 121.762 152.837 122.435C152.881 122.772 152.913 123.031 152.934 123.207C152.944 123.294 152.952 123.361 152.957 123.407C152.96 123.429 152.962 123.447 152.963 123.459C152.963 123.464 152.964 123.469 152.964 123.472C152.964 123.474 152.964 123.475 152.965 123.476C152.965 123.476 152.965 123.477 152.965 123.477V123.477L152.965 123.477L152.968 123.517C152.99 123.924 152.69 124.281 152.28 124.324C151.857 124.369 151.478 124.062 151.433 123.639V123.639C151.433 123.638 151.433 123.637 151.433 123.636C151.433 123.634 151.432 123.63 151.432 123.625C151.431 123.615 151.429 123.599 151.427 123.578C151.422 123.536 151.415 123.472 151.405 123.388C151.385 123.219 151.354 122.966 151.31 122.637C151.223 121.977 151.086 121.007 150.887 119.774C150.819 119.354 151.104 118.958 151.524 118.89ZM24.1668 114.549C24.2813 114.14 24.7061 113.901 25.1157 114.015C25.5252 114.13 25.7644 114.554 25.65 114.964C25.2464 116.408 24.913 117.797 24.6501 119.107C24.5664 119.524 24.1606 119.794 23.7437 119.71C23.3267 119.626 23.0565 119.221 23.1402 118.804C23.411 117.454 23.7537 116.028 24.1668 114.549ZM67.7007 110.511C67.9761 110.187 68.4621 110.148 68.7861 110.423C69.9569 111.419 71.156 112.192 72.3693 112.722V112.722C73.7409 113.321 75.0201 113.732 76.2019 113.977C76.6183 114.064 76.8857 114.472 76.7991 114.888C76.7126 115.304 76.3049 115.572 75.8886 115.485C74.5898 115.215 73.2091 114.77 71.7529 114.134C70.3781 113.533 69.0528 112.671 67.7886 111.597C67.4646 111.321 67.4253 110.835 67.7007 110.511ZM87.4991 105.375C87.9242 105.388 88.2584 105.743 88.2456 106.168C88.1455 109.483 86.8801 112.346 84.5105 114.082C84.1675 114.333 83.6856 114.259 83.4343 113.916C83.183 113.573 83.2573 113.091 83.6004 112.84C85.5004 111.448 86.6168 109.081 86.7062 106.121C86.7191 105.696 87.074 105.362 87.4991 105.375ZM148.022 103.318C148.433 103.205 148.856 103.446 148.969 103.856C149.739 106.661 150.371 109.273 150.888 111.617C150.979 112.032 150.717 112.443 150.302 112.534C149.886 112.626 149.475 112.363 149.384 111.948C148.872 109.627 148.246 107.041 147.484 104.264C147.371 103.854 147.612 103.43 148.022 103.318ZM30.9067 98.4314C31.1187 98.0628 31.5894 97.9357 31.9581 98.1477C32.3267 98.3597 32.4538 98.8305 32.2418 99.1991C30.8006 101.705 29.5401 104.303 28.4652 106.878C28.3014 107.271 27.8505 107.456 27.4581 107.293C27.0656 107.129 26.8802 106.678 27.044 106.285C28.1415 103.655 29.4303 100.999 30.9067 98.4314ZM58.2997 95.3314C58.6949 95.1744 59.1426 95.3673 59.2997 95.7625C60.4553 98.6697 61.7811 101.351 63.2367 103.703C63.4604 104.065 63.3487 104.539 62.987 104.763C62.6254 104.987 62.1508 104.875 61.927 104.514C60.4175 102.074 59.0527 99.3102 57.8686 96.3314C57.7116 95.9362 57.9046 95.4885 58.2997 95.3314ZM80.3573 90.6433C80.6687 90.3538 81.156 90.3716 81.4455 90.6831C83.5783 92.9777 85.187 95.3725 86.3036 97.7354C86.4853 98.1199 86.3209 98.5788 85.9364 98.7605C85.5519 98.9422 85.093 98.7778 84.9113 98.3933C83.8666 96.1828 82.3499 93.9183 80.3175 91.7316C80.028 91.4201 80.0458 90.9328 80.3573 90.6433ZM142.905 88.1951C143.3 88.0386 143.747 88.2322 143.904 88.6275C144.921 91.1973 145.831 93.7237 146.642 96.1691C146.776 96.5727 146.558 97.0085 146.154 97.1424C145.75 97.2764 145.315 97.0578 145.181 96.6542C144.377 94.2341 143.478 91.7351 142.472 89.1945C142.316 88.7991 142.509 88.3516 142.905 88.1951ZM42.0731 84.9462C42.4073 84.6833 42.8914 84.7411 43.1543 85.0753C43.4173 85.4095 43.3596 85.8936 43.0254 86.1566C40.8578 87.8621 38.86 89.8963 37.0384 92.1464C36.7709 92.4769 36.286 92.528 35.9555 92.2604C35.625 91.9929 35.5739 91.508 35.8415 91.1775C37.7226 88.8538 39.8006 86.7343 42.0731 84.9462ZM54.1046 77.8807C54.5267 77.8291 54.9108 78.1295 54.9624 78.5516C54.9953 78.8208 55.0297 79.0898 55.0658 79.3586C56.211 79.2315 57.3843 79.1887 58.5851 79.2387C59.0099 79.2564 59.3401 79.6153 59.3224 80.0402C59.3047 80.4651 58.9458 80.7952 58.5209 80.7775C57.4176 80.7315 56.3396 80.769 55.2868 80.8833C55.6258 83.0563 56.0633 85.2062 56.589 87.3041C56.6923 87.7166 56.4417 88.1348 56.0292 88.2382C55.6167 88.3415 55.1985 88.0909 55.0951 87.6784C54.557 85.5308 54.1094 83.3298 53.7628 81.1048C52.5792 81.3209 51.4291 81.6347 50.3124 82.0357C49.9122 82.1794 49.4712 81.9715 49.3275 81.5713C49.1838 81.1711 49.3917 80.7301 49.7919 80.5864C51.0039 80.1511 52.2541 79.8118 53.5416 79.58C53.504 79.2997 53.4681 79.0192 53.4337 78.7385C53.3821 78.3163 53.6825 77.9323 54.1046 77.8807ZM66.2461 81.5619C66.3997 81.1653 66.8457 80.9684 67.2423 81.122C68.4792 81.6011 69.7372 82.1754 71.0159 82.8504L71.272 82.9867L71.5145 83.118C72.7227 83.7764 73.8607 84.4665 74.9303 85.1825C75.2837 85.419 75.3785 85.8973 75.1419 86.2507C74.9054 86.604 74.427 86.6989 74.0736 86.4623C72.975 85.7268 71.7988 85.0182 70.543 84.3434C69.2286 83.6372 67.9429 83.0448 66.6861 82.558C66.2896 82.4044 66.0926 81.9584 66.2461 81.5619ZM136.013 73.8261C136.384 73.6186 136.854 73.7514 137.061 74.1225C138.385 76.4912 139.604 78.8811 140.724 81.2639C140.905 81.6488 140.74 82.1074 140.355 82.2884C139.97 82.4693 139.511 82.3041 139.33 81.9192C138.224 79.5665 137.022 77.2089 135.717 74.8741C135.509 74.5029 135.642 74.0336 136.013 73.8261ZM53.7758 60.5806C53.8525 60.1623 54.2538 59.8852 54.6721 59.9619C55.0904 60.0386 55.3673 60.44 55.2907 60.8582C54.7719 63.6889 54.5054 66.6532 54.4651 69.6738C54.4595 70.099 54.1101 70.4391 53.6849 70.4334C53.2597 70.4277 52.9196 70.0785 52.9253 69.6533C52.9666 66.5568 53.2397 63.5057 53.7758 60.5806ZM127.02 60.6746C127.35 60.407 127.835 60.458 128.103 60.7884C129.802 62.8863 131.388 65.0547 132.869 67.2679C133.106 67.6214 133.011 68.0997 132.657 68.3361C132.304 68.5726 131.826 68.4778 131.589 68.1244C130.133 65.9472 128.574 63.8168 126.906 61.7577C126.638 61.4273 126.689 60.9423 127.02 60.6746ZM115.633 49.5458C115.897 49.2127 116.382 49.157 116.715 49.4214C118.837 51.1056 120.838 52.905 122.724 54.7957C123.025 55.0967 123.024 55.5843 122.723 55.8847C122.422 56.185 121.934 56.1844 121.634 55.8834C119.787 54.0324 117.831 52.2729 115.757 50.6277C115.424 50.3633 115.369 49.8789 115.633 49.5458ZM61.3761 44.055C61.6642 43.7422 62.1514 43.7223 62.4642 44.0104C62.7769 44.2986 62.7969 44.7857 62.5088 45.0984C60.5745 47.1981 59.0203 49.6725 57.8123 52.4221C57.6413 52.8114 57.1869 52.9884 56.7976 52.8174C56.4083 52.6463 56.2313 52.192 56.4023 51.8026C57.6689 48.9197 59.3112 46.2964 61.3761 44.055ZM101.925 41.4903C102.096 41.1007 102.55 40.9232 102.939 41.0938C105.445 42.1909 107.829 43.4367 110.096 44.8101C110.46 45.0305 110.576 45.504 110.355 45.8678C110.135 46.2314 109.662 46.3476 109.298 46.1272C107.087 44.788 104.764 43.5737 102.322 42.5044C101.932 42.3339 101.755 41.8798 101.925 41.4903ZM77.7702 36.3057C78.1936 36.2657 78.5693 36.5765 78.6093 36.9998C78.6493 37.4232 78.3385 37.7989 77.9152 37.8389C74.7287 38.14 71.9283 38.8962 69.4793 40.023C69.093 40.2007 68.6357 40.0315 68.458 39.6452C68.2803 39.2589 68.4493 38.8017 68.8356 38.6239C71.4547 37.4189 74.4255 36.6218 77.7702 36.3057ZM86.0466 37.2185C86.1031 36.797 86.4907 36.5011 86.9121 36.5577C88.3617 36.7522 89.8635 37.0182 91.4188 37.3594C92.7557 37.6527 94.0644 37.9848 95.3456 38.3538C95.7542 38.4714 95.9901 38.8981 95.8725 39.3067C95.7548 39.7154 95.3281 39.9513 94.9194 39.8336C93.6701 39.4739 92.3934 39.1499 91.0888 38.8637C89.5724 38.5311 88.1124 38.2725 86.7073 38.084C86.2859 38.0275 85.99 37.6399 86.0466 37.2185Z" fill="#9AD0D2"/>
<path d="M128.086 211.924C125.181 216.186 113.348 213.111 101.717 205.183C90.0844 197.255 84.1932 183.805 87.0982 179.543C90.0032 175.282 100.604 181.82 112.237 189.749C123.869 197.678 130.991 207.664 128.086 211.925V211.924Z" fill="#5C668A"/>
<path d="M126.279 211.661C123.374 215.922 112.09 213.811 100.457 205.882C88.8244 197.953 83.9678 186.125 86.8728 181.862C89.7778 177.6 99.3455 182.518 110.977 190.446C122.609 198.375 129.184 207.398 126.279 211.659V211.661Z" fill="#3F4661"/>
<path d="M104.154 169.941C104.154 169.941 102.886 157.031 105.338 146.531C110.853 122.918 102.219 114.234 104.255 110.285C106.29 106.334 116.252 111.808 119.458 122.735C122.664 133.662 123.376 135.975 123.376 135.975C123.376 135.975 128.794 120.1 130.112 113.158C131.429 106.215 135.02 79.7589 140.287 78.5619C145.554 77.3649 146.99 83.3499 146.99 86.5825C146.99 86.5825 148.088 71.272 154.56 70.537C161.034 69.802 160.245 82.5449 160.245 82.5449C160.245 82.5449 164.329 74.4585 170.62 77.8073C176.91 81.1561 177.426 103.621 177.426 103.621C177.426 103.621 181.806 91.7724 188.18 92.5102C194.554 93.2466 189.62 135.635 189.62 135.635L156.083 179.419C156.083 179.419 147.774 190.525 132.172 199.758C124.565 204.26 110.084 236.72 110.084 236.72C110.084 236.72 99.3002 244.911 88.2989 245.534C71.7228 246.473 52.5077 239.657 61.465 227.365C81.9723 199.222 104.153 169.942 104.153 169.942L104.154 169.941Z" fill="#D48C13"/>
<path opacity="0.36" d="M122.782 134.002L122.521 141.067C118.502 117.02 104.906 109.739 104.733 109.648C107.526 107.051 116.454 112.502 119.457 122.735C121.223 128.752 122.232 132.157 122.782 134.002Z" fill="#B45F00"/>
<path d="M123.347 143.431C123.347 143.431 136.714 162.907 129.811 179.914C129.811 179.914 137.088 174.646 135.047 161.505C133.005 148.365 123.348 143.433 123.348 143.433L123.347 143.431Z" fill="#B45F00"/>
<path d="M145.202 109.646C145.202 109.646 143.002 130.788 141.445 134.823C139.888 138.858 144.866 142.219 146.63 137.358C148.394 132.499 149.257 114.343 149.257 114.343L145.202 109.646Z" fill="#B45F00"/>
<path d="M103.977 111.175C103.977 111.175 108.734 113.415 108.263 121.611C108.263 121.611 107.324 114.042 104.224 113.816C104.224 113.816 103.817 112.427 103.977 111.175Z" fill="#B45F00"/>
<path opacity="0.36" d="M157.432 177.657L156.084 179.417C156.084 179.417 147.775 190.523 132.173 199.757C127.485 202.531 120.188 215.922 115.278 225.791L112.708 227.683L80.5957 201.383C84.6487 195.928 88.44 190.848 91.7468 186.433C95.706 191.517 104.702 199.782 120.065 197.062C141.811 193.213 156.322 171.364 156.322 171.364L157.432 177.657Z" fill="#B45F00"/>
<path opacity="0.36" d="M128.249 203.605C124.963 207.767 121.224 214.298 117.995 220.463L84.2832 196.424C86.3622 193.634 88.346 190.978 90.1982 188.5C93.3203 191.45 104.446 201.248 117.119 203.941C120.776 204.718 124.582 204.452 128.249 203.605Z" fill="#B45F00"/>
<path opacity="0.36" d="M148.361 153.621C139.056 153.878 128.894 137.742 128.894 137.742C128.894 137.742 135.164 120.173 135.406 101.707C135.647 83.3849 141.813 78.4905 141.909 78.4163C145.856 78.6641 146.99 83.7083 146.99 86.5811C146.99 86.5811 157.665 153.363 148.361 153.621Z" fill="#B45F00"/>
<path opacity="0.36" d="M160.245 82.5449L159.454 100.27L150.358 101.507C150.358 101.507 150.748 87.2195 151.446 79.3459C152.145 71.4722 155.817 70.572 155.817 70.572C160.927 71.5254 160.245 82.5449 160.245 82.5449Z" fill="#B45F00"/>
<path opacity="0.36" d="M177.426 103.619C177.426 103.619 167.84 123.322 166.672 99.9148C165.505 76.5081 170.62 77.8073 170.62 77.8073C176.909 81.1561 177.426 103.619 177.426 103.619Z" fill="#B45F00"/>
<path opacity="0.36" d="M191.226 115.829C188.548 116.571 182.103 117.554 182.6 106.796C183.204 93.7883 187.554 92.4359 188.179 92.5087C191.514 92.8937 191.754 104.678 191.226 115.829Z" fill="#B45F00"/>
<path opacity="0.36" d="M101.695 173.194C101.695 173.194 107.239 178.52 109.493 174.682C110.651 172.711 104.004 167.92 104.004 167.92L104.154 169.942L101.695 173.196V173.194Z" fill="#B45F00"/>
<path opacity="0.4" d="M123.05 154.006C122.061 152.503 115.33 146.628 115.33 157.116C115.33 167.605 124.454 182.161 125.137 173.859C125.82 165.522 125.752 158.208 123.05 154.006Z" fill="#E2A040"/>
<path opacity="0.36" d="M104.622 150.291C104.814 149.022 105.05 147.76 105.337 146.531C107.888 135.612 107.412 127.886 106.366 122.343C108.802 123.74 111.587 126.624 112.217 132.559C113.386 143.577 104.622 150.291 104.622 150.291Z" fill="#B45F00"/>
<path d="M87.0976 179.542C87.0976 179.542 84.6447 192.056 95.345 200.511C107.539 210.147 123.727 215.637 128.087 211.924L109.698 240.368C109.698 240.368 101.91 246.073 87.2712 246.529C75.8233 246.886 62.1046 243.235 52.0357 234.498C50.3935 233.073 50.0883 230.642 51.3399 228.864C58.0838 219.278 79.2547 189.296 87.099 179.543L87.0976 179.542Z" fill="#5C668A"/>
<path d="M105.298 242.73C101.566 244.357 95.5008 246.273 87.2716 246.529C75.8237 246.886 62.105 243.235 52.0347 234.496C50.3939 233.073 50.0887 230.641 51.3389 228.863C58.0827 219.277 79.2537 189.294 87.0979 179.542C87.0979 179.542 85.0035 190.229 93.1292 198.523C91.1328 209.145 90.6512 224.234 99.509 236.256C101.462 238.906 103.401 241.034 105.298 242.73Z" fill="#515C82"/>
<path d="M86.9453 184.809C80.5123 192.507 63.2572 214.884 63.078 233.626C63.05 236.633 63.2516 239.356 63.6254 241.817C59.4856 239.963 55.5389 237.537 52.0347 234.496C50.3939 233.073 50.0887 230.641 51.3389 228.863C58.0827 219.277 79.2537 189.294 87.0979 179.542C87.0979 179.542 86.6765 181.691 86.9453 184.809Z" fill="#495375"/>
<path d="M185.412 103.818C185.412 103.818 185.983 94.9854 188.853 91.5372C190.718 89.2972 196.234 88.789 195.806 92.7174C195.524 95.2906 195.778 102.702 195.834 108.637C195.863 111.763 197.28 117.066 197.095 118.45C196.559 122.462 199.443 140.699 199.443 140.699L184.989 138.662L185.412 103.818Z" fill="#E8D4BA"/>
<path opacity="0.4" d="M197.095 118.451C197.095 118.451 192.446 118.025 192.17 122.582C191.896 127.141 193.209 130.1 191.442 130.1C190.682 130.1 187.983 127.81 185.153 125.2L185.412 103.818C185.412 103.818 185.984 94.9854 188.854 91.5371C189.929 90.2463 192.218 89.5295 193.881 89.9089C193.881 89.9089 187.98 89.8067 189.822 102.547C190.766 109.068 193.441 110.541 195.949 110.325C196.286 113.398 197.251 117.293 197.095 118.451Z" fill="#CEB79B"/>
<path d="M189.273 127.958C188.197 124.716 186.737 118.704 185.309 112.332L185.412 103.818C185.412 103.818 185.45 103.244 185.552 102.33C185.779 103.007 186.018 103.696 186.269 104.392C188.422 110.367 187.026 118.006 190.826 124.699C193.966 130.233 190.826 132.63 189.273 127.958Z" fill="#CEB79B"/>
<path d="M170.296 94.7838C170.296 94.7838 169.651 83.9477 172.629 79.3473C174.562 76.3583 180.362 74.0091 180.362 78.9399C180.362 82.1123 182.768 91.9782 183.739 99.198C184.25 103.002 186.783 109.261 186.767 110.974C186.723 115.935 193.01 137.743 193.01 137.743L175.075 137.28L170.299 94.7852L170.296 94.7838Z" fill="#E8D4BA"/>
<path opacity="0.4" d="M180.361 117.695C181.23 125.387 182.884 131.689 181.622 132.529C181.152 132.843 178.051 132.016 174.349 130.855L170.296 94.7852C170.296 94.7852 169.651 83.9477 172.629 79.3473C173.714 77.6715 176.013 76.1959 177.824 76.0937C177.824 76.0937 169.207 82.8543 176.734 97.826C178.99 102.317 181.604 101.526 183.763 99.3745C184.326 103.191 186.781 109.289 186.766 110.974C186.766 111.017 186.766 111.063 186.767 111.109C183.813 111.433 179.805 112.77 180.361 117.695Z" fill="#CEB79B"/>
<path d="M179.245 130.33C177.84 126.096 174.755 117.157 171.878 108.865L170.296 94.7852C170.296 94.7852 170.095 91.407 170.436 87.6213C170.842 91.148 172.039 97.3752 175.513 106.008C177.883 111.899 175.104 113.909 180.796 127.072C183.322 132.912 180.796 135.002 179.245 130.33Z" fill="#CEB79B"/>
<path d="M156.385 88.0203C156.385 88.0203 155.705 76.5809 158.847 71.7242C160.888 68.5686 167.909 67.1028 167.986 72.217C168.036 75.5659 169.55 85.0579 170.575 92.681C171.114 96.6962 173.788 103.304 173.771 105.112C173.723 110.349 180.361 133.371 180.361 133.371L160.37 144.731L156.385 88.0203Z" fill="#E8D4BA"/>
<path opacity="0.4" d="M174.904 112.306C172.603 112.141 166.196 112.373 166.271 120.109C166.365 129.535 167.324 136.106 165.351 136.234C164.906 136.263 162.697 134.998 159.547 133.019L156.386 88.0203C156.386 88.0203 155.704 76.5808 158.847 71.7242C160.257 69.5458 164.04 68.1724 166.271 69.2154C166.271 69.2154 156.628 73.3692 160.601 88.4039C163.83 100.622 170.585 101.753 173.001 101.749C173.45 103.248 173.777 104.476 173.771 105.112C173.758 106.506 174.219 109.16 174.904 112.306Z" fill="#CEB79B"/>
<path d="M162.667 133.222C162.198 128.98 160.446 117.429 157.723 107.055L156.386 88.0203C156.386 88.0203 156.132 83.7671 156.647 79.3459C157.149 83.5487 158.39 91.4756 161.388 102.33C162.158 105.12 162.319 108.845 162.487 111.812C162.847 118.135 164.504 125.542 165.851 130.441C167.615 136.857 163.3 138.95 162.667 133.222Z" fill="#CEB79B"/>
<path d="M114.257 135.461C114.257 135.461 112.936 130.274 122.956 130.739C130.598 131.093 145.951 149.762 146.99 150.093C148.029 150.422 145.653 130.442 144.957 113.891C144.292 98.0892 142.771 80.4085 145.219 76.4073C147.592 72.532 153.871 72.819 154.273 73.631C154.483 74.0538 155.421 81.1631 156.919 89.3868C158.297 96.9482 158.699 98.9726 159.449 105.481C160.675 116.124 163.956 140.701 163.956 140.701C163.956 140.701 197.245 122.074 198.781 134.921C200.317 147.767 206.71 171.385 207.958 180.012C209.207 188.639 220.247 209.151 220.247 209.151L176.399 221.458C176.399 221.458 170.439 203.826 164.748 199.107C159.057 194.387 143.328 185.047 137.224 170.39C130.033 153.124 119.88 139.999 114.255 135.462L114.257 135.461Z" fill="#E8D4BA"/>
<path opacity="0.4" d="M220.247 209.148L176.399 221.455C176.399 221.455 170.439 203.824 164.748 199.104C159.057 194.385 143.328 185.044 137.225 170.387C137.05 169.967 136.874 169.549 136.694 169.134C141.474 163.635 147.658 153.15 136.909 143.433C127.799 135.198 119.501 134.075 114.216 134.544C114.368 133.077 115.635 130.399 122.955 130.737C130.596 131.092 145.95 149.762 146.99 150.091C148.029 150.42 145.652 130.441 144.956 113.89C144.291 98.0892 142.769 80.4071 145.218 76.4059C147.591 72.5306 153.87 72.8176 154.273 73.6296C154.273 73.6296 141.083 72.8148 147.406 93.6078C150.435 103.573 156.209 105.102 159.407 105.119C160.908 105.127 161.895 104.785 161.895 104.785L161.297 112.04C161.297 112.04 160.905 112.085 160.262 112.218C157.226 112.845 148.597 115.448 149.257 124.706C150.025 135.49 152.937 180.247 208.833 183.698C211.771 193.4 220.247 209.148 220.247 209.148Z" fill="#CEB79B"/>
<path d="M149.132 76.6341C146.462 81.3745 151.05 86.5028 154.561 84.6478C154.561 84.6478 152.37 85.4052 150.311 81.9247C148.251 78.4429 149.132 76.6355 149.132 76.6355V76.6341Z" fill="#CEB79B"/>
<path d="M162.928 71.8209C159.088 76.0867 162.631 82.4231 166.673 81.3213C166.673 81.3213 164.243 81.5971 162.924 77.5385C161.605 73.4799 162.928 71.8209 162.928 71.8209Z" fill="#CEB79B"/>
<path d="M176.523 79.6763C173.216 83.3514 176.267 88.8086 179.749 87.8594C179.749 87.8594 177.654 88.0974 176.519 84.6016C175.384 81.1057 176.523 79.6763 176.523 79.6763Z" fill="#CEB79B"/>
<path d="M192.067 91.6716C189 94.2952 190.484 99.0497 193.268 98.6535C193.268 98.6535 191.644 98.6213 191.315 95.6645C190.986 92.7076 192.067 91.6716 192.067 91.6716Z" fill="#CEB79B"/>
<path d="M125.768 139.763C124.856 136.268 119.431 134.284 115.708 134.604C115.708 134.604 118.897 132.248 121.573 133.609C126.501 136.116 125.768 139.765 125.768 139.765V139.763Z" fill="#CEB79B"/>
<path opacity="0.4" d="M152.199 160.353C148.076 160.353 143.533 146.622 143.533 146.622C145.423 148.617 146.714 150.003 146.99 150.091C147.628 150.293 146.976 142.821 146.217 133.187C146.283 133.362 156.308 160.353 152.199 160.353Z" fill="#CEB79B"/>
<path d="M148.95 153.609C146.732 153.912 145.202 148.383 145.202 148.383C146.17 149.394 146.805 150.032 146.99 150.091C147.329 150.198 147.304 148.149 147.094 144.767C147.375 145.363 151.086 153.318 148.95 153.609Z" fill="#CEB79B"/>
<path d="M204.878 165.19C204.878 165.19 200.112 159.726 183.43 164.644C183.43 164.644 198.558 163.979 206.019 170.247L204.878 165.19Z" fill="#CEB79B"/>
<path d="M204.287 190.22L169.95 206.341C168.315 203.292 166.519 200.573 164.748 199.104C162.264 197.043 157.864 194.102 153.189 190.221C153.451 190.306 178.553 198.597 204.287 190.22Z" fill="#CEB79B"/>
<path d="M132.578 160.49C129.298 154.231 125.778 148.803 122.521 144.502C134.173 146.504 133.256 155.179 132.578 160.49Z" fill="#EDDAC5"/>
<path d="M156.85 140.143C155.641 142.811 162.223 146.052 164.841 144.934C166.181 144.361 166.996 143.291 166.683 141.756C166.265 139.695 162.861 138.578 161.74 138.383C159.634 138.05 157.474 138.719 156.851 140.14L156.848 140.143H156.85Z" fill="#EDDAC5"/>
<path d="M174.649 137.042C173.444 139.03 178.443 141.614 180.878 140.689C181.592 140.424 182.823 139.245 182.48 137.973C182.127 136.665 180.367 135.958 179.311 135.794C177.33 135.513 175.27 135.982 174.647 137.042H174.649Z" fill="#EDDAC5"/>
<path d="M191.436 136.031C190.05 137.751 193.453 138.593 195.543 138.139C196.154 138.013 196.9 137.76 196.938 137.284C197.012 136.659 196.092 136.028 195.319 135.677C193.856 135.033 192.158 135.112 191.437 136.031H191.436Z" fill="#EDDAC5"/>
<path d="M249.548 248.828C246.122 264.504 209.606 271.237 185.749 255.791C175.398 249.08 169.177 223.883 164.714 213.803C157.198 196.836 207.828 176.668 217.016 192.79C221.581 200.819 251.085 241.792 249.552 248.831L249.549 248.828H249.548Z" fill="#9EA58E"/>
<path d="M249.551 248.831L249.548 248.828C246.122 264.504 209.606 271.237 185.749 255.791C175.398 249.08 169.177 223.883 164.714 213.803C162.693 209.239 164.877 204.444 169.332 200.185C177.292 212.27 197.563 238.269 225.445 239.863C233.701 240.334 240.113 239.135 245.09 236.995C248.11 242.541 249.965 246.927 249.551 248.831Z" fill="#949984"/>
<path d="M172.632 206.492C176.116 205.099 178.401 209.391 176.255 210.975C173.16 213.258 169.72 207.657 172.632 206.492Z" fill="#676D54"/>
<path d="M187.481 229.769C188 231.001 188.213 232.081 187.277 233.068C184.803 235.671 179.043 228.374 183.816 227.404C185.347 227.093 187.018 228.668 187.481 229.769Z" fill="#676D54"/>
<path d="M198.122 254.018C193.568 253.733 192.589 245.916 196.796 247.402C199.281 248.116 201.838 253.836 198.122 254.018Z" fill="#676D54"/>
<path d="M198.36 253.997C198.283 254.007 198.203 254.014 198.121 254.018C194.196 253.773 192.927 247.932 195.344 247.276C195.26 247.4 195.188 247.546 195.126 247.712C194.166 250.378 195.675 253.121 198.36 253.997Z" fill="#474C2F"/>
<path d="M187.161 233.178C184.805 235.296 179.86 229.29 182.986 227.683C182.841 228.278 182.862 228.961 183.16 229.731C183.955 231.787 185.813 232.744 187.161 233.176V233.178Z" fill="#474C2F"/>
<path d="M175.856 211.225C172.876 212.788 169.845 207.608 172.632 206.493C172.787 206.43 172.94 206.38 173.091 206.341C172.617 207.202 172.288 208.358 172.926 209.477C173.564 210.594 174.802 211.049 175.856 211.227V211.225Z" fill="#474C2F"/>
<path d="M228.445 210.266C224.704 210.898 220.201 210.776 214.785 209.544C195.039 205.056 186.425 196.847 182.809 191.638C196.043 185.856 212.206 184.352 217.015 192.791C218.6 195.579 223.19 202.337 228.445 210.266Z" fill="#B1B7A5"/>
<path opacity="0.14" d="M236.237 261.249C222.611 266.515 201.441 265.95 185.75 255.791C179.313 251.617 174.473 240.295 170.659 229.904C179.552 239.65 196.891 255.095 220.248 259.104C226.381 260.157 231.674 260.839 236.237 261.249Z" fill="#474C2F"/>
<path opacity="0.14" d="M190.317 258.409C188.753 257.619 187.227 256.747 185.75 255.791C175.398 249.08 169.178 223.883 164.715 213.803C163.446 210.94 163.833 207.984 165.398 205.128C168.157 207.277 173.899 212.221 173.693 215.994C173.423 220.954 171.568 226.098 177.088 231.885C182.608 237.672 183.099 239.601 182.808 246.674C182.635 250.886 186.867 255.425 190.317 258.409Z" fill="#474C2F"/>
<path d="M68.7309 148.371C70.1547 152.729 73.3635 156.255 77.4669 158.124C73.4405 160.019 70.3339 163.507 68.9325 167.754C67.5073 163.397 64.3026 159.87 60.1992 158.003C64.2242 156.108 67.3309 152.617 68.7309 148.372V148.371Z" fill="#65C2C9"/>
<path d="M234.403 65.091C235.827 69.4492 239.035 72.9759 243.139 74.8449C239.112 76.7391 236.006 80.2279 234.604 84.4741C233.179 80.1173 229.975 76.5907 225.871 74.7231C229.896 72.8289 233.003 69.3372 234.403 65.0924V65.091Z" fill="#65C2C9"/>
<path d="M148.332 230.792C150.844 230.792 152.88 228.756 152.88 226.245C152.88 223.733 150.844 221.698 148.332 221.698C145.821 221.698 143.785 223.733 143.785 226.245C143.785 228.756 145.821 230.792 148.332 230.792Z" fill="#D8EEF0"/>
<path d="M220.247 64.1292C222.343 64.1292 224.042 62.4299 224.042 60.3338C224.042 58.2376 222.343 56.5383 220.247 56.5383C218.15 56.5383 216.451 58.2376 216.451 60.3338C216.451 62.4299 218.15 64.1292 220.247 64.1292Z" fill="#D8EEF0"/>
<path d="M158.148 34.9042C159.108 34.7879 159.98 35.4715 160.096 36.4309L162.361 55.1224C162.477 56.0819 161.794 56.954 160.834 57.0703C159.875 57.1865 159.003 56.503 158.886 55.5435L156.621 36.852C156.505 35.8925 157.189 35.0205 158.148 34.9042Z" fill="#65C2C9"/>
<path d="M104.185 83.0483C104.612 82.1813 105.661 81.8249 106.528 82.2521L123.416 90.5751C124.283 91.0023 124.64 92.0515 124.212 92.9185C123.785 93.7854 122.736 94.1418 121.869 93.7146L104.981 85.3915C104.114 84.9642 103.757 83.9152 104.185 83.0483Z" fill="#65C2C9"/>
<path d="M189.267 40.5882C189.901 39.8587 191.006 39.7812 191.736 40.4151C192.465 41.0491 192.543 42.1545 191.909 42.884L175.882 61.3278C175.248 62.0573 174.142 62.1347 173.413 61.5007C172.683 60.8668 172.606 59.7615 173.24 59.032L189.267 40.5882Z" fill="#65C2C9"/>
</svg>
