<svg width="241" height="241" viewBox="0 0 241 241" fill="none" xmlns="http://www.w3.org/2000/svg">
<path d="M59.6042 94.4006C59.668 94.1065 59.9582 93.9199 60.2523 93.9837C61.1589 94.1805 62.0854 94.3431 63.0324 94.4695C64.0858 94.61 65.1058 94.6992 66.0928 94.7401C66.3934 94.7526 66.627 95.0065 66.6145 95.3072C66.6021 95.6078 66.3483 95.8415 66.0476 95.829C65.0262 95.7866 63.9732 95.6944 62.8883 95.5496C61.9122 95.4194 60.9566 95.2516 60.0211 95.0486C59.7271 94.9847 59.5403 94.6946 59.6042 94.4006ZM77.9372 92.4222C78.2064 92.2879 78.5336 92.3974 78.668 92.6666C78.8023 92.9359 78.693 93.2631 78.4237 93.3974C76.5951 94.3097 74.5822 94.994 72.3771 95.406C72.0813 95.4613 71.7967 95.2663 71.7414 94.9705C71.6861 94.6747 71.8812 94.3902 72.1769 94.3349C74.2844 93.9411 76.2008 93.2885 77.9372 92.4222ZM49.0899 90.0252C49.2448 89.7672 49.5794 89.6836 49.8375 89.8384C51.4337 90.7962 53.1112 91.6364 54.8737 92.3397C55.1531 92.4513 55.2892 92.7682 55.1777 93.0477C55.0662 93.3272 54.7492 93.4634 54.4698 93.3519C52.6507 92.626 50.921 91.7594 49.2768 90.7729C49.0188 90.618 48.9351 90.2833 49.0899 90.0252ZM86.7735 84.2777C86.9356 84.0241 87.2725 83.95 87.5261 84.1121C87.7796 84.2742 87.8537 84.6111 87.6916 84.8646C86.5428 86.6616 85.1986 88.3141 83.6458 89.7624C83.4257 89.9676 83.0809 89.9556 82.8757 89.7356C82.6704 89.5155 82.6825 89.1707 82.9025 88.9655C84.3822 87.5854 85.6691 86.0052 86.7735 84.2777ZM40.3371 82.7139C40.5555 82.5069 40.9004 82.5162 41.1074 82.7347C42.4072 84.1067 43.7821 85.3979 45.2357 86.5885C45.4685 86.7792 45.5026 87.1225 45.312 87.3553C45.1213 87.5881 44.7781 87.6222 44.5453 87.4315C43.0534 86.2097 41.6451 84.8868 40.3163 83.4842C40.1094 83.2657 40.1187 82.9208 40.3371 82.7139ZM91.2197 72.9135C91.2802 72.6188 91.5684 72.4289 91.8631 72.4895C92.1578 72.5501 92.3477 72.8382 92.2871 73.1329C91.8615 75.2041 91.2788 77.2432 90.5274 79.199C90.4194 79.4799 90.1042 79.6201 89.8233 79.5122C89.5424 79.4043 89.4022 79.089 89.5101 78.8081C90.2384 76.9126 90.805 74.9312 91.2197 72.9135ZM33.4662 73.5877C33.7208 73.4273 34.0572 73.5036 34.2176 73.7582C35.2257 75.3577 36.3006 76.9179 37.446 78.4188C37.6285 78.658 37.5826 79 37.3433 79.1825C37.1041 79.3651 36.7622 79.3192 36.5797 79.08C35.4129 77.551 34.3197 75.9638 33.2958 74.3392C33.1353 74.0846 33.2117 73.7482 33.4662 73.5877ZM28.1656 63.4545C28.4401 63.3313 28.7626 63.4538 28.8859 63.7283C29.6536 65.4373 30.483 67.1482 31.3782 68.8395C31.519 69.1055 31.4175 69.4353 31.1515 69.576C30.8856 69.7168 30.5559 69.6153 30.4151 69.3494C29.508 67.6355 28.6683 65.9035 27.8918 64.1749C27.7685 63.9004 27.8911 63.5779 28.1656 63.4545ZM100.638 67.2162C100.912 67.0913 101.235 67.212 101.36 67.4858C101.485 67.7595 101.365 68.0828 101.091 68.2077C99.3214 69.0151 97.3947 69.5071 95.3101 69.594C95.0095 69.6066 94.7555 69.373 94.743 69.0724C94.7305 68.7717 94.9641 68.5178 95.2647 68.5053C97.2026 68.4245 98.9914 67.9678 100.638 67.2162ZM83.5508 65.5825C83.7029 65.3228 84.0367 65.2356 84.2964 65.3876C85.1776 65.9034 86.1094 66.3786 87.091 66.805C88.0026 67.2009 88.8887 67.5228 89.7496 67.7762C90.0383 67.8612 90.2035 68.1641 90.1185 68.4527C90.0336 68.7414 89.7307 68.9066 89.442 68.8216C88.5355 68.5548 87.6071 68.2172 86.6568 67.8045C85.6349 67.3606 84.6643 66.8657 83.7458 66.328C83.4861 66.176 83.3988 65.8422 83.5508 65.5825ZM92.4488 60.0692C92.7487 60.0446 93.0118 60.2679 93.0363 60.5678C93.2042 62.6185 93.2306 64.7404 93.104 66.8792C93.0863 67.1796 92.8283 67.4086 92.5279 67.3909C92.2275 67.3731 91.9985 67.1152 92.0163 66.8148C92.1398 64.7269 92.1139 62.6562 91.9502 60.6567C91.9256 60.3568 92.1489 60.0937 92.4488 60.0692ZM108.886 59.7709C109.055 59.5221 109.394 59.4576 109.643 59.6268C109.892 59.796 109.956 60.1349 109.787 60.3837C108.665 62.034 107.4 63.5597 105.987 64.876C105.767 65.0811 105.422 65.0689 105.217 64.8487C105.012 64.6285 105.024 64.2838 105.244 64.0786C106.588 62.8267 107.801 61.3658 108.886 59.7709ZM74.7791 56.4569C75.0406 56.308 75.3733 56.3994 75.5222 56.6609C76.4886 58.3589 77.763 60.0398 79.3349 61.5916C79.5491 61.8031 79.5513 62.1481 79.3399 62.3622C79.1285 62.5763 78.7835 62.5785 78.5694 62.3671C76.9277 60.7464 75.5917 58.9862 74.575 57.1998C74.4262 56.9383 74.5176 56.6057 74.7791 56.4569ZM24.1142 52.7549C24.4002 52.6614 24.7078 52.8175 24.8013 53.1035C25.371 54.846 26.0034 56.6445 26.7037 58.4718C26.8114 58.7528 26.6709 59.068 26.3899 59.1757C26.1089 59.2833 25.7939 59.1428 25.6862 58.8618C24.9788 57.0161 24.3404 55.2003 23.7656 53.4421C23.6721 53.1561 23.8282 52.8485 24.1142 52.7549ZM113.762 49.5125C113.854 49.2261 114.161 49.0688 114.448 49.1612C114.734 49.2536 114.891 49.5606 114.799 49.847C114.215 51.6571 113.506 53.4952 112.666 55.2847C112.539 55.5571 112.214 55.6744 111.942 55.5466C111.669 55.4188 111.552 55.0944 111.68 54.822C112.498 53.0778 113.191 51.2828 113.762 49.5125ZM89.1195 48.1351C89.3868 47.9969 89.7155 48.1016 89.8537 48.3689C90.7571 50.1164 91.489 52.1366 92.034 54.3326C92.1065 54.6247 91.9286 54.9202 91.6365 54.9927C91.3445 55.0652 91.0489 54.8872 90.9764 54.5951C90.4481 52.4661 89.7434 50.5283 88.8857 48.8693C88.7475 48.602 88.8522 48.2733 89.1195 48.1351ZM73.4982 44.4796C73.6684 44.2315 74.0075 44.1683 74.2557 44.3385C74.5038 44.5087 74.567 44.8479 74.3968 45.096C73.4132 46.53 73.0714 48.5501 73.4208 50.8696C73.4656 51.1671 73.2606 51.4447 72.9631 51.4895C72.6655 51.5343 72.388 51.3295 72.3431 51.0319C71.9673 48.5366 72.3106 46.2109 73.4982 44.4796ZM21.1063 41.7187C21.3996 41.6513 21.6919 41.8343 21.7593 42.1276C22.1425 43.7953 22.605 45.6544 23.1576 47.6502C23.2378 47.9402 23.0678 48.2404 22.7778 48.3207C22.4878 48.401 22.1876 48.231 22.1073 47.941C21.5501 45.9283 21.0837 44.0535 20.6973 42.3717C20.6299 42.0784 20.813 41.786 21.1063 41.7187ZM115.618 41.1801C115.652 40.8811 115.922 40.6667 116.221 40.7012C116.52 40.7357 116.735 41.006 116.7 41.3049C116.595 42.2175 116.446 43.1852 116.254 44.1913C116.197 44.4869 115.912 44.6806 115.616 44.624C115.32 44.5674 115.127 44.282 115.183 43.9864C115.371 43.0051 115.516 42.0641 115.618 41.1801ZM79.4878 41.6207C80.4929 41.605 81.5967 41.7226 82.7991 41.9863C83.8814 42.2236 84.8891 42.6989 85.8144 43.3687C86.0581 43.5452 86.1127 43.8859 85.9363 44.1296C85.7598 44.3734 85.4191 44.4279 85.1754 44.2514C84.3573 43.6592 83.4856 43.2523 82.5657 43.0506C81.4324 42.8021 80.4133 42.696 79.5048 42.7102C79.2039 42.7149 78.9562 42.4748 78.9515 42.1739C78.9468 41.8731 79.1869 41.6254 79.4878 41.6207ZM19.5543 33.302C19.8434 33.2642 20.1091 33.4603 20.1609 33.7439L20.1652 33.7716C20.1652 33.7717 20.1652 33.7718 20.1653 33.772C20.1653 33.7724 20.1654 33.773 20.1656 33.7738C20.1658 33.7756 20.1661 33.7784 20.1666 33.7821C20.1676 33.7895 20.1691 33.8008 20.1712 33.816C20.1753 33.8464 20.1816 33.8922 20.1902 33.9529C20.2074 34.0743 20.2337 34.2553 20.2699 34.4917C20.3424 34.9645 20.4546 35.6593 20.6129 36.543C20.666 36.8392 20.4688 37.1223 20.1726 37.1754C19.8764 37.2284 19.5934 37.0313 19.5403 36.7351C19.3803 35.8418 19.2666 35.1381 19.1928 34.6568C19.1559 34.4162 19.129 34.2311 19.1112 34.1058C19.1024 34.0431 19.0958 33.9953 19.0914 33.963C19.0892 33.9469 19.0876 33.9346 19.0865 33.9262C19.0859 33.922 19.0855 33.9188 19.0852 33.9165C19.0851 33.9154 19.0849 33.9145 19.0848 33.9139C19.0848 33.9136 19.0848 33.9134 19.0847 33.9133V33.913C19.0457 33.6146 19.256 33.341 19.5543 33.302Z" fill="#D8EEF0"/>
<path d="M221.121 205.15C221.418 205.1 221.699 205.3 221.748 205.597C221.915 206.59 222.029 207.377 222.101 207.915C222.137 208.185 222.163 208.392 222.18 208.533C222.188 208.604 222.194 208.657 222.198 208.694C222.2 208.712 222.202 208.726 222.203 208.736C222.204 208.74 222.204 208.744 222.204 208.746C222.204 208.748 222.204 208.749 222.204 208.749C222.204 208.75 222.205 208.75 222.205 208.75L222.205 208.75V208.751C222.236 209.05 222.019 209.318 221.72 209.35C221.421 209.381 221.153 209.164 221.121 208.865C221.121 208.865 221.121 208.865 221.121 208.865C221.121 208.864 221.121 208.864 221.121 208.863C221.12 208.861 221.12 208.858 221.12 208.854C221.119 208.845 221.117 208.833 221.116 208.816C221.112 208.782 221.106 208.73 221.098 208.663C221.081 208.527 221.056 208.324 221.021 208.06C220.95 207.532 220.838 206.758 220.674 205.777C220.624 205.48 220.824 205.199 221.121 205.15ZM134.472 202.622C134.56 202.334 134.864 202.171 135.152 202.259C135.44 202.347 135.602 202.651 135.515 202.939C135.215 203.925 134.973 204.878 134.792 205.78C134.733 206.075 134.446 206.266 134.151 206.207C133.856 206.147 133.664 205.86 133.724 205.565C133.912 204.626 134.163 203.639 134.472 202.622ZM164.085 199.907C164.28 199.678 164.623 199.65 164.853 199.845C165.649 200.522 166.464 201.048 167.289 201.408C168.193 201.803 169.05 202.084 169.854 202.264C170.148 202.329 170.333 202.621 170.267 202.914C170.201 203.208 169.91 203.393 169.616 203.327C168.738 203.13 167.815 202.827 166.852 202.406C165.914 201.996 165.009 201.408 164.147 200.675C163.918 200.48 163.89 200.136 164.085 199.907ZM177.921 197.911C177.982 197.616 178.271 197.428 178.566 197.489C178.86 197.551 179.049 197.839 178.987 198.134C178.553 200.214 177.328 201.915 175.457 202.844C175.187 202.978 174.86 202.867 174.726 202.598C174.593 202.328 174.703 202.001 174.972 201.868C176.516 201.102 177.548 199.696 177.921 197.911ZM218.178 192.825C218.466 192.74 218.77 192.904 218.856 193.192C219.515 195.406 220.053 197.482 220.49 199.351C220.559 199.644 220.377 199.937 220.084 200.006C219.791 200.074 219.497 199.892 219.429 199.599C218.996 197.749 218.463 195.694 217.811 193.503C217.725 193.215 217.889 192.911 218.178 192.825ZM139.672 191.709C139.84 191.459 140.178 191.391 140.428 191.558C140.678 191.726 140.746 192.064 140.578 192.314C139.467 193.977 138.492 195.713 137.664 197.446C137.535 197.717 137.209 197.832 136.938 197.703C136.666 197.573 136.551 197.248 136.681 196.976C137.53 195.199 138.53 193.418 139.672 191.709ZM157.688 189.56C157.968 189.449 158.285 189.586 158.396 189.865C159.183 191.845 160.086 193.67 161.076 195.271C161.235 195.527 161.156 195.863 160.9 196.021C160.644 196.18 160.308 196.101 160.15 195.845C159.121 194.182 158.19 192.298 157.383 190.268C157.272 189.988 157.409 189.671 157.688 189.56ZM174.489 187.416C174.713 187.214 175.057 187.232 175.259 187.456C176.697 189.05 177.718 190.706 178.354 192.327C178.464 192.607 178.326 192.923 178.046 193.033C177.766 193.143 177.45 193.005 177.34 192.725C176.756 191.237 175.809 189.692 174.45 188.186C174.248 187.962 174.266 187.618 174.489 187.416ZM148.07 182.991C148.32 182.823 148.658 182.89 148.826 183.14C148.993 183.39 148.927 183.728 148.677 183.896C147.082 184.966 145.596 186.258 144.233 187.701C144.026 187.919 143.681 187.929 143.463 187.722C143.244 187.515 143.234 187.171 143.441 186.952C144.852 185.46 146.398 184.112 148.07 182.991ZM213.717 180.962C213.992 180.838 214.314 180.961 214.438 181.235C215.336 183.229 216.135 185.208 216.845 187.137C216.949 187.419 216.804 187.732 216.522 187.836C216.239 187.94 215.926 187.796 215.822 187.513C215.12 185.606 214.331 183.651 213.444 181.682C213.321 181.408 213.443 181.085 213.717 180.962ZM154.836 177.671C155.134 177.634 155.406 177.847 155.443 178.146C155.512 178.716 155.593 179.285 155.682 179.851C156.974 179.629 158.311 179.549 159.689 179.632C159.99 179.65 160.218 179.908 160.2 180.208C160.182 180.508 159.924 180.737 159.624 180.719C158.331 180.642 157.077 180.717 155.865 180.926C156.06 181.999 156.289 183.062 156.55 184.106C156.623 184.398 156.446 184.693 156.154 184.767C155.862 184.84 155.566 184.662 155.493 184.371C155.228 183.312 154.995 182.235 154.797 181.146C154.496 181.218 154.198 181.299 153.903 181.387C153.614 181.473 153.311 181.309 153.224 181.021C153.138 180.733 153.302 180.429 153.59 180.343C153.928 180.242 154.269 180.151 154.613 180.069C154.518 179.474 154.434 178.877 154.361 178.278C154.324 177.979 154.537 177.707 154.836 177.671ZM164.956 181.287C165.064 181.007 165.38 180.867 165.661 180.976C166.576 181.332 167.505 181.76 168.445 182.265C169.322 182.736 170.14 183.228 170.901 183.738C171.151 183.905 171.219 184.243 171.051 184.494C170.884 184.744 170.545 184.811 170.295 184.643C169.564 184.154 168.776 183.68 167.929 183.225C167.026 182.74 166.139 182.331 165.266 181.992C164.986 181.883 164.847 181.568 164.956 181.287ZM207.499 169.926C207.748 169.757 208.086 169.822 208.256 170.07C209.466 171.852 210.575 173.678 211.59 175.521C211.735 175.785 211.639 176.116 211.376 176.262C211.112 176.407 210.781 176.311 210.636 176.047C209.635 174.231 208.544 172.434 207.354 170.683C207.185 170.434 207.25 170.095 207.499 169.926ZM154.594 165.902C154.648 165.606 154.932 165.41 155.228 165.464C155.524 165.519 155.72 165.802 155.666 166.098C155.313 168.026 155.131 170.044 155.104 172.1C155.1 172.401 154.853 172.642 154.552 172.638C154.251 172.634 154.01 172.387 154.014 172.086C154.042 169.975 154.229 167.896 154.594 165.902ZM199.173 160.402C199.376 160.18 199.721 160.164 199.943 160.367C201.532 161.817 203.011 163.363 204.386 164.978C204.581 165.207 204.553 165.551 204.324 165.746C204.095 165.941 203.751 165.913 203.556 165.684C202.208 164.102 200.761 162.589 199.208 161.172C198.986 160.969 198.97 160.624 199.173 160.402ZM159.777 154.634C159.981 154.413 160.325 154.399 160.547 154.603C160.768 154.806 160.782 155.151 160.578 155.372C159.262 156.801 158.205 158.485 157.382 160.356C157.261 160.631 156.94 160.757 156.664 160.636C156.389 160.515 156.264 160.193 156.385 159.918C157.248 157.952 158.368 156.163 159.777 154.634ZM188.635 153.44C188.765 153.168 189.09 153.053 189.361 153.183C191.327 154.122 193.177 155.198 194.92 156.385C195.168 156.555 195.232 156.894 195.063 157.142C194.893 157.391 194.554 157.455 194.306 157.286C192.608 156.128 190.805 155.081 188.891 154.166C188.62 154.036 188.505 153.711 188.635 153.44ZM170.958 149.349C171.257 149.32 171.523 149.54 171.552 149.84C171.58 150.139 171.36 150.405 171.06 150.433C168.892 150.638 166.986 151.153 165.32 151.92C165.047 152.045 164.723 151.926 164.598 151.652C164.472 151.379 164.591 151.055 164.865 150.93C166.651 150.108 168.677 149.564 170.958 149.349ZM176.578 149.988C176.618 149.689 176.892 149.48 177.19 149.52C178.178 149.653 179.202 149.834 180.262 150.067C181.325 150.3 182.362 150.569 183.373 150.872C183.662 150.958 183.825 151.262 183.739 151.55C183.652 151.839 183.349 152.002 183.061 151.916C182.137 151.639 181.191 151.391 180.222 151.174L180.028 151.131C178.996 150.904 178.002 150.729 177.045 150.6C176.747 150.56 176.538 150.286 176.578 149.988Z" fill="#D8EEF0"/>
<path d="M33.2321 155.506L37.4283 153.062L43.5279 152.41L39.3332 154.866L33.2321 155.506Z" fill="#436479"/>
<path d="M54.6953 178.737L58.9018 176.279L55.9382 181.833L51.7435 184.29L54.6953 178.737Z" fill="#436479"/>
<path d="M39.0913 136.971L43.2978 134.513L48.9743 139.132L44.7678 141.59L39.0913 136.971Z" fill="#436479"/>
<path d="M68.6909 178.77L72.8853 176.313L74.8079 183.49L70.6132 185.947L68.6909 178.77Z" fill="#436479"/>
<mask id="mask0_23569_41906" style="mask-type:luminance" maskUnits="userSpaceOnUse" x="60" y="166" width="9" height="5">
<path d="M68.0983 166.849L63.9037 169.305C63.0461 169.801 62.0547 170.137 60.9809 170.254L65.1755 167.798C66.2612 167.679 67.2426 167.357 68.0983 166.849Z" fill="white"/>
</mask>
<g mask="url(#mask0_23569_41906)">
<path d="M68.0983 166.849C66.293 167.807 63.9466 170.366 60.979 170.242L65.1755 167.798C66.202 167.688 67.2207 167.372 68.0983 166.849Z" fill="#436479"/>
</g>
<mask id="mask1_23569_41906" style="mask-type:luminance" maskUnits="userSpaceOnUse" x="48" y="146" width="18" height="25">
<path d="M52.1767 149.253L56.3713 146.797C53.1436 148.679 51.6334 153.038 52.9058 157.816C54.5221 163.876 60.0054 168.343 65.1614 167.788L60.9667 170.245C55.8226 170.797 50.3392 166.33 48.7112 160.272C47.4369 155.483 48.9489 151.136 52.1767 149.253Z" fill="white"/>
</mask>
<g mask="url(#mask1_23569_41906)">
<path d="M65.1755 167.798L61.1292 171.215C52.3011 171.875 44.2713 159.491 48.6819 151.917C49.778 149.746 54.2162 147.531 56.3836 146.795C49.258 149.207 55.1788 168.749 65.1755 167.798Z" fill="#436479"/>
</g>
<mask id="mask2_23569_41906" style="mask-type:luminance" maskUnits="userSpaceOnUse" x="46" y="137" width="6" height="4">
<path d="M46.8744 140.075L51.0691 137.619C51.2358 137.521 51.4025 137.422 51.583 137.333L47.3883 139.79C47.2197 139.876 47.0412 139.977 46.8744 140.075Z" fill="white"/>
</mask>
<g mask="url(#mask2_23569_41906)">
<path d="M46.8744 140.075L51.0691 137.619C51.2358 137.521 51.4025 137.422 51.583 137.333L47.3883 139.79C47.2197 139.877 47.0412 139.977 46.8744 140.075Z" fill="#000D70"/>
</g>
<mask id="mask3_23569_41906" style="mask-type:luminance" maskUnits="userSpaceOnUse" x="69" y="174" width="7" height="5">
<path d="M73.3892 176.041L69.1945 178.497C69.9391 178.055 70.6506 177.556 71.3002 176.971L75.4949 174.514C74.8434 175.088 74.1337 175.598 73.3892 176.041Z" fill="white"/>
</mask>
<g mask="url(#mask3_23569_41906)">
<path d="M71.3002 176.971L75.4949 174.514C74.8434 175.088 74.1337 175.598 73.3892 176.041L69.1945 178.497C69.9391 178.055 70.6506 177.556 71.3002 176.971Z" fill="#436479"/>
</g>
<path d="M45.4683 132.624L49.6745 130.166L60.251 129.04L56.0563 131.497L45.4683 132.624Z" fill="#436479"/>
<mask id="mask4_23569_41906" style="mask-type:luminance" maskUnits="userSpaceOnUse" x="57" y="136" width="9" height="4">
<path d="M57.9761 138.662L62.1707 136.206C63.3187 136.49 64.4578 136.872 65.5659 137.368L61.3712 139.824C60.2513 139.33 59.1104 138.936 57.9761 138.662Z" fill="white"/>
</mask>
<g mask="url(#mask4_23569_41906)">
<path d="M65.5776 137.366L61.3829 139.822C60.2886 139.336 59.1476 138.942 57.986 138.649L62.1824 136.204C63.3423 136.486 64.4851 136.892 65.5776 137.366Z" fill="#436479"/>
</g>
<mask id="mask5_23569_41906" style="mask-type:luminance" maskUnits="userSpaceOnUse" x="76" y="161" width="5" height="7">
<path d="M76.7354 163.705L80.93 161.249C80.9309 162.511 80.8298 163.74 80.6346 164.91L76.4399 167.367C76.6333 166.184 76.7481 164.965 76.7354 163.705Z" fill="white"/>
</mask>
<g mask="url(#mask5_23569_41906)">
<path d="M80.93 161.249C80.9391 162.485 80.8379 163.714 80.6364 164.922L76.4399 167.367C76.6433 166.17 76.7545 164.928 76.7354 163.705L80.93 161.249Z" fill="#436479"/>
</g>
<path d="M82.1183 171.986L86.3148 169.542L81.1745 179.145L76.9799 181.602L82.1183 171.986Z" fill="#436479"/>
<path d="M74.1798 142.297L78.3745 139.841L75.4209 145.381L71.2143 147.84L74.1798 142.297Z" fill="#436479"/>
<path d="M82.8469 163.052L76.7473 163.703C76.7482 164.965 76.6471 166.194 76.4519 167.365L82.1286 171.984L76.9902 181.599L71.3116 176.968C70.5108 177.675 69.6441 178.27 68.7017 178.767L70.6244 185.944L60.036 187.071L58.1137 179.894C56.9539 179.613 55.8287 179.241 54.707 178.734L51.7433 184.289L41.9018 176.273L44.8669 170.731C44.0575 169.655 43.3236 168.518 42.6791 167.332L36.5798 167.984L33.2451 155.516L39.3444 154.864C39.3435 153.603 39.4328 152.376 39.638 151.191L33.9734 146.57L39.1119 136.955L44.7883 141.574C45.591 140.88 46.4559 140.273 47.3982 139.775L45.4777 132.61L56.0658 131.483L57.9862 138.648C59.1342 138.932 60.2734 139.314 61.3814 139.81L64.3466 134.267L74.1884 142.283L71.223 147.825C72.0324 148.901 72.7663 150.038 73.4108 151.224L79.5102 150.573L82.8451 163.04L82.8469 163.052ZM60.9658 170.244C66.1099 169.692 68.9721 164.347 67.3559 158.288C65.7397 152.228 60.2567 147.761 55.0988 148.304C49.941 148.846 47.0941 154.212 48.7103 160.272C50.3265 166.332 55.8098 170.799 60.9658 170.244Z" fill="#6D91AB"/>
<path d="M73.4019 151.239L77.6084 148.78L83.7095 148.141L79.5131 150.585L73.4019 151.239Z" fill="#436479"/>
<path d="M56.0562 131.497L60.2508 129.04L62.1713 136.206L57.9766 138.662L56.0562 131.497Z" fill="#92B8D2"/>
<path d="M76.4409 167.366L80.6356 164.91L86.3141 169.541L82.1177 171.985L76.4409 167.366Z" fill="#92B8D2"/>
<path d="M77.6086 148.78L73.4139 151.237C73.308 151.022 73.1803 150.824 73.0762 150.621C72.5139 149.653 71.8959 148.717 71.2261 147.838L75.4207 145.381C76.0924 146.272 76.7086 147.196 77.2727 148.177C77.3768 148.379 77.5063 148.59 77.6086 148.78Z" fill="#92B8D2"/>
<path d="M64.3374 134.282L68.5321 131.825L78.3739 139.841L74.1793 142.297L64.3374 134.282Z" fill="#92B8D2"/>
<path d="M79.5133 150.584L83.7098 148.14L87.0429 160.595L82.8483 163.052L79.5133 150.584Z" fill="#92B8D2"/>
<path d="M34.0429 103.812C35.0504 106.896 37.321 109.392 40.2247 110.714C37.3755 112.054 35.1772 114.523 34.1856 117.528C33.1771 114.445 30.9095 111.949 28.0059 110.628C30.854 109.287 33.0523 106.817 34.0429 103.813V103.812Z" fill="#89DC9D"/>
<path d="M212.978 40.2419C213.986 43.3258 216.257 45.8213 219.16 47.1438C216.311 48.4842 214.113 50.9529 213.121 53.9576C212.113 50.8746 209.845 48.3792 206.941 47.0576C209.79 45.7173 211.988 43.2466 212.978 40.2429V40.2419Z" fill="#89DC9D"/>
<path d="M138.885 150.228C139.812 153.065 141.9 155.36 144.572 156.577C141.951 157.809 139.929 160.082 139.016 162.845C138.089 160.009 136.002 157.713 133.332 156.497C135.952 155.263 137.974 152.991 138.886 150.227L138.885 150.228Z" fill="#89DC9D"/>
<path d="M208.849 136.133C210.626 136.133 212.066 134.692 212.066 132.915C212.066 131.138 210.626 129.697 208.849 129.697C207.071 129.697 205.631 131.138 205.631 132.915C205.631 134.692 207.071 136.133 208.849 136.133Z" fill="#D8EEF0"/>
<path d="M25.1508 181.113C26.5318 181.113 27.6512 179.993 27.6512 178.612C27.6512 177.232 26.5318 176.112 25.1508 176.112C23.7699 176.112 22.6504 177.232 22.6504 178.612C22.6504 179.993 23.7699 181.113 25.1508 181.113Z" fill="#D8EEF0"/>
<path d="M202.961 39.5613C204.444 39.5613 205.647 38.3589 205.647 36.8756C205.647 35.3924 204.444 34.1899 202.961 34.1899C201.478 34.1899 200.275 35.3924 200.275 36.8756C200.275 38.3589 201.478 39.5613 202.961 39.5613Z" fill="#D8EEF0"/>
<path d="M105.921 48.4729C106.985 48.4729 107.848 47.6102 107.848 46.546C107.848 45.4819 106.985 44.6192 105.921 44.6192C104.857 44.6192 103.994 45.4819 103.994 46.546C103.994 47.6102 104.857 48.4729 105.921 48.4729Z" fill="#D8EEF0"/>
<path d="M176.408 77.927H65.2622C59.9678 77.927 55.6758 82.7093 55.6758 88.6085V163.645C55.6758 169.545 59.9678 174.327 65.2622 174.327H176.408C181.702 174.327 185.994 169.545 185.994 163.645V88.6085C185.994 82.7093 181.702 77.927 176.408 77.927Z" fill="white"/>
<path d="M176.253 77.927H65.2499C59.9651 77.927 55.6758 82.2163 55.6758 87.5012V96.8435H185.827V87.5012C185.827 82.2163 181.538 77.927 176.253 77.927Z" fill="#EFEFED"/>
<ellipse cx="64.8039" cy="87.4896" rx="3.0578" ry="3.0578" fill="#FF5F57"/>
<ellipse cx="73.6711" cy="87.4896" rx="3.0578" ry="3.0578" fill="#FEBC2E"/>
<ellipse cx="82.5383" cy="87.4896" rx="3.0578" ry="3.0578" fill="#28C840"/>
<rect x="90.2891" y="115.633" width="61.9763" height="35.2138" rx="17.6069" fill="#67B279"/>
<path d="M134.191 118.329C142.4 118.33 149.05 124.962 149.05 133.137C149.05 141.313 142.4 147.944 134.191 147.945C125.983 147.945 119.332 141.313 119.332 133.137C119.332 124.962 125.983 118.329 134.191 118.329Z" fill="white" stroke="#EFEFED" stroke-width="1.57805"/>
<path d="M171.82 55.0286L177.744 59.5622L174.684 54.3818L168.759 49.848L171.82 55.0286Z" fill="#59798E"/>
<path d="M149.456 79.4081L155.365 83.9406L161.695 84.1002L155.771 79.5664L149.456 79.4081Z" fill="#7EA0B8"/>
<path d="M186.357 53.9315L192.267 58.4642L194.291 51.2907L188.367 46.757L186.357 53.9315Z" fill="#7EA0B8"/>
<mask id="mask6_23569_41906" style="mask-type:luminance" maskUnits="userSpaceOnUse" x="165" y="62" width="24" height="26">
<path d="M167.929 83.3288L173.839 87.8614C171.335 85.9319 170.296 82.251 171.473 78.0864C173.17 72.0386 178.875 67.2467 184.222 67.3927C185.883 67.4423 187.314 67.9438 188.444 68.8161L182.534 64.2835C181.404 63.4111 179.974 62.9097 178.313 62.8601C172.964 62.7292 167.259 67.5211 165.563 73.5537C164.385 77.7334 165.426 81.3993 167.929 83.3288Z" fill="white"/>
</mask>
<g mask="url(#mask6_23569_41906)">
<path d="M167.93 83.3141L173.84 87.8467C171.465 86.0177 170.403 82.6378 171.303 78.7248C171.365 78.5024 171.412 78.294 171.474 78.0716C171.914 76.4549 172.664 74.9372 173.599 73.5698C176.197 69.8302 180.296 67.2635 184.224 67.3629C185.871 67.3964 187.316 67.914 188.445 68.8014L182.52 64.2676C181.39 63.3953 179.961 62.8788 178.3 62.8292C174.387 62.7309 170.259 65.2804 167.69 69.0373C166.754 70.4047 166.003 71.9373 165.549 73.5379C165.487 73.7602 165.426 73.9676 165.394 74.1922C164.494 78.0902 165.555 81.4851 167.93 83.3141Z" fill="#59798E"/>
</g>
<path d="M155.479 97.0736L161.388 101.621L167.302 96.6634L161.393 92.1158L155.479 97.0736Z" fill="#7EA0B8"/>
<mask id="mask7_23569_41906" style="mask-type:luminance" maskUnits="userSpaceOnUse" x="161" y="92" width="10" height="7">
<path d="M161.393 92.1156L167.303 96.6482C168.134 97.2709 169.034 97.7777 170.016 98.2L164.107 93.6674C163.124 93.2451 162.224 92.7383 161.393 92.1156Z" fill="white"/>
</mask>
<g mask="url(#mask7_23569_41906)">
<path d="M161.393 92.1156L167.303 96.6482C168.134 97.2709 169.034 97.7777 170.016 98.2L164.107 93.6674C163.124 93.2451 162.224 92.7383 161.393 92.1156Z" fill="#59798E"/>
</g>
<path d="M194.357 64.4647L200.282 68.9984L206.195 64.0407L200.271 59.5069L194.357 64.4647Z" fill="#7EA0B8"/>
<path d="M200.271 59.5062L206.195 64.0399L200.879 55.0565L194.97 50.5088L200.271 59.5062Z" fill="#59798E"/>
<mask id="mask8_23569_41906" style="mask-type:luminance" maskUnits="userSpaceOnUse" x="194" y="64" width="7" height="9">
<path d="M194.663 68.0302L200.572 72.5628C200.59 71.323 200.484 70.1192 200.266 68.9978L194.357 64.4652C194.574 65.6016 194.681 66.7904 194.663 68.0302Z" fill="white"/>
</mask>
<g mask="url(#mask8_23569_41906)">
<path d="M194.663 68.0302L200.572 72.5628C200.59 71.323 200.484 70.1192 200.266 68.9978L194.357 64.4652C194.574 65.6016 194.681 66.7904 194.663 68.0302Z" fill="#59798E"/>
</g>
<mask id="mask9_23569_41906" style="mask-type:luminance" maskUnits="userSpaceOnUse" x="175" y="92" width="10" height="7">
<path d="M175.106 93.936L181.016 98.4686C182.208 98.1195 183.392 97.664 184.541 97.0846L178.631 92.552C177.484 93.1163 176.298 93.5869 175.106 93.936Z" fill="white"/>
</mask>
<g mask="url(#mask9_23569_41906)">
<path d="M175.106 93.936L181.016 98.4686C182.208 98.1195 183.392 97.664 184.541 97.0846L178.631 92.552C177.484 93.1163 176.298 93.5869 175.106 93.936Z" fill="#59798E"/>
</g>
<path d="M162.085 100.826L168.008 105.374L178.992 105.643L173.083 101.11L162.085 100.826Z" fill="#59798E"/>
<path d="M173.082 101.11L178.991 105.642L181.015 98.4841L175.106 93.9364L173.082 101.11Z" fill="#7EA0B8"/>
<mask id="mask10_23569_41906" style="mask-type:luminance" maskUnits="userSpaceOnUse" x="188" y="80" width="10" height="9">
<path d="M188.876 83.9697L194.785 88.5023C195.642 87.3862 196.411 86.2182 197.078 84.997L191.169 80.4644C190.487 81.6694 189.732 82.8536 188.876 83.9697Z" fill="white"/>
</mask>
<g mask="url(#mask10_23569_41906)">
<path d="M188.891 83.971L194.8 88.5036C195.085 88.1466 195.34 87.7723 195.594 87.413C196.137 86.6366 196.636 85.8417 197.092 85.0133L191.167 80.4796C190.711 81.308 190.212 82.1029 189.685 82.8804C189.414 83.2536 189.159 83.6279 188.891 83.971Z" fill="#59798E"/>
</g>
<path d="M197.512 80.6264L203.421 85.1741L206.918 72.7231L201.009 68.1905L197.512 80.6264Z" fill="#7EA0B8"/>
<path d="M191.167 80.4647L197.092 84.9984L203.421 85.1731L197.512 80.6254L191.167 80.4647Z" fill="#59798E"/>
<path d="M181.691 97.7484L187.6 102.281L197.86 93.6852L191.937 89.1365L181.691 97.7484Z" fill="#7EA0B8"/>
<path d="M191.936 89.1361L197.859 93.6849L194.784 88.5033L188.874 83.9707L191.936 89.1361Z" fill="#59798E"/>
<path d="M173.081 101.11L175.105 93.9366C176.297 93.5875 177.482 93.132 178.631 92.5526L181.691 97.7331L191.951 89.1374L188.891 83.9568C189.747 82.8407 190.516 81.6727 191.183 80.4515L197.529 80.6122L201.025 68.1763L194.68 68.0156C194.697 66.7758 194.591 65.5719 194.373 64.4505L200.287 59.4928L194.985 50.5105L189.072 55.4682C188.257 54.8316 187.356 54.3247 186.373 53.9175L188.397 46.7441L177.4 46.4596L175.391 53.6191C174.198 53.9832 173.014 54.4388 171.85 55.017L168.79 49.8366L158.529 58.4323L161.59 63.6128C160.75 64.715 159.979 65.898 159.297 67.1181L152.967 66.9585L149.471 79.3945L155.801 79.554C155.784 80.7788 155.906 81.9838 156.108 83.1191L150.195 88.0618L155.495 97.0591L161.409 92.1014C162.24 92.7241 163.14 93.231 164.122 93.6532L162.114 100.813L173.112 101.097L173.081 101.11ZM184.9 74.0441C183.203 80.0918 177.484 84.8826 172.15 84.7529C166.802 84.6219 163.85 79.601 165.562 73.5544C167.26 67.5067 172.965 62.7148 178.312 62.8608C183.659 63.0067 186.612 68.0126 184.916 74.0453" fill="#AED8E7"/>
</svg>
