<svg width="206" height="206" viewBox="0 0 206 206" fill="none" xmlns="http://www.w3.org/2000/svg">
<path d="M146.429 134.55C146.719 134.523 146.977 134.736 147.004 135.027C147.032 135.318 146.818 135.576 146.527 135.603C145.621 135.688 144.686 135.739 143.721 135.754C142.708 135.77 141.71 135.745 140.728 135.681C140.436 135.662 140.216 135.41 140.235 135.119C140.254 134.827 140.505 134.607 140.797 134.626C141.751 134.688 142.72 134.713 143.704 134.697C144.643 134.682 145.551 134.633 146.429 134.55ZM128.859 132.275C128.971 132.005 129.28 131.877 129.55 131.989C131.323 132.721 133.16 133.322 135.064 133.77C135.348 133.837 135.524 134.122 135.457 134.406C135.391 134.69 135.106 134.867 134.822 134.8C132.86 134.338 130.969 133.719 129.146 132.966C128.876 132.854 128.747 132.545 128.859 132.275ZM156.695 131.522C156.95 131.38 157.272 131.471 157.414 131.726C157.556 131.982 157.465 132.304 157.209 132.446C155.642 133.318 153.919 134.039 152.03 134.583C151.749 134.664 151.456 134.502 151.375 134.221C151.295 133.941 151.457 133.648 151.737 133.567C153.551 133.045 155.2 132.354 156.695 131.522ZM118.828 126.171C119.008 125.941 119.34 125.9 119.57 126.08C121.104 127.28 122.701 128.386 124.364 129.378C124.615 129.528 124.697 129.852 124.548 130.103C124.398 130.354 124.074 130.436 123.823 130.286C122.119 129.27 120.484 128.138 118.918 126.913C118.688 126.733 118.648 126.401 118.828 126.171ZM164.433 124.234C164.592 123.989 164.92 123.92 165.165 124.079C165.41 124.238 165.479 124.565 165.32 124.81C164.303 126.376 163.113 127.828 161.737 129.128C161.525 129.329 161.19 129.32 160.989 129.107C160.789 128.895 160.798 128.56 161.01 128.36C162.322 127.12 163.459 125.734 164.433 124.234ZM110.437 117.929C110.658 117.738 110.992 117.763 111.182 117.984C112.453 119.46 113.786 120.886 115.182 122.241C115.391 122.444 115.396 122.779 115.193 122.989C114.989 123.198 114.655 123.203 114.445 123C113.025 121.621 111.67 120.172 110.381 118.674C110.19 118.453 110.215 118.119 110.437 117.929ZM168.407 114.25C168.467 113.964 168.747 113.781 169.033 113.841C169.319 113.9 169.502 114.18 169.443 114.466C169.059 116.304 168.538 118.1 167.864 119.821C167.757 120.093 167.451 120.228 167.179 120.121C166.907 120.015 166.773 119.708 166.879 119.436C167.529 117.774 168.035 116.035 168.407 114.25ZM103.492 108.42C103.738 108.262 104.065 108.334 104.222 108.579C105.265 110.203 106.371 111.82 107.54 113.406C107.713 113.641 107.663 113.972 107.428 114.146C107.193 114.319 106.862 114.269 106.689 114.034C105.505 112.427 104.386 110.792 103.333 109.151C103.175 108.905 103.246 108.578 103.492 108.42ZM169.636 102.881C169.927 102.863 170.178 103.086 170.195 103.377C170.305 105.222 170.306 107.087 170.185 108.943C170.166 109.235 169.914 109.456 169.623 109.437C169.331 109.418 169.11 109.166 169.129 108.875C169.247 107.064 169.247 105.243 169.139 103.44C169.122 103.148 169.344 102.898 169.636 102.881ZM160.228 102.136C160.337 101.865 160.644 101.733 160.915 101.842C161.893 102.233 162.915 102.576 163.981 102.861C164.971 103.125 165.923 103.319 166.84 103.446C167.129 103.486 167.331 103.753 167.291 104.042C167.251 104.331 166.984 104.533 166.695 104.493C165.793 104.368 164.861 104.183 163.9 103.933L163.708 103.882C162.601 103.586 161.538 103.231 160.522 102.824C160.251 102.715 160.119 102.407 160.228 102.136ZM177.865 101.212C178.11 101.053 178.437 101.122 178.597 101.367C178.756 101.612 178.686 101.939 178.442 102.099C176.766 103.188 174.883 103.981 172.778 104.386C172.491 104.441 172.214 104.254 172.158 103.967C172.103 103.68 172.291 103.403 172.578 103.348C174.543 102.97 176.299 102.23 177.865 101.212ZM97.7336 98.1432C97.9947 98.0124 98.3124 98.118 98.4432 98.3791C99.2889 100.067 100.207 101.803 101.199 103.557C101.342 103.812 101.253 104.134 100.999 104.278C100.744 104.422 100.422 104.332 100.278 104.078C99.277 102.307 98.3507 100.555 97.4978 98.8527C97.367 98.5917 97.4725 98.274 97.7336 98.1432ZM149.895 94.1931C150.125 94.0127 150.457 94.0525 150.638 94.2821C151.882 95.8665 153.438 97.386 155.278 98.7285C155.514 98.9007 155.565 99.2315 155.393 99.4674C155.221 99.7032 154.89 99.7549 154.654 99.5828C152.738 98.1842 151.112 96.5973 149.806 94.9355C149.626 94.7058 149.666 94.3735 149.895 94.1931ZM167.54 92.1042C167.818 92.0162 168.116 92.1705 168.204 92.4489C168.747 94.1681 169.195 95.9816 169.533 97.8523C169.585 98.1397 169.394 98.4147 169.107 98.4667C168.82 98.5187 168.545 98.3279 168.493 98.0406C168.162 96.2124 167.725 94.4426 167.195 92.7678C167.107 92.4893 167.262 92.1922 167.54 92.1042ZM185.141 92.361C185.268 92.0979 185.584 91.9873 185.847 92.114C186.11 92.2406 186.22 92.5567 186.094 92.8198C185.203 94.6694 184.149 96.4136 182.912 97.9671C182.73 98.1955 182.398 98.2333 182.169 98.0515C181.941 97.8696 181.903 97.537 182.085 97.3085C183.264 95.8267 184.279 94.1521 185.141 92.361ZM92.9871 87.3641C93.2588 87.2573 93.5657 87.3911 93.6725 87.6629C94.3168 89.3032 95.0712 91.1263 95.938 93.0749C96.0567 93.3417 95.9366 93.6542 95.6698 93.7729C95.403 93.8916 95.0905 93.7716 94.9718 93.5048C94.098 91.5406 93.3377 89.703 92.6882 88.0496C92.5815 87.7778 92.7153 87.4708 92.9871 87.3641ZM146.776 82.1802C146.904 81.9177 147.22 81.8083 147.483 81.9361C147.745 82.0638 147.855 82.3802 147.727 82.6428C146.939 84.2625 146.9 86.3806 147.61 88.6944C147.696 88.9735 147.539 89.2694 147.26 89.3551C146.981 89.4408 146.685 89.284 146.6 89.0048C145.838 86.526 145.835 84.1145 146.776 82.1802ZM162.362 82.4766C162.586 82.2894 162.919 82.3193 163.106 82.5434C164.223 83.88 165.238 85.4776 166.13 87.2658C166.26 87.5271 166.154 87.8447 165.892 87.9749C165.631 88.1052 165.313 87.999 165.183 87.7376C164.321 86.009 163.35 84.4836 162.295 83.2214C162.108 82.9973 162.138 82.6639 162.362 82.4766ZM188.547 81.1631C188.594 80.875 188.866 80.68 189.154 80.7275C189.442 80.7751 189.637 81.0471 189.59 81.3352C189.271 83.2662 188.829 85.2447 188.247 87.1935C188.164 87.4733 187.869 87.6324 187.59 87.5489C187.31 87.4654 187.151 87.1708 187.234 86.891C187.802 84.9888 188.234 83.0541 188.547 81.1631ZM90.1218 79.0306C90.4026 78.9504 90.6952 79.113 90.7755 79.3938C90.7755 79.3938 90.7756 79.394 90.7756 79.3941C90.7757 79.3945 90.7759 79.3952 90.7762 79.396C90.7767 79.3978 90.7774 79.4006 90.7785 79.4043C90.7807 79.4117 90.784 79.423 90.7884 79.4382C90.7972 79.4685 90.8107 79.5143 90.8287 79.5749C90.8648 79.696 90.9192 79.8764 90.9921 80.1118C91.138 80.5825 91.3581 81.2731 91.654 82.1491C91.7474 82.4257 91.5988 82.7258 91.3222 82.8192C91.0455 82.9126 90.7455 82.7641 90.6521 82.4874C90.3532 81.6024 90.1304 80.9034 89.982 80.4248C89.9079 80.1855 89.8523 80.0012 89.8151 79.8764C89.7966 79.814 89.7826 79.7665 89.7732 79.7343C89.7686 79.7182 89.7649 79.7059 89.7625 79.6976C89.7613 79.6934 89.7604 79.6902 89.7598 79.688C89.7595 79.6869 89.7592 79.6861 89.7591 79.6855C89.759 79.6852 89.7589 79.6849 89.7589 79.6847L89.7588 79.6845V79.6844C89.6785 79.4037 89.8411 79.1109 90.1218 79.0306ZM152.416 78.3742C153.434 78.2056 154.574 78.1572 155.836 78.2424C156.812 78.3082 157.759 78.5613 158.668 78.9748C158.933 79.0957 159.051 79.4091 158.93 79.6749C158.809 79.9407 158.496 80.0582 158.23 79.9373C157.426 79.5717 156.603 79.354 155.765 79.2975C154.571 79.217 153.515 79.2642 152.589 79.4175C152.301 79.4652 152.029 79.2703 151.981 78.9823C151.933 78.6942 152.128 78.4219 152.416 78.3742ZM189.678 71.8428C189.97 71.833 190.214 72.0616 190.224 72.3535C190.256 73.2979 190.252 74.3053 190.209 75.3585C190.197 75.6502 189.951 75.8771 189.659 75.8653C189.368 75.8534 189.141 75.6072 189.153 75.3154C189.194 74.2867 189.198 73.3057 189.167 72.3891C189.157 72.0973 189.386 71.8527 189.678 71.8428Z" fill="#D8EEF0"/>
<path d="M104.046 81.5472C104.334 81.5005 104.606 81.6965 104.653 81.9847C104.791 82.8429 104.887 83.5189 104.948 83.9813C104.978 84.2125 105 84.3903 105.014 84.5109C105.022 84.5712 105.027 84.6172 105.03 84.6483C105.032 84.6639 105.033 84.6758 105.034 84.6839C105.035 84.6879 105.035 84.691 105.035 84.6932C105.035 84.6943 105.035 84.6951 105.035 84.6957C105.035 84.696 105.036 84.6963 105.036 84.6965V84.6968L105.036 84.6969L105.038 84.724C105.053 85.0033 104.847 85.2485 104.565 85.2783C104.275 85.309 104.015 85.0985 103.984 84.8081V84.8077C103.984 84.8074 103.984 84.8068 103.984 84.806C103.984 84.8043 103.983 84.8018 103.983 84.7983C103.982 84.7912 103.981 84.7804 103.979 84.766C103.976 84.737 103.971 84.6932 103.964 84.6352C103.951 84.5191 103.929 84.3459 103.899 84.1195C103.84 83.6666 103.746 83.0008 103.609 82.1535C103.562 81.8653 103.758 81.5938 104.046 81.5472ZM16.5943 78.5664C16.6729 78.2851 16.9646 78.1209 17.2458 78.1995C17.5271 78.2781 17.6913 78.5698 17.6127 78.851C17.3356 79.8425 17.1066 80.7965 16.9262 81.6957C16.8687 81.982 16.59 82.1674 16.3037 82.11C16.0174 82.0525 15.8319 81.7738 15.8893 81.4875C16.0753 80.561 16.3106 79.5815 16.5943 78.5664ZM46.4876 75.7935C46.6767 75.571 47.0104 75.544 47.2329 75.7331C48.0368 76.4165 48.8602 76.9478 49.6933 77.3116V77.3117C50.6351 77.7231 51.5135 78.0048 52.3251 78.1736C52.611 78.233 52.7946 78.5129 52.7351 78.7988C52.6757 79.0847 52.3958 79.2683 52.1099 79.2089C51.2181 79.0235 50.27 78.7175 49.2701 78.2808C48.3261 77.8685 47.416 77.2767 46.5479 76.5388C46.3255 76.3497 46.2984 76.016 46.4876 75.7935ZM60.0825 72.2666C60.3743 72.2754 60.6039 72.5192 60.595 72.8111C60.5263 75.0873 59.6574 77.0534 58.0303 78.2454C57.7948 78.4179 57.4639 78.3669 57.2913 78.1313C57.1187 77.8957 57.1698 77.5649 57.4053 77.3923C58.71 76.4365 59.4767 74.8115 59.538 72.7792C59.5469 72.4873 59.7906 72.2578 60.0825 72.2666ZM101.642 70.8539C101.923 70.7766 102.214 70.9421 102.292 71.2237C102.82 73.1496 103.255 74.943 103.609 76.5525C103.672 76.8377 103.492 77.1199 103.207 77.1827C102.922 77.2456 102.64 77.0653 102.577 76.7802C102.225 75.1866 101.795 73.4106 101.272 71.5036C101.195 71.222 101.36 70.9311 101.642 70.8539ZM21.2223 67.4986C21.3679 67.2455 21.6911 67.1583 21.9443 67.3038C22.1974 67.4494 22.2847 67.7726 22.1391 68.0258C21.1495 69.7466 20.2839 71.5301 19.5458 73.2989C19.4334 73.5684 19.1238 73.6957 18.8543 73.5833C18.5848 73.4708 18.4575 73.1611 18.5699 72.8916C19.3236 71.0856 20.2085 69.2616 21.2223 67.4986ZM40.0322 65.37C40.3036 65.2621 40.611 65.3946 40.7189 65.666C41.5124 67.6623 42.4228 69.5032 43.4223 71.1186C43.5759 71.3669 43.4992 71.6928 43.2508 71.8465C43.0025 72.0001 42.6766 71.9233 42.523 71.675C41.4864 69.9997 40.5493 68.1021 39.7362 66.0566C39.6284 65.7853 39.7609 65.4779 40.0322 65.37ZM55.1784 62.1508C55.3923 61.952 55.7269 61.9643 55.9257 62.1781C57.3902 63.7537 58.4948 65.3982 59.2616 67.0207C59.3863 67.2847 59.2734 67.5999 59.0094 67.7246C58.7454 67.8494 58.4302 67.7365 58.3055 67.4725C57.5882 65.9546 56.5467 64.3996 55.1511 62.8981C54.9523 62.6842 54.9645 62.3496 55.1784 62.1508ZM98.1276 60.4697C98.3991 60.3622 98.7064 60.4951 98.8139 60.7666C99.5125 62.5312 100.137 64.266 100.694 65.9452C100.786 66.2223 100.636 66.5216 100.359 66.6135C100.082 66.7055 99.7824 66.5554 99.6904 66.2783C99.1389 64.6165 98.5214 62.9005 97.8307 61.156C97.7232 60.8845 97.8561 60.5772 98.1276 60.4697ZM28.89 58.2388C29.1195 58.0583 29.4518 58.098 29.6324 58.3274C29.8129 58.5569 29.7733 58.8894 29.5438 59.0699C28.0555 60.241 26.6836 61.6379 25.4328 63.1829C25.2491 63.4099 24.9161 63.445 24.6892 63.2612C24.4622 63.0775 24.4271 62.7446 24.6109 62.5176C25.9026 60.922 27.3295 59.4666 28.89 58.2388ZM37.1516 53.3871C37.4414 53.3517 37.7051 53.558 37.7406 53.8478C37.7632 54.0327 37.7868 54.2174 37.8116 54.402C38.598 54.3147 39.4036 54.2853 40.2282 54.3196C40.5199 54.3318 40.7466 54.5782 40.7344 54.87C40.7223 55.1617 40.4759 55.3884 40.1841 55.3763C39.4265 55.3447 38.6863 55.3704 37.9634 55.4489C38.1961 56.9411 38.4965 58.4174 38.8575 59.8579C38.9285 60.1411 38.7564 60.4283 38.4731 60.4993C38.1899 60.5702 37.9027 60.3982 37.8317 60.1149C37.4622 58.6402 37.1548 57.1289 36.9169 55.601C36.1042 55.7494 35.3144 55.9649 34.5476 56.2403C34.2728 56.3389 33.97 56.1962 33.8713 55.9214C33.7726 55.6465 33.9154 55.3437 34.1902 55.245C35.0224 54.9461 35.8809 54.7132 36.765 54.554C36.7392 54.3615 36.7145 54.1689 36.6909 53.9761C36.6555 53.6863 36.8617 53.4226 37.1516 53.3871ZM45.4888 55.9149C45.5942 55.6426 45.9005 55.5074 46.1728 55.6129C47.0221 55.9418 47.8859 56.3362 48.764 56.7997L48.9398 56.8933L49.1064 56.9834C49.936 57.4355 50.7175 57.9094 51.4519 58.401C51.6945 58.5635 51.7596 58.8919 51.5972 59.1345C51.4348 59.3772 51.1063 59.4423 50.8636 59.2798C50.1092 58.7748 49.3016 58.2882 48.4393 57.8249C47.5367 57.34 46.6539 56.9331 45.7909 56.5989C45.5186 56.4934 45.3833 56.1872 45.4888 55.9149ZM93.3955 50.603C93.6504 50.4605 93.9725 50.5517 94.115 50.8065C95.0243 52.433 95.8609 54.0741 96.6302 55.7103C96.7544 55.9746 96.6409 56.2895 96.3766 56.4138C96.1124 56.538 95.7974 56.4245 95.6732 56.1603C94.9136 54.5448 94.0883 52.9258 93.192 51.3226C93.0495 51.0677 93.1406 50.7455 93.3955 50.603ZM36.9258 41.5077C36.9784 41.2205 37.2541 41.0303 37.5413 41.0829C37.8285 41.1356 38.0186 41.4112 37.966 41.6984C37.6097 43.6421 37.4268 45.6776 37.3991 47.7517C37.3952 48.0437 37.1553 48.2772 36.8634 48.2733C36.5714 48.2694 36.3379 48.0296 36.3418 47.7377C36.3701 45.6114 36.5577 43.5163 36.9258 41.5077ZM87.22 41.5723C87.447 41.3885 87.7799 41.4235 87.9637 41.6504C89.1305 43.091 90.2198 44.58 91.2366 46.0997C91.399 46.3424 91.3339 46.6708 91.0912 46.8332C90.8485 46.9956 90.5201 46.9305 90.3577 46.6878C89.3575 45.1928 88.2871 43.7299 87.1419 42.316C86.9581 42.0891 86.9931 41.7561 87.22 41.5723ZM79.401 33.9305C79.5825 33.7018 79.9151 33.6636 80.1439 33.8451C81.6012 35.0016 82.9752 36.2372 84.2704 37.5354C84.4766 37.7422 84.4762 38.077 84.2695 38.2832C84.0627 38.4894 83.728 38.489 83.5218 38.2824C82.2537 37.0113 80.9101 35.8031 79.4865 34.6734C79.2578 34.4919 79.2195 34.1592 79.401 33.9305ZM42.1446 30.1602C42.3425 29.9454 42.6771 29.9317 42.8918 30.1296C43.1066 30.3274 43.1203 30.6619 42.9224 30.8767C41.5943 32.3184 40.527 34.0175 39.6975 35.9056C39.5801 36.1729 39.2681 36.2944 39.0008 36.177C38.7334 36.0595 38.6119 35.7475 38.7293 35.4802C39.599 33.5006 40.7268 31.6993 42.1446 30.1602ZM69.9884 28.399C70.1055 28.1316 70.4173 28.0097 70.6848 28.1268C72.4055 28.8802 74.0423 29.7356 75.5989 30.6787C75.8486 30.83 75.9284 31.1552 75.7771 31.4049C75.6258 31.6547 75.3007 31.7344 75.0509 31.5831C73.5331 30.6635 71.9376 29.8296 70.2607 29.0955C69.9932 28.9783 69.8713 28.6665 69.9884 28.399ZM53.402 24.839C53.6927 24.8115 53.9506 25.0249 53.9781 25.3156C54.0056 25.6063 53.7922 25.8643 53.5015 25.8918C51.3135 26.0985 49.3905 26.6178 47.7089 27.3915C47.4436 27.5136 47.1296 27.3974 47.0076 27.1321C46.8855 26.8668 47.0016 26.5529 47.2669 26.4308C49.0653 25.6034 51.1053 25.056 53.402 24.839ZM59.0851 25.4657C59.1239 25.1763 59.39 24.9732 59.6794 25.012C60.6748 25.1456 61.706 25.3283 62.774 25.5625C63.692 25.7639 64.5906 25.992 65.4704 26.2453C65.751 26.3261 65.913 26.6191 65.8322 26.8997C65.7514 27.1803 65.4584 27.3423 65.1777 27.2615C64.3199 27.0144 63.4432 26.792 62.5474 26.5955C61.5061 26.3671 60.5036 26.1895 59.5388 26.0601C59.2494 26.0213 59.0462 25.7552 59.0851 25.4657Z" fill="#D8EEF0"/>
<path d="M87.9519 145.43C85.9571 148.357 77.8318 146.246 69.845 140.802C61.8572 135.357 57.8119 126.122 59.8067 123.196C61.8015 120.269 69.0807 124.759 77.0685 130.204C85.0563 135.648 89.9466 142.505 87.9519 145.431V145.43Z" fill="#5C668A"/>
<path d="M86.7112 145.25C84.7164 148.176 76.968 146.726 68.9802 141.281C60.9925 135.837 57.6576 127.715 59.6524 124.788C61.6471 121.861 68.2169 125.238 76.2038 130.682C84.1915 136.127 88.706 142.322 86.7112 145.249V145.25Z" fill="#3F4661"/>
<path d="M71.519 116.602C71.519 116.602 70.648 107.737 72.3323 100.527C76.119 84.3132 70.1904 78.35 71.5882 75.638C72.986 72.9251 79.8259 76.684 82.0274 84.1872C84.2289 91.6905 84.7182 93.2786 84.7182 93.2786C84.7182 93.2786 88.4386 82.378 89.3432 77.6107C90.2478 72.8434 92.7137 54.677 96.3302 53.855C99.9468 53.0331 100.933 57.1428 100.933 59.3626C100.933 59.3626 101.687 48.8493 106.131 48.3446C110.576 47.8399 110.035 56.59 110.035 56.59C110.035 56.59 112.839 51.0373 117.159 53.3369C121.478 55.6364 121.833 71.0621 121.833 71.0621C121.833 71.0621 124.84 62.9262 129.217 63.4329C133.594 63.9385 130.206 93.045 130.206 93.045L107.177 123.11C107.177 123.11 101.471 130.736 90.7583 137.076C85.5344 140.168 75.5912 162.457 75.5912 162.457C75.5912 162.457 68.186 168.081 60.6318 168.509C49.2496 169.154 36.0552 164.474 42.2058 156.033C56.2875 136.708 71.518 116.603 71.518 116.603L71.519 116.602Z" fill="#D48C13"/>
<path opacity="0.36" d="M84.3116 91.9241L84.1318 96.775C81.3727 80.263 72.0362 75.2631 71.918 75.2006C73.8358 73.4173 79.9663 77.1608 82.0284 84.1872C83.2406 88.3191 83.9338 90.657 84.3116 91.9241Z" fill="#B45F00"/>
<path d="M84.6973 98.3987C84.6973 98.3987 93.8761 111.772 89.1358 123.45C89.1358 123.45 94.1328 119.833 92.7312 110.81C91.3296 101.787 84.6982 98.3997 84.6982 98.3997L84.6973 98.3987Z" fill="#B45F00"/>
<path d="M99.7043 75.1997C99.7043 75.1997 98.1931 89.7169 97.1241 92.4875C96.0551 95.258 99.4736 97.5662 100.685 94.2284C101.896 90.8916 102.488 78.425 102.488 78.425L99.7043 75.1997Z" fill="#B45F00"/>
<path d="M71.3965 76.2495C71.3965 76.2495 74.6632 77.7876 74.3402 83.4153C74.3402 83.4153 73.6951 78.2183 71.5667 78.0625C71.5667 78.0625 71.287 77.1089 71.3965 76.2495Z" fill="#B45F00"/>
<path opacity="0.36" d="M108.103 121.901L107.177 123.109C107.177 123.109 101.472 130.735 90.7585 137.075C87.539 138.981 82.5285 148.176 79.1571 154.952L77.392 156.251L55.3418 138.192C58.1249 134.446 60.7282 130.958 62.9989 127.926C65.7175 131.418 71.8951 137.093 82.4439 135.225C97.3764 132.582 107.341 117.579 107.341 117.579L108.103 121.901Z" fill="#B45F00"/>
<path opacity="0.36" d="M88.063 139.718C85.8067 142.576 83.239 147.061 81.0221 151.294L57.873 134.787C59.3006 132.871 60.6629 131.048 61.9347 129.346C64.0785 131.372 71.7183 138.099 80.4203 139.949C82.9313 140.482 85.5452 140.3 88.063 139.718Z" fill="#B45F00"/>
<path opacity="0.36" d="M101.873 105.395C95.4842 105.572 88.5059 94.4919 88.5059 94.4919C88.5059 94.4919 92.8117 82.428 92.978 69.7479C93.1434 57.1669 97.3771 53.806 97.4434 53.7551C100.153 53.9252 100.932 57.3889 100.932 59.3616C100.932 59.3616 108.262 105.218 101.873 105.395Z" fill="#B45F00"/>
<path opacity="0.36" d="M110.035 56.59L109.492 68.7616L103.246 69.6104C103.246 69.6104 103.513 59.7999 103.993 54.3934C104.473 48.9868 106.994 48.3687 106.994 48.3687C110.503 49.0233 110.035 56.59 110.035 56.59Z" fill="#B45F00"/>
<path opacity="0.36" d="M121.831 71.0611C121.831 71.0611 115.249 84.59 114.447 68.5174C113.645 52.4447 117.158 53.3368 117.158 53.3368C121.476 55.6364 121.831 71.0611 121.831 71.0611Z" fill="#B45F00"/>
<path opacity="0.36" d="M131.309 79.4449C129.47 79.9544 125.045 80.6293 125.386 73.2424C125.8 64.3106 128.787 63.3819 129.217 63.4319C131.507 63.6963 131.671 71.7879 131.309 79.4449Z" fill="#B45F00"/>
<path opacity="0.36" d="M69.8301 118.836C69.8301 118.836 73.637 122.493 75.1847 119.858C75.9798 118.504 71.4153 115.214 71.4153 115.214L71.5182 116.603L69.8301 118.837V118.836Z" fill="#B45F00"/>
<path opacity="0.4" d="M84.4942 105.66C83.8155 104.628 79.1934 100.593 79.1934 107.796C79.1934 114.998 85.4584 124.993 85.9275 119.292C86.3967 113.568 86.3496 108.546 84.4942 105.66Z" fill="#E2A040"/>
<path opacity="0.36" d="M71.8398 103.109C71.9715 102.237 72.134 101.371 72.3311 100.527C74.0826 93.0296 73.7558 87.724 73.0377 83.9181C74.7104 84.8775 76.6225 86.8578 77.0551 90.933C77.8578 98.4987 71.8398 103.109 71.8398 103.109Z" fill="#B45F00"/>
<path d="M59.8067 123.195C59.8067 123.195 58.1224 131.788 65.4699 137.594C73.8432 144.21 84.9592 147.98 87.9528 145.43L75.3256 164.962C75.3256 164.962 69.9776 168.879 59.9259 169.193C52.065 169.438 42.6448 166.931 35.7309 160.931C34.6032 159.952 34.3936 158.283 35.2531 157.063C39.8838 150.48 54.4212 129.892 59.8076 123.196L59.8067 123.195Z" fill="#5C668A"/>
<path d="M72.3043 166.584C69.7414 167.701 65.5769 169.017 59.9261 169.193C52.0653 169.438 42.6451 166.931 35.7302 160.93C34.6035 159.952 34.3939 158.283 35.2524 157.062C39.8831 150.479 54.4205 129.891 59.8069 123.195C59.8069 123.195 58.3688 130.533 63.9484 136.228C62.5775 143.522 62.2468 153.883 68.3292 162.138C69.6703 163.958 71.0017 165.42 72.3043 166.584Z" fill="#515C82"/>
<path d="M59.7021 126.811C55.2848 132.098 43.4363 147.463 43.3132 160.332C43.294 162.397 43.4324 164.267 43.6891 165.957C40.8464 164.684 38.1364 163.018 35.7302 160.93C34.6035 159.952 34.3939 158.283 35.2524 157.062C39.8831 150.479 54.4205 129.891 59.8069 123.195C59.8069 123.195 59.5176 124.67 59.7021 126.811Z" fill="#495375"/>
<path d="M127.316 71.1976C127.316 71.1976 127.708 65.1325 129.679 62.7647C130.959 61.2266 134.747 60.8776 134.453 63.5751C134.259 65.3421 134.433 70.4314 134.472 74.5065C134.492 76.6532 135.465 80.2948 135.338 81.2446C134.97 83.9998 136.95 96.5222 136.95 96.5222L127.025 95.1235L127.316 71.1976Z" fill="#E8D4BA"/>
<path opacity="0.4" d="M135.339 81.2455C135.339 81.2455 132.146 80.9533 131.957 84.0825C131.768 87.2126 132.67 89.2449 131.457 89.2449C130.935 89.2449 129.082 87.6721 127.139 85.8802L127.317 71.1976C127.317 71.1976 127.709 65.1325 129.679 62.7647C130.418 61.8784 131.99 61.3862 133.132 61.6467C133.132 61.6467 129.08 61.5765 130.345 70.3247C130.993 74.8026 132.83 75.814 134.552 75.6659C134.783 77.7761 135.446 80.4505 135.339 81.2455Z" fill="#CEB79B"/>
<path d="M129.967 87.774C129.227 85.5475 128.225 81.4195 127.244 77.0435L127.315 71.1976C127.315 71.1976 127.341 70.8034 127.411 70.1757C127.567 70.641 127.732 71.114 127.904 71.5917C129.382 75.6947 128.424 80.9398 131.033 85.536C133.189 89.3362 131.033 90.982 129.967 87.774Z" fill="#CEB79B"/>
<path d="M116.935 64.9941C116.935 64.9941 116.492 57.5533 118.537 54.3944C119.864 52.3419 123.847 50.7288 123.847 54.1146C123.847 56.293 125.499 63.0676 126.166 68.0252C126.517 70.6372 128.256 74.9353 128.245 76.111C128.214 79.518 132.532 94.4928 132.532 94.4928L120.216 94.1746L116.937 64.9951L116.935 64.9941Z" fill="#E8D4BA"/>
<path opacity="0.4" d="M123.846 80.7264C124.443 86.008 125.578 90.3359 124.712 90.9127C124.389 91.1281 122.26 90.5599 119.718 89.763L116.935 64.995C116.935 64.995 116.492 57.5533 118.537 54.3943C119.282 53.2436 120.86 52.2303 122.104 52.1602C122.104 52.1602 116.187 56.8025 121.355 67.083C122.905 70.167 124.7 69.6239 126.182 68.1463C126.569 70.7669 128.255 74.9545 128.244 76.111C128.244 76.1408 128.244 76.1725 128.245 76.2042C126.217 76.4263 123.464 77.3444 123.846 80.7264Z" fill="#CEB79B"/>
<path d="M123.08 89.4025C122.115 86.4954 119.997 80.3573 118.021 74.6632L116.935 64.995C116.935 64.995 116.797 62.6753 117.031 60.0759C117.31 62.4975 118.132 66.7735 120.517 72.7011C122.145 76.7465 120.236 78.1269 124.145 87.1655C125.879 91.1752 124.145 92.6105 123.08 89.4025Z" fill="#CEB79B"/>
<path d="M107.384 60.3498C107.384 60.3498 106.917 52.4947 109.075 49.1598C110.476 46.993 115.297 45.9865 115.35 49.4982C115.385 51.7978 116.424 58.3156 117.128 63.5501C117.498 66.3073 119.334 70.8448 119.322 72.0859C119.29 75.6823 123.847 91.4905 123.847 91.4905L110.12 99.2908L107.384 60.3498Z" fill="#E8D4BA"/>
<path opacity="0.4" d="M120.1 77.0262C118.521 76.9128 114.121 77.0724 114.173 82.3838C114.237 88.8565 114.896 93.369 113.541 93.4565C113.235 93.4767 111.718 92.6076 109.555 91.2492L107.385 60.3499C107.385 60.3499 106.916 52.4947 109.075 49.1599C110.043 47.664 112.64 46.7209 114.173 47.4371C114.173 47.4371 107.551 50.2894 110.279 60.6133C112.496 69.0029 117.135 69.7796 118.794 69.7768C119.102 70.8063 119.326 71.6494 119.323 72.0859C119.314 73.0434 119.63 74.8661 120.1 77.0262Z" fill="#CEB79B"/>
<path d="M111.698 91.3886C111.376 88.4758 110.172 80.5437 108.303 73.4202L107.385 60.3498C107.385 60.3498 107.211 57.4293 107.564 54.3934C107.909 57.2793 108.761 62.7224 110.819 70.1757C111.348 72.0916 111.459 74.6498 111.574 76.6869C111.821 81.0283 112.959 86.1147 113.884 89.4784C115.096 93.8843 112.133 95.3215 111.698 91.3886Z" fill="#CEB79B"/>
<path d="M78.4554 92.9258C78.4554 92.9258 77.5489 89.364 84.4292 89.6832C89.6762 89.9264 100.219 102.746 100.933 102.973C101.646 103.199 100.014 89.4794 99.5367 78.1144C99.08 67.2638 98.0351 55.123 99.7164 52.3755C101.346 49.7145 105.658 49.9116 105.933 50.4692C106.078 50.7595 106.722 55.6412 107.75 61.2881C108.696 66.4803 108.972 67.8704 109.487 72.3397C110.33 79.6478 112.582 96.5241 112.582 96.5241C112.582 96.5241 135.441 83.7335 136.495 92.5547C137.55 101.376 141.94 117.594 142.797 123.518C143.654 129.441 151.236 143.526 151.236 143.526L121.126 151.977C121.126 151.977 117.034 139.87 113.126 136.629C109.218 133.389 98.4177 126.975 94.2262 116.91C89.2888 105.054 82.3172 96.0415 78.4545 92.9268L78.4554 92.9258Z" fill="#E8D4BA"/>
<path opacity="0.4" d="M151.236 143.524L121.127 151.975C121.127 151.975 117.034 139.868 113.126 136.627C109.218 133.387 98.4178 126.973 94.2274 116.908C94.1072 116.62 93.9861 116.332 93.863 116.048C97.145 112.272 101.391 105.072 94.0101 98.3997C87.7547 92.7451 82.0568 91.9741 78.4277 92.2961C78.5325 91.2886 79.4025 89.4496 84.4284 89.6822C89.6754 89.9254 100.218 102.746 100.933 102.972C101.646 103.198 100.014 89.4784 99.5359 78.1135C99.0792 67.2638 98.0343 55.122 99.7156 52.3745C101.345 49.7136 105.657 49.9106 105.934 50.4682C105.934 50.4682 96.8768 49.9087 101.218 64.1865C103.299 71.0293 107.263 72.0791 109.459 72.0907C110.489 72.0964 111.167 71.8619 111.167 71.8619L110.757 76.8435C110.757 76.8435 110.487 76.8743 110.046 76.9656C107.961 77.3963 102.036 79.1834 102.489 85.5408C103.017 92.946 105.016 123.679 143.398 126.049C145.416 132.711 151.236 143.524 151.236 143.524Z" fill="#CEB79B"/>
<path d="M102.404 52.5313C100.571 55.7864 103.721 59.3078 106.132 58.034C106.132 58.034 104.628 58.5541 103.214 56.1642C101.799 53.7734 102.404 52.5323 102.404 52.5323V52.5313Z" fill="#CEB79B"/>
<path d="M111.878 49.2262C109.241 52.1554 111.674 56.5064 114.45 55.7499C114.45 55.7499 112.781 55.9392 111.875 53.1523C110.97 50.3654 111.878 49.2262 111.878 49.2262Z" fill="#CEB79B"/>
<path d="M121.213 54.6203C118.942 57.1438 121.037 60.8911 123.428 60.2393C123.428 60.2393 121.99 60.4028 121.21 58.0023C120.431 55.6018 121.213 54.6203 121.213 54.6203Z" fill="#CEB79B"/>
<path d="M131.886 62.857C129.779 64.6586 130.798 67.9233 132.71 67.6512C132.71 67.6512 131.595 67.6291 131.369 65.5988C131.143 63.5684 131.886 62.857 131.886 62.857Z" fill="#CEB79B"/>
<path d="M86.3613 95.88C85.7345 93.4796 82.0093 92.1173 79.4531 92.3375C79.4531 92.3375 81.6431 90.7196 83.4802 91.654C86.8641 93.3757 86.3613 95.881 86.3613 95.881V95.88Z" fill="#CEB79B"/>
<path opacity="0.4" d="M104.509 110.018C101.678 110.018 98.5586 100.59 98.5586 100.59C99.8564 101.96 100.743 102.911 100.932 102.972C101.371 103.11 100.923 97.9796 100.401 91.3646C100.447 91.4848 107.331 110.018 104.509 110.018Z" fill="#CEB79B"/>
<path d="M102.279 105.388C100.756 105.595 99.7051 101.799 99.7051 101.799C100.369 102.493 100.806 102.931 100.933 102.972C101.165 103.045 101.148 101.638 101.004 99.3159C101.197 99.7254 103.746 105.188 102.279 105.388Z" fill="#CEB79B"/>
<path d="M140.683 113.34C140.683 113.34 137.41 109.588 125.955 112.965C125.955 112.965 136.343 112.508 141.466 116.812L140.683 113.34Z" fill="#CEB79B"/>
<path d="M140.276 130.527L116.699 141.597C115.576 139.503 114.342 137.636 113.126 136.627C111.421 135.212 108.399 133.193 105.189 130.528C105.369 130.586 122.606 136.279 140.276 130.527Z" fill="#CEB79B"/>
<path d="M91.0371 110.113C88.7847 105.815 86.3679 102.087 84.1309 99.1342C92.1321 100.509 91.5024 106.465 91.0371 110.113Z" fill="#EDDAC5"/>
<path d="M107.704 96.1406C106.875 97.9729 111.394 100.198 113.191 99.4303C114.111 99.0371 114.671 98.3026 114.457 97.248C114.169 95.8329 111.832 95.0658 111.062 94.9322C109.616 94.7034 108.133 95.1629 107.705 96.1386L107.703 96.1406H107.704Z" fill="#EDDAC5"/>
<path d="M119.926 94.0112C119.098 95.3763 122.531 97.1509 124.203 96.5155C124.693 96.3338 125.538 95.5243 125.302 94.6505C125.06 93.7526 123.852 93.2671 123.127 93.1546C121.767 92.9614 120.351 93.2834 119.924 94.0112H119.926Z" fill="#EDDAC5"/>
<path d="M131.452 93.3171C130.5 94.4986 132.837 95.0763 134.272 94.7649C134.692 94.6783 135.204 94.5043 135.23 94.1775C135.281 93.7487 134.649 93.3152 134.119 93.0739C133.114 92.6317 131.948 92.6864 131.453 93.3171H131.452Z" fill="#EDDAC5"/>
<path d="M171.355 170.771C169.003 181.535 143.928 186.159 127.547 175.552C120.439 170.944 116.167 153.642 113.103 146.721C107.941 135.07 142.707 121.221 149.016 132.292C152.151 137.805 172.411 165.94 171.358 170.773L171.356 170.771H171.355Z" fill="#9EA58E"/>
<path d="M171.357 170.773L171.355 170.771C169.003 181.535 143.928 186.158 127.547 175.552C120.439 170.944 116.167 153.642 113.103 146.72C111.714 143.587 113.214 140.294 116.273 137.37C121.739 145.668 135.659 163.521 154.805 164.615C160.474 164.939 164.877 164.115 168.294 162.646C170.368 166.454 171.642 169.466 171.357 170.773Z" fill="#949984"/>
<path d="M118.54 141.7C120.932 140.744 122.501 143.691 121.028 144.779C118.902 146.347 116.54 142.5 118.54 141.7Z" fill="#676D54"/>
<path d="M128.736 157.684C129.093 158.53 129.239 159.272 128.596 159.949C126.897 161.737 122.942 156.726 126.219 156.06C127.271 155.846 128.418 156.928 128.736 157.684Z" fill="#676D54"/>
<path d="M136.043 174.335C132.916 174.139 132.244 168.772 135.133 169.792C136.839 170.282 138.594 174.21 136.043 174.335Z" fill="#676D54"/>
<path d="M136.207 174.321C136.154 174.327 136.099 174.332 136.043 174.335C133.348 174.167 132.476 170.156 134.136 169.705C134.079 169.791 134.029 169.891 133.986 170.005C133.327 171.835 134.363 173.719 136.207 174.321Z" fill="#474C2F"/>
<path d="M128.516 160.024C126.899 161.479 123.503 157.355 125.65 156.251C125.55 156.66 125.564 157.129 125.769 157.658C126.315 159.07 127.591 159.726 128.516 160.024V160.024Z" fill="#474C2F"/>
<path d="M120.754 144.951C118.707 146.024 116.626 142.467 118.54 141.701C118.646 141.658 118.751 141.623 118.855 141.597C118.529 142.188 118.303 142.982 118.742 143.75C119.18 144.517 120.03 144.83 120.754 144.952V144.951Z" fill="#474C2F"/>
<path d="M156.864 144.292C154.295 144.726 151.204 144.642 147.484 143.796C133.926 140.714 128.01 135.078 125.527 131.501C134.615 127.53 145.714 126.498 149.016 132.293C150.104 134.207 153.256 138.847 156.864 144.292Z" fill="#B1B7A5"/>
<path opacity="0.14" d="M162.216 179.3C152.859 182.916 138.323 182.529 127.548 175.552C123.128 172.686 119.804 164.912 117.186 157.777C123.292 164.469 135.198 175.074 151.236 177.828C155.448 178.55 159.083 179.019 162.216 179.3Z" fill="#474C2F"/>
<path opacity="0.14" d="M130.683 177.35C129.609 176.808 128.561 176.209 127.547 175.552C120.439 170.944 116.168 153.642 113.103 146.721C112.232 144.755 112.497 142.725 113.572 140.764C115.467 142.24 119.409 145.634 119.268 148.225C119.082 151.631 117.809 155.163 121.599 159.137C125.39 163.11 125.727 164.435 125.527 169.292C125.408 172.184 128.314 175.301 130.683 177.35Z" fill="#474C2F"/>
<path d="M47.1943 101.79C48.172 104.783 50.3754 107.205 53.1931 108.488C50.4283 109.789 48.2951 112.184 47.3328 115.1C46.3541 112.108 44.1536 109.687 41.3359 108.404C44.0998 107.104 46.233 104.706 47.1943 101.791V101.79Z" fill="#8CCEA7"/>
<path d="M160.956 44.605C161.934 47.5976 164.137 50.0192 166.955 51.3026C164.19 52.6033 162.057 54.999 161.094 57.9147C160.116 54.923 157.915 52.5014 155.098 51.219C157.862 49.9183 159.995 47.5207 160.956 44.6059V44.605Z" fill="#8CCEA7"/>
<path d="M101.855 158.386C103.579 158.386 104.977 156.988 104.977 155.264C104.977 153.539 103.579 152.141 101.855 152.141C100.13 152.141 98.7324 153.539 98.7324 155.264C98.7324 156.988 100.13 158.386 101.855 158.386Z" fill="#8CCEA7"/>
<path d="M151.235 43.9446C152.674 43.9446 153.841 42.7777 153.841 41.3384C153.841 39.899 152.674 38.7322 151.235 38.7322C149.796 38.7322 148.629 39.899 148.629 41.3384C148.629 42.7777 149.796 43.9446 151.235 43.9446Z" fill="#8CCEA7"/>
<path d="M108.594 23.8766C109.253 23.7968 109.852 24.2662 109.932 24.925L111.487 37.7598C111.567 38.4187 111.098 39.0175 110.439 39.0974C109.78 39.1772 109.181 38.7078 109.101 38.049L107.546 25.2142C107.466 24.5553 107.935 23.9565 108.594 23.8766Z" fill="#8CCEA7"/>
<path d="M71.5401 56.9356C71.8334 56.3403 72.5538 56.0956 73.1491 56.3889L84.7458 62.104C85.3411 62.3974 85.5858 63.1179 85.2925 63.7132C84.9991 64.3085 84.2787 64.5532 83.6834 64.2598L72.0867 58.5446C71.4914 58.2513 71.2467 57.5309 71.5401 56.9356Z" fill="#8CCEA7"/>
<path d="M129.964 27.7797C130.399 27.2788 131.158 27.2256 131.659 27.6609C132.16 28.0962 132.214 28.8552 131.778 29.3562L120.773 42.0209C120.338 42.5218 119.578 42.575 119.078 42.1397C118.577 41.7043 118.523 40.9454 118.959 40.4445L129.964 27.7797Z" fill="#8CCEA7"/>
</svg>
